<?xml version="1.0" encoding="utf-8"?>
<!-- Generator: Adobe Illustrator 22.0.1, SVG Export Plug-In . SVG Version: 6.00 Build 0)  -->
<svg version="1.1" id="Layer_1" xmlns="http://www.w3.org/2000/svg" xmlns:xlink="http://www.w3.org/1999/xlink" x="0px" y="0px"
	 viewBox="0 0 2423 1955.9" style="enable-background:new 0 0 2423 1955.9;" xml:space="preserve">
<style type="text/css">
	.st0{fill:#A0D5DB;}
	.st1{fill:none;}
	.st2{opacity:0.8;fill:#F9F9F7;}
	.st3{opacity:0.18;fill:#F9F9F7;}
	.st4{opacity:0.51;fill:#F9F9F7;}
	.st5{opacity:0.54;fill:#F9F9F7;}
	.st6{opacity:7.000000e-02;fill:#F9F9F7;}
	.st7{fill:#6ECC90;}
</style>
<rect x="-0.6" y="-4.9" class="st0" width="2440.1" height="1965.7"/>
<rect x="1245.9" y="453.8" class="st1" width="867.2" height="617.3"/>
<path class="st2" d="M728.3,211.9c-3-23,4.2-40.8,24.1-51.9c16.3-9.1,32.8-7,52.6,5.9c10.9-29.1,31.5-45.4,63-40.8
	c29.4,4.3,44.8,24.2,48.3,54c16.8-6.8,32.6-6.7,46.7,4.6c13.8,11,18.6,25.8,15.4,43.7c2.1,1,4.4,2.1,6.6,3.3
	c10.8,5.8,16.5,18.1,13.8,29.7c-2.7,11.6-13.2,20.6-25.3,20.6c-83.9,0.1-167.7,0.2-251.6-0.1c-18-0.1-32.3-15.7-32.5-33.8
	c-0.2-18.4,13.5-33.5,31.5-34.8C723,212.1,725,212.1,728.3,211.9z"/>
<path class="st3" d="M1715.8,181.1c-0.8-6.2,1.1-11,6.5-14c4.4-2.5,8.9-1.9,14.2,1.6c2.9-7.9,8.5-12.3,17-11
	c8,1.2,12.1,6.5,13.1,14.6c4.5-1.8,8.8-1.8,12.6,1.2c3.7,3,5,7,4.2,11.8c0.6,0.3,1.2,0.6,1.8,0.9c2.9,1.6,4.5,4.9,3.7,8
	c-0.7,3.1-3.6,5.6-6.8,5.6c-22.7,0-45.3,0.1-68,0c-4.9,0-8.7-4.2-8.8-9.1c0-5,3.6-9.1,8.5-9.4
	C1714.4,181.2,1714.9,181.1,1715.8,181.1z"/>
<path class="st3" d="M73.8,77.1c-0.8-6.2,1.1-11,6.5-14c4.4-2.5,8.9-1.9,14.2,1.6c2.9-7.9,8.5-12.3,17-11c8,1.2,12.1,6.5,13.1,14.6
	c4.5-1.8,8.8-1.8,12.6,1.2c3.7,3,5,7,4.2,11.8c0.6,0.3,1.2,0.6,1.8,0.9c2.9,1.6,4.5,4.9,3.7,8c-0.7,3.1-3.6,5.6-6.8,5.6
	c-22.7,0-45.3,0.1-68,0c-4.9,0-8.7-4.2-8.8-9.1c0-5,3.6-9.1,8.5-9.4C72.4,77.2,72.9,77.1,73.8,77.1z"/>
<path class="st4" d="M81.7,956.7c-1.4-10.6,1.9-18.9,11.2-24.1c7.5-4.2,15.2-3.3,24.4,2.7c5.1-13.5,14.6-21,29.2-18.9
	c13.6,2,20.8,11.2,22.4,25c7.8-3.1,15.1-3.1,21.7,2.1c6.4,5.1,8.6,11.9,7.1,20.3c1,0.5,2,1,3.1,1.5c5,2.7,7.6,8.4,6.4,13.8
	c-1.3,5.4-6.1,9.5-11.7,9.6c-38.9,0.1-77.7,0.1-116.6,0c-8.3,0-15-7.3-15.1-15.7c-0.1-8.5,6.2-15.5,14.6-16.1
	C79.3,956.8,80.2,956.8,81.7,956.7z"/>
<path class="st5" d="M2165.5,588.4c-1.6-12.7,2.3-22.6,13.4-28.8c9-5,18.2-3.9,29.2,3.3c6.1-16.2,17.5-25.2,35-22.7
	c16.3,2.4,24.8,13.4,26.8,29.9c9.3-3.8,18.1-3.7,25.9,2.5c7.7,6.1,10.3,14.3,8.5,24.3c1.2,0.6,2.4,1.2,3.7,1.8
	c6,3.2,9.2,10.1,7.7,16.5c-1.5,6.4-7.3,11.4-14.1,11.4c-46.5,0.1-93.1,0.1-139.6,0c-10,0-17.9-8.7-18-18.8
	c-0.1-10.2,7.5-18.6,17.5-19.3C2162.5,588.5,2163.7,588.5,2165.5,588.4z"/>
<path class="st6" d="M1118.7,799c-1.6-12.7,2.3-22.6,13.4-28.8c9-5,18.2-3.9,29.2,3.3c6.1-16.2,17.5-25.2,35-22.7
	c16.3,2.4,24.8,13.4,26.8,29.9c9.3-3.8,18.1-3.7,25.9,2.5c7.7,6.1,10.3,14.3,8.5,24.3c1.2,0.6,2.4,1.2,3.7,1.8
	c6,3.2,9.2,10.1,7.7,16.5c-1.5,6.4-7.3,11.4-14.1,11.4c-46.5,0.1-93.1,0.1-139.6,0c-10,0-17.9-8.7-18-18.8
	c-0.1-10.2,7.5-18.6,17.5-19.3C1115.8,799.1,1117,799.1,1118.7,799z"/>
<rect x="-0.2" y="1869.2" class="st7" width="2439.4" height="86.7"/>
</svg>
