<?xml version="1.0" encoding="utf-8"?>
<!-- Generator: Adobe Illustrator 22.0.1, SVG Export Plug-In . SVG Version: 6.00 Build 0)  -->
<svg version="1.1" id="Layer_1" xmlns="http://www.w3.org/2000/svg" xmlns:xlink="http://www.w3.org/1999/xlink" x="0px" y="0px"
	 viewBox="0 0 608.5 608.2" style="enable-background:new 0 0 608.5 608.2;" xml:space="preserve">
<style type="text/css">
	.st0{fill:#FAC645;stroke:#FAC645;stroke-miterlimit:10;}
	.st1{fill:#F2BC46;}
	.st2{fill:#AE771E;stroke:#AE771E;stroke-miterlimit:10;}
	.st3{fill:#9A591B;}
	.st4{fill:#E7894A;stroke:#E7894A;stroke-miterlimit:10;}
	.st5{fill:#D46114;stroke:#D46114;stroke-miterlimit:10;}
	.st6{fill:#D96F25;}
	.st7{fill:none;stroke:#13162A;stroke-width:4;stroke-linecap:round;stroke-miterlimit:10;}
	.st8{opacity:0.73;fill:#0A8E9B;}
	.st9{fill:#13162A;}
	.st10{fill:#9A591B;stroke:#9A591B;stroke-miterlimit:10;}
	.st11{fill:#D96F25;stroke:#D96F25;stroke-miterlimit:10;}
</style>
<g>
	<path class="st0" d="M146.8,256.7c-3.6-11.3-9.6-31-4.5-55.3c1.4-6.5,9.3-44.3,42.5-60.3c4.9-2.4,31.1-15,50.3-2.2
		c11.7,7.8,20.6,25,19.6,33.5c-0.1,0.9-0.6,3.9,0.6,7.4c1.5,4.3,4.9,6.8,6.5,7.9c10,7.1,42.3,27,54.7,35.9
		c13.1,9.4,21.8,15.6,26.6,27.2c9.4,22.7-3.9,47.2-4.9,49c-21.5,38.3-92.4,54-140.1,26.6C162.4,305.9,150.2,267.7,146.8,256.7z"/>
	<path class="st1" d="M258.7,200.8c-1-4.7,1.6-9.3,4.4-13.1c6.3-8.8,14.1-16.5,22.9-22.8c10.8-7.7,21.8-15.1,32.5-22.9
		c17.2-12.5,36.7-22.2,56.4-29.9c1.2-0.5,2.5-1,3.8-0.9s2.6,1,2.9,2.2c0.3,1.4-0.9,2.7-1.9,3.7c-10.1,9.8-20.7,19-31.8,27.7
		c-3.7,2.9-7.8,6.4-8,11.1c11.2-1.6,19.3-11.2,30.2-13.9c1.6,5-2.2,10.4-5,14.3c-6.2,8.7-12.5,17.5-21,24
		c-3.8,2.9-9.1,5.7-11.3,10.2c8.7,5.1,20.4,0.4,29.2-1.3c1.2-0.2,2.4,0,3.3,0.7c1.1,1,1.3,2.8,0.8,4.2c-2.5,6.8-8.8,11.7-14.9,15.3
		c-3.3,2-6.9,3.6-10.5,4.9c-3,1.1-7.2,1.4-9,4.3c-0.2,0.3-0.3,0.6-0.2,0.9c0.2,0.3,0.6,0.4,1,0.4c1.8,0.1,3.5,0.1,5.3,0.2
		c1,0,2.1,0.1,2.7,0.9c0.6,0.7,0.4,1.9-0.1,2.6c-0.5,0.8-1.3,1.3-2.1,1.8c-6.2,3.9-12.3,7.8-19.3,10.4c-7.7,2.9-16.2,4.2-24.3,2.7"
		/>
	<path class="st1" d="M146.2,187.2c-12.1-10.4-18.2-25.9-23.1-41.1c-4.8-15.2-8.9-31-18.3-43.8c-0.5-0.7-1.1-1.4-1.9-1.5
		c-1.3-0.2-2.2,1.4-2.6,2.6c-5.2,15.2-5,31.7-4.8,47.8c0.1,4.1,0.1,8.4,1.6,12.2c1,2.5,2.5,4.9,3.7,7.4c0.3,0.7-0.6,1.3-1.1,0.6
		c-2.5-3.6-6.1-6.3-10.2-7.7c-1.1-0.4-2.4,0.5-2.3,1.7c0.3,6.9,5,13.1,9.6,18.5l11.7,14c0.8,1,0,2.6-1.3,2.4l-13.6-1.6
		c-1.3-0.2-2.6,0.3-3.3,1.4c-1,1.5-0.3,2.6,0.5,3.6c7.5,9.9,18.9,16.9,31.1,19c0,2.7,0,2.2,0.1,4.9c-2.2,0.5-4.5,1.2-6.1,2.9
		c-0.8,0.9-1.3,2.2-1.3,3.4c0.1,2.3,1.9,3.2,3.5,3.9c7.6,3.3,15.9,4.8,24.2,4.3"/>
	<path class="st2" d="M338,243.4c23.5-10.2,47.4-19.5,71.6-28.1c0.9,1.8,0.2,4.1-1.1,5.6c-1.3,1.5-3.2,2.5-5,3.4
		c-19.6,9.8-39.6,18.9-59.9,27.3"/>
	<path class="st2" d="M347.4,275.5c18.4,2.4,37,3.3,55.6,2.8c4.8-0.1,10.1-0.5,13.7-3.7c0.9-1.4,0.2-3.5-1.2-4.5
		c-1.4-1-3.1-1.3-4.8-1.6c-21.5-3.2-43.1-5.7-64.8-7.4"/>
	<path class="st2" d="M343.6,252.8c28.7-9.8,58.6-16.1,88.8-18.7c1.3,1.2,0.9,3.6-0.3,4.8c-1.3,1.3-3.1,1.8-4.9,2.3
		c-27,7.1-53.9,14.2-80.9,21.2"/>
	<path class="st3" d="M309.7,327.7c1.1,2.1,3.6,3,5.8,3.5c1.3,0.3,2.7,0.6,4,0.2c1.3-0.4,2.4-1.5,2.4-2.8c0-0.7-0.3-1.6,0.4-1.9
		c0.2-0.1,0.5-0.1,0.8-0.1c0.8,0.1,1.7,0.2,2.5,0.3c0.4,0,0.9,0.1,1.3-0.1c0.3-0.1,0.5-0.4,0.7-0.7c2.3-3.1,1.3-8.2-2.1-10.2"/>
	<path class="st3" d="M243.1,341.1c1.8,3.7,4.8,6.7,8.5,8.6c0.9,0.4,1.8,0.8,2.8,0.7c1-0.1,1.9-1,1.8-1.9c-0.1-0.8-0.5-1.9,0.2-2.1
		c0.3-0.1,0.6,0.1,0.8,0.3c0.9,0.7,1.6,1.6,2.1,2.7c1,0,1.9,0,2.9,0.1c0.2,0,0.4,0,0.6-0.1c0.2-0.1,0.3-0.4,0.4-0.6
		c0.2-0.6,0.4-1.3,0.4-1.9c0-2.7-2.9-4.4-4-6.9"/>
	<path class="st4" d="M166.5,210.6c1.4-0.5,2.8-1,4.3-1.6c3.3-1.3,6.6-2.6,9.8-4.2c4.4-2.2,15.5-7,12.1-13.7c-0.8-1.6-2.3-2.8-4-3.5
		c-7.3-3.3-13.7-0.1-18.9,5.2c-2.1,2.2-3.9,5-5,7.9c-1.4,3.9-2.2,8-3.6,11.9c0.2-0.6,3.8-1.5,4.5-1.7
		C166,210.8,166.2,210.7,166.5,210.6z"/>
	<path class="st5" d="M170.3,191.9c0.5-3.1,2.1-6.1,4.4-8.1c2.4-2.1,5.5-3.3,8.6-3.3c1,0,2,0.1,2.9,0.3c1.8,0.5,3.3,1.4,4.9,2.4
		c0.8,0.5,1.7,1.1,2.2,1.9c0.3,0.6,0.5,1.3,0.6,1.9c0.2,1.7-0.1,5.1-0.5,6.8"/>
	<path class="st6" d="M161.7,212.3c4.7,0,9.5-0.2,14.2-0.6c3.2-0.2,6.4-0.6,9.1-2.2c2.7-1.7,4.6-4.4,6.3-7.1
		c0.9-1.3,1.7-2.6,2.2-4.1c0.5-1.5,0.6-3.1-0.2-4.5"/>
	<path class="st7" d="M239.8,142.6c-3.4-3.1-8.4-4.3-12.8-3.1"/>
	<path class="st7" d="M173.4,149.3c-2.2-0.2-4.3,0.1-6.4,0.8c-1.5,0.5-3.1,1.3-4.1,2.6"/>
	<circle class="st8" cx="233.4" cy="159.4" r="9.3"/>
	<circle class="st9" cx="230.9" cy="156.2" r="5.7"/>
	<circle class="st8" cx="171.2" cy="169.5" r="9.3"/>
	<circle class="st9" cx="169.5" cy="166.6" r="5.7"/>
	<path class="st0" d="M379.2,487.1c-2-6.2-5.3-17.1-2.5-30.5c0.7-3.6,5.1-24.5,23.5-33.3c2.7-1.3,17.2-8.3,27.8-1.2
		c6.5,4.3,11.4,13.8,10.8,18.5c-0.1,0.5-0.3,2.2,0.3,4.1c0.9,2.4,2.7,3.8,3.6,4.4c5.5,3.9,23.4,14.9,30.2,19.8
		c7.2,5.2,12,8.6,14.7,15.1c5.2,12.6-2.1,26.1-2.7,27.1c-11.9,21.2-51,29.8-77.4,14.7C387.8,514.3,381.1,493.2,379.2,487.1z"/>
	<path class="st1" d="M441,456.2c-0.6-2.6,0.9-5.1,2.4-7.3c3.5-4.8,7.8-9.1,12.6-12.6c5.9-4.3,12-8.3,18-12.6
		c9.5-6.9,20.2-12.2,31.2-16.5c0.7-0.3,1.4-0.5,2.1-0.5c0.7,0.1,1.5,0.5,1.6,1.2c0.1,0.8-0.5,1.5-1.1,2.1
		c-5.6,5.4-11.5,10.5-17.6,15.3c-2,1.6-4.3,3.5-4.4,6.1c6.2-0.9,10.6-6.2,16.7-7.7c0.9,2.8-1.2,5.8-2.8,7.9
		c-3.4,4.8-6.9,9.7-11.6,13.3c-2.1,1.6-5,3.1-6.2,5.6c4.8,2.8,11.2,0.2,16.1-0.7c0.6-0.1,1.4,0,1.8,0.4c0.6,0.6,0.7,1.5,0.4,2.3
		c-1.4,3.8-4.9,6.5-8.2,8.4c-1.8,1.1-3.8,2-5.8,2.7c-1.7,0.6-4,0.8-5,2.4c-0.1,0.2-0.2,0.4-0.1,0.5c0.1,0.2,0.3,0.2,0.5,0.2
		c1,0,2,0.1,2.9,0.1c0.6,0,1.2,0.1,1.5,0.5c0.3,0.4,0.2,1-0.1,1.5c-0.3,0.4-0.7,0.7-1.2,1c-3.4,2.2-6.8,4.3-10.6,5.7
		c-4.3,1.6-8.9,2.3-13.4,1.5"/>
	<path class="st1" d="M378.8,448.7c-6.7-5.7-10.1-14.3-12.7-22.7s-4.9-17.1-10.1-24.2c-0.3-0.4-0.6-0.8-1-0.8
		c-0.7-0.1-1.2,0.7-1.4,1.4c-2.9,8.4-2.8,17.5-2.6,26.4c0,2.3,0.1,4.6,0.9,6.8c0.5,1.4,1.4,2.7,2,4.1c0.2,0.4-0.3,0.7-0.6,0.3
		c-1.4-2-3.4-3.5-5.6-4.3c-0.6-0.2-1.3,0.3-1.3,1c0.2,3.8,2.8,7.2,5.3,10.2l6.4,7.8c0.5,0.6,0,1.4-0.7,1.3l-7.5-0.9
		c-0.7-0.1-1.4,0.2-1.8,0.8c-0.6,0.8-0.1,1.5,0.3,2c4.1,5.5,10.4,9.3,17.2,10.5c0,1.5,0,1.2,0,2.7c-1.2,0.3-2.5,0.6-3.3,1.6
		c-0.5,0.5-0.7,1.2-0.7,1.9c0.1,1.3,1,1.8,2,2.2c4.2,1.9,8.8,2.7,13.3,2.4"/>
	<path class="st2" d="M484.8,479.8c13-5.6,26.2-10.8,39.6-15.5c0.5,1,0.1,2.3-0.6,3.1c-0.7,0.9-1.8,1.4-2.8,1.9
		c-10.8,5.4-21.9,10.5-33.1,15.1"/>
	<path class="st2" d="M490,497.5c10.2,1.3,20.4,1.8,30.7,1.6c2.7-0.1,5.6-0.3,7.6-2.1c0.5-0.8,0.1-1.9-0.7-2.5
		c-0.8-0.6-1.7-0.7-2.7-0.9c-11.9-1.8-23.8-3.2-35.8-4.1"/>
	<path class="st2" d="M487.9,485c15.9-5.4,32.4-8.9,49.1-10.3c0.7,0.7,0.5,2-0.2,2.7c-0.7,0.7-1.7,1-2.7,1.2
		c-14.9,3.9-29.8,7.8-44.7,11.7"/>
	<path class="st10" d="M469.2,526.3c0.6,1.1,2,1.6,3.2,1.9c0.7,0.2,1.5,0.3,2.2,0.1c0.7-0.2,1.4-0.8,1.3-1.6c0-0.4-0.1-0.9,0.2-1.1
		c0.1-0.1,0.3-0.1,0.5,0c0.5,0,0.9,0.1,1.4,0.1c0.2,0,0.5,0,0.7-0.1c0.2-0.1,0.3-0.2,0.4-0.4c1.3-1.7,0.7-4.5-1.2-5.6"/>
	<path class="st10" d="M432.4,533.7c1,2,2.7,3.7,4.7,4.7c0.5,0.2,1,0.5,1.5,0.4c0.5-0.1,1-0.5,1-1.1c0-0.4-0.3-1.1,0.1-1.2
		c0.2,0,0.3,0.1,0.5,0.2c0.5,0.4,0.9,0.9,1.1,1.5c0.5,0,1.1,0,1.6,0c0.1,0,0.2,0,0.3-0.1c0.1-0.1,0.2-0.2,0.2-0.4
		c0.1-0.4,0.2-0.7,0.2-1.1c0-1.5-1.6-2.4-2.2-3.8"/>
	<path class="st4" d="M390.1,461.6c0.8-0.3,1.6-0.6,2.4-0.9c1.8-0.7,3.7-1.4,5.4-2.3c2.4-1.2,8.6-3.9,6.7-7.5
		c-0.5-0.9-1.3-1.5-2.2-2c-4-1.8-7.6-0.1-10.4,2.9c-1.2,1.2-2.2,2.7-2.8,4.3c-0.8,2.1-1.2,4.4-2,6.6c0.1-0.3,2.1-0.8,2.5-1
		C389.8,461.8,389.9,461.7,390.1,461.6z"/>
	<path class="st5" d="M392.2,451.3c0.3-1.7,1.1-3.3,2.4-4.5c1.3-1.1,3-1.8,4.8-1.8c0.5,0,1.1,0,1.6,0.2c1,0.3,1.8,0.8,2.7,1.3
		c0.5,0.3,0.9,0.6,1.2,1.1c0.2,0.3,0.3,0.7,0.3,1.1c0.1,1-0.1,2.8-0.3,3.7"/>
	<path class="st11" d="M387.4,462.6c2.6,0,5.2-0.1,7.8-0.3c1.7-0.1,3.5-0.3,5-1.2c1.5-0.9,2.5-2.4,3.5-3.9c0.5-0.7,0.9-1.4,1.2-2.3
		s0.3-1.7-0.1-2.5"/>
	<path class="st7" d="M430.6,424.1c-1.9-1.7-4.6-2.4-7-1.7"/>
	<path class="st7" d="M393.9,427.8c-1.2-0.1-2.4,0.1-3.5,0.5c-0.9,0.3-1.7,0.7-2.2,1.4"/>
	<circle class="st8" cx="427" cy="433.4" r="5.1"/>
	<circle class="st9" cx="425.6" cy="431.6" r="3.2"/>
	<circle class="st8" cx="392.7" cy="439" r="5.1"/>
	<circle class="st9" cx="391.7" cy="437.3" r="3.2"/>
</g>
</svg>
