<?xml version="1.0" encoding="utf-8"?>
<!-- Generator: Adobe Illustrator 22.0.1, SVG Export Plug-In . SVG Version: 6.00 Build 0)  -->
<svg version="1.1" id="Layer_1" xmlns="http://www.w3.org/2000/svg" xmlns:xlink="http://www.w3.org/1999/xlink" x="0px" y="0px"
	 viewBox="0 0 1223 532.4" style="enable-background:new 0 0 1223 532.4;" xml:space="preserve">
<style type="text/css">
	.st0{fill:#EFF4F1;}
	.st1{fill:#F2EADC;stroke:#686765;stroke-width:3;stroke-miterlimit:10;}
	.st2{fill:none;stroke:#686765;stroke-width:3;stroke-miterlimit:10;}
	.st3{fill:#6AA7BF;}
	.st4{fill:#78B6D3;}
	.st5{fill:#F6EB96;}
	.st6{fill:#151515;stroke:#151515;stroke-width:3;stroke-linecap:round;stroke-miterlimit:10;}
	.st7{fill:#ED4863;}
	.st8{fill:#F3EED0;}
	.st9{fill:#0F142B;}
	.st10{fill:#EA5932;}
	.st11{opacity:0.11;}
	.st12{fill:#73AFC6;}
	.st13{fill:none;stroke:#CE5F5F;stroke-width:7;stroke-linecap:round;stroke-miterlimit:10;}
	.st14{fill:#DD6664;stroke:#DD6664;stroke-width:4;stroke-miterlimit:10;}
	.st15{fill:#EC7068;}
	.st16{fill:#FBC746;stroke:#FBC746;stroke-width:4;stroke-miterlimit:10;}
	.st17{fill:#FBC746;}
	.st18{fill:#D86464;}
	.st19{opacity:9.000000e-02;}
	.st20{fill:#CE5F5F;stroke:#CE5F5F;stroke-width:4;stroke-linecap:round;stroke-miterlimit:10;}
	.st21{fill:#3F8E66;}
	.st22{fill:#A8C1BC;}
	.st23{fill:none;stroke:#E2C941;stroke-width:3;stroke-miterlimit:10;}
	.st24{fill:#469E74;}
	.st25{fill:#9DCED7;}
	.st26{opacity:0.66;fill:none;stroke:#3D7F59;stroke-width:3;stroke-linecap:round;stroke-miterlimit:10;}
	.st27{fill:#74898C;}
	.st28{fill:none;stroke:#26593D;stroke-width:3;stroke-linecap:round;stroke-miterlimit:10;}
	.st29{fill:#EF8E73;}
	.st30{fill:#F7F7F9;}
	.st31{fill:#F7F7F9;stroke:#F7F7F9;stroke-width:3;stroke-linecap:round;stroke-miterlimit:10;}
	.st32{fill:#FDE356;}
	.st33{fill:#DDDDDD;stroke:#DDDDDD;stroke-width:3;stroke-miterlimit:10;}
	.st34{fill:#F2D455;}
	.st35{fill:none;stroke:#C0C6C7;stroke-width:3;stroke-miterlimit:10;}
	.st36{fill:#4485B2;}
	.st37{fill:#173644;stroke:#173644;stroke-width:3;stroke-miterlimit:10;}
	.st38{fill:#95979E;}
	.st39{fill:#B2B5C0;}
	.st40{fill:#95979E;stroke:#95979E;stroke-width:3;stroke-miterlimit:10;}
	.st41{fill:#173644;stroke:#4485B2;stroke-width:3;stroke-miterlimit:10;}
	.st42{fill:none;stroke:#077C82;stroke-width:7;stroke-linecap:round;stroke-miterlimit:10;}
	.st43{fill:#0B8484;stroke:#0B8484;stroke-width:4;stroke-miterlimit:10;}
	.st44{fill:#EAE3BE;}
	.st45{fill:#048F9C;}
	.st46{fill:none;stroke:#000000;stroke-width:4;stroke-miterlimit:10;}
	.st47{fill:none;stroke:#077C82;stroke-width:4;stroke-linecap:round;stroke-miterlimit:10;}
	.st48{fill:#E57E5E;}
	.st49{opacity:0.13;}
	.st50{opacity:0.73;fill:#048F9C;}
	.st51{fill:#077C82;stroke:#077C82;stroke-width:4;stroke-linecap:round;stroke-miterlimit:10;}
</style>
<ellipse class="st0" cx="164" cy="402.8" rx="111.5" ry="22.7"/>
<ellipse class="st0" cx="464.7" cy="402.8" rx="111.5" ry="22.7"/>
<ellipse class="st0" cx="748.6" cy="402.5" rx="111.5" ry="22.7"/>
<ellipse class="st0" cx="1061.4" cy="402.5" rx="111.5" ry="22.7"/>
<g>
	<path class="st1" d="M103,396.8"/>
	<path class="st1" d="M102,392.1"/>
	<path class="st2" d="M194.9,33.9"/>
	<path class="st3" d="M82.6,263.1c3.3-6,4.8-14.2,2.6-21c-2.2-6.8-8.6-11.1-13.7-8.1c-4.3,2.5-6.6,8.8-8.2,14.7
		c-6.8,25.1-8.6,52.2-7.5,78.7c0.3,7.6,1.1,15.8,5.1,21.1c1.6,2.1,3.6,3.6,5.7,4.7c5.1,2.6,11.6,2.8,15.4-2.5
		c4-5.5,3.4-14.4,1.1-21.3c-2.3-6.8-6.1-12.8-7.9-19.9c-4.3-16.3,2.2-34.1,8.5-49.5"/>
	<path class="st3" d="M249.4,263.1c-3.3-6-4.8-14.2-2.6-21c2.2-6.8,8.6-11.1,13.7-8.1c4.3,2.5,6.6,8.8,8.2,14.7
		c6.8,25.1,8.6,52.2,7.5,78.7c-0.3,7.6-1.1,15.8-5.1,21.1c-1.6,2.1-3.6,3.6-5.7,4.7c-5.1,2.6-11.6,2.8-15.4-2.5
		c-4-5.5-3.4-14.4-1.1-21.3c2.3-6.8,6.1-12.8,7.9-19.9c4.3-16.3-2.2-34.1-8.5-49.5"/>
	<path class="st4" d="M177,365.1c3.5,0.8,6.7,2.7,8.9,5.7c8.5,11.2,0.6,31.5,11.9,39.6c5.7,4.1,13.9,2.4,19.3-2.2
		c5.4-4.5,8.6-11.2,11.6-17.7c5.3-11.9,10.2-23.9,14.6-36.2c11.7-32.4,20.3-66.5,19.5-101.1c-0.8-34.6-11.8-69.8-35-94.7
		c-15.3-16.4-36.7-29-59.3-30c-24.3-1.2-48,12.3-64.5,30c-23.2,24.9-34.2,60.1-35,94.7c-0.8,34.6,7.8,68.7,19.5,101.1
		c4.4,12.3,9.3,24.3,14.6,36.2c2.9,6.5,6.2,13.2,11.6,17.7c5.4,4.5,13.6,6.3,19.3,2.2c11.3-8.1,3.4-28.4,11.9-39.6
		c2.2-2.9,5.4-4.8,8.9-5.7"/>
	<path class="st5" d="M126.7,107.1l5.3,31h67.4l5.8-30.1c-0.4-0.5-1.1-1.2-1.9-1.9c-9.4-8.6-21.1-9.9-29.1-10.7
		c-6.2-0.6-20-1.9-35.4,4.9c-4.8,2.1-8.6,4.5-11.2,6.3L126.7,107.1z"/>
	<path class="st6" d="M210.2,201.2c2.6-1.3,5.3-2.5,7.9-3.8c0.8-0.4,1.6-0.7,2.3-1.1"/>
	<path class="st6" d="M207.5,196.6c2.4-1.6,4.9-3.3,7.3-4.9c0.7-0.5,1.4-1,2.2-1.4"/>
	<path class="st6" d="M205.1,191.9c2.2-2,4.3-4,6.5-6c0.6-0.6,1.3-1.2,1.9-1.8"/>
	<polygon class="st7" points="176.6,113.9 170.3,113.9 170.3,107.6 162.1,107.6 162.1,113.9 155.8,113.9 155.8,122.1 162.1,122.1 
		162.1,128.4 170.3,128.4 170.3,122.1 176.6,122.1 	"/>
	<g>
		<circle class="st8" cx="198" cy="201.3" r="13.7"/>
		<circle class="st9" cx="198" cy="201.3" r="8.5"/>
		<circle class="st8" cx="202.8" cy="196.5" r="3.7"/>
	</g>
	<path class="st6" d="M121.3,201.2c-2.6-1.3-5.3-2.5-7.9-3.8c-0.8-0.4-1.6-0.7-2.3-1.1"/>
	<path class="st6" d="M123.9,196.6c-2.4-1.6-4.9-3.3-7.3-4.9c-0.7-0.5-1.4-1-2.2-1.4"/>
	<path class="st6" d="M126.4,191.9c-2.2-2-4.3-4-6.5-6c-0.6-0.6-1.3-1.2-1.9-1.8"/>
	<g>
		<circle class="st8" cx="133.5" cy="201.3" r="13.7"/>
		<circle class="st9" cx="133.5" cy="201.3" r="8.5"/>
		<circle class="st8" cx="128.7" cy="196.5" r="3.7"/>
	</g>
	<path class="st9" d="M190.8,246c1,0,1.8,0.8,1.7,1.8c-0.8,8-1.8,16.2-5.3,23.4c-3.7,7.8-11,14.6-19.7,15.2
		c-9.5,0.7-18.2-6.1-22.6-14.5c-4.1-7.9-4.7-16.7-5-25.7c0-0.9,0.7-1.6,1.6-1.6L190.8,246C190.8,246,190.8,246,190.8,246L190.8,246z
		"/>
	<path class="st10" d="M187.2,271.9c-3.7,7.8-11,14.6-19.7,15.2c-9.5,0.7-18.2-6.1-22.6-14.5c3-3.6,8.1-4.9,12.7-5.4
		c2.1-0.2,4.2-0.4,6.3-0.6c4.1-0.3,8.2-0.6,12.2,0.1c4,0.7,8,2.4,10.7,5.4"/>
	<g class="st11">
		<path class="st9" d="M143.1,247.8l46.3,1.2c-0.8,7.6-1.8,14.9-4.9,21.5c-3.7,7.9-10.5,13.3-17.2,13.8c-0.4,0-0.8,0-1.1,0
			c-8.2,0-15.2-6.6-18.5-13.2C144.1,264.2,143.4,256.4,143.1,247.8 M141.6,244.8c-0.9,0-1.6,0.7-1.5,1.6c0.3,9.1,0.8,18.1,4.9,26.1
			c4.1,8.2,12.2,14.8,21.2,14.8c0.5,0,0.9,0,1.4-0.1c8.7-0.7,15.9-7.6,19.7-15.5c3.5-7.4,4.5-15.7,5.3-23.9c0.1-1-0.7-1.8-1.6-1.8
			c0,0-0.1,0-0.1,0c0,0,0,0,0,0c0,0,0,0,0,0L141.6,244.8C141.6,244.8,141.6,244.8,141.6,244.8L141.6,244.8z"/>
	</g>
	<circle class="st12" cx="107.2" cy="291.9" r="19.3"/>
	<circle class="st12" cx="124.4" cy="361.7" r="6.7"/>
	<circle class="st12" cx="215.1" cy="311.6" r="13"/>
	<circle class="st12" cx="231.9" cy="257.4" r="10.8"/>
	<circle class="st12" cx="195.1" cy="157.1" r="8.2"/>
	<circle class="st12" cx="157.7" cy="323.3" r="6.3"/>
	<circle class="st12" cx="214.1" cy="383.6" r="6.3"/>
	<path class="st12" d="M104.2,158.5c-5,5.4-9.5,11.3-13.4,17.6c0,1.9,1.4,3.7,3.1,4.6c1.7,0.9,3.7,1.2,5.6,1.4
		c3.6,0.4,7.3,0.6,10.7-0.8c1.2-0.5,2.3-1.2,3.3-1.9c1.7-1.2,3.2-2.6,4.3-4.3c1.1-1.7,1.7-3.8,1.5-5.8c-0.2-2.1-1.4-4.1-2.8-5.6
		c-3.2-3.3-7.5-5-12.1-5.1h-0.1"/>
	<circle class="st12" cx="112.9" cy="234.8" r="9.8"/>
	<path class="st12" d="M251.5,195.2c-0.4-1-0.7-1.3-1-2c-0.1-0.1-0.1-0.2-0.2-0.3c-0.1-0.1-0.2-0.2-0.2-0.4c-1.2-1-2.9-1.1-4.5-1.1
		c-2.9-0.1-5.9-0.1-8.6,1c-1.7,0.7-3.2,2-4.7,3.2c-1.9,1.6-3.9,3.2-4.8,5.5c-0.7,1.7-0.7,3.7-0.6,5.6c0.1,1.9,0.4,3.9,1.2,5.6
		c1,2.3,2.8,4.1,4.7,5.7c2.7,2.2,5.6,4.3,9,5.2c3.4,0.9,7.2,0.6,10-1.5c2-1.5,3.3-3.7,4.6-5.8c0.2-0.4,0.4-0.8,0.5-1.2
		c0.1-0.4,0.6-0.9,0.6-1.3C256.4,207.3,253.9,200.9,251.5,195.2z"/>
	<circle class="st12" cx="156.1" cy="171.4" r="3.5"/>
</g>
<path class="st13" d="M674.4,262.1c-4.6,5.7-7.2,12.6-9.1,19.7c-5.7,20.7-5.8,43-0.4,63.8"/>
<path class="st13" d="M834.5,264.5c8.4,9.9,12.8,22.8,13.8,35.7c1,12.9-1.2,26-4.7,38.4"/>
<path class="st14" d="M770.9,331.3h8.7v72.8c0,2.9-2.3,5.2-5.2,5.2h-3.5h-5.2c-2.1,0-3.8-1.7-3.8-3.8l0,0c0-2.1,1.7-3.8,3.8-3.8h3
	c1.2,0,2.2-1,2.2-2.2V331.3z"/>
<path class="st14" d="M730.9,399.5v-68.2h8.7v72.8c0,2.9-2.3,5.2-5.2,5.2h-8.6c-2.1,0-3.8-1.7-3.8-3.8l0,0c0-2.1,1.7-3.8,3.8-3.8
	h2.9C729.9,401.8,730.9,400.7,730.9,399.5z"/>
<path class="st15" d="M834.8,210.7c7.2-5.5,9.8-16.3,5.9-24.5c-0.7-1.4-1.5-2.7-2.6-3.9c-3.5-3.7-9-4.9-14-3.9
	c-5,1-9.3,4.1-12.7,7.9"/>
<path class="st15" d="M665.6,225.2c13.1-23.9,34.1-34.3,43-38.6c36.7-17.7,92.6-18.5,123.2,15.7c17.7,19.8,20.6,44.2,21.5,51.9
	c1.3,11.1,4.1,34.3-9.6,55.5c-10.7,16.7-26,23.5-38.3,29c-42.9,19.1-83.5,6.5-92.1,3.6c-16-5.4-33-11.1-45.4-27.8
	C648.4,288.4,651.5,250.9,665.6,225.2z"/>
<path class="st15" d="M679.3,207.7c-6.2-6.7-6.8-17.8-1.5-25.1c0.9-1.3,2-2.4,3.3-3.4c4.1-3,9.8-3.3,14.5-1.4
	c4.7,1.9,8.4,5.7,11.1,10"/>
<ellipse class="st16" cx="686.3" cy="292.6" rx="18.8" ry="20.4"/>
<circle class="st16" cx="674.7" cy="255" r="11.6"/>
<ellipse class="st16" cx="715.4" cy="322.4" rx="7.2" ry="7.5"/>
<ellipse class="st16" cx="831.8" cy="246.2" rx="10.7" ry="9.1"/>
<path class="st17" d="M843.4,310.3c-10.7,16.3-25.8,23-37.9,28.4c-7.2,3.2-14-13.3-14.7-17.5c-0.7-3.9-0.2-8.1,1.7-11.6
	c10.2-18.2,41.1-18.1,50.7,0"/>
<g>
	<path class="st18" d="M685,198.8l12.5-10.6c-1.6-3.3-5.6-5.4-9.3-5.7c-1.1-0.1-2.2,0-3.3,0.4c-3.2,1.1-5.2,5.2-4,8.4
		c0.9,2.6,3.5,4.7,3.7,7.5"/>
	<path class="st18" d="M832,201.7l-12.8-11c1.7-3.4,5.7-5.6,9.5-5.9c1.1-0.1,2.3,0,3.4,0.4c3.3,1.2,5.3,5.4,4.1,8.8
		c-0.9,2.7-3.6,4.8-3.8,7.7"/>
</g>
<path class="st6" d="M804.9,225.2c2.1-1,4.3-2.1,6.4-3.1c0.6-0.3,1.3-0.6,1.9-0.9"/>
<path class="st6" d="M802.8,221.5c2-1.3,4-2.7,5.9-4c0.6-0.4,1.2-0.8,1.7-1.2"/>
<path class="st6" d="M800.8,217.7c1.7-1.6,3.5-3.2,5.2-4.9c0.5-0.5,1-1,1.5-1.4"/>
<circle class="st8" cx="791.2" cy="228.8" r="16"/>
<circle class="st9" cx="791.2" cy="228.8" r="9.8"/>
<circle class="st8" cx="796.8" cy="223.3" r="4.3"/>
<path class="st6" d="M707.3,224.6c-2.1-1-4.3-2.1-6.4-3.1c-0.6-0.3-1.3-0.6-1.9-0.9"/>
<path class="st6" d="M709.5,220.9c-2-1.3-4-2.7-5.9-4c-0.6-0.4-1.2-0.8-1.7-1.2"/>
<path class="st6" d="M711.5,217.2c-1.7-1.6-3.5-3.2-5.2-4.9c-0.5-0.5-1-1-1.5-1.4"/>
<circle class="st8" cx="721" cy="228.3" r="16"/>
<circle class="st9" cx="721" cy="228.3" r="9.8"/>
<circle class="st8" cx="725.3" cy="222.7" r="4.3"/>
<g>
	<path class="st9" d="M776.9,277.4c0.9,0,1.6,0.7,1.6,1.6c-0.7,7.3-1.6,14.7-4.8,21.3c-3.4,7.1-10,13.2-17.8,13.8
		c-8.6,0.6-16.5-5.5-20.5-13.2c-3.7-7.2-4.2-15.2-4.5-23.3c0-0.8,0.6-1.5,1.4-1.4L776.9,277.4C776.9,277.4,776.9,277.4,776.9,277.4
		L776.9,277.4z"/>
	<path class="st10" d="M773.7,300.9c-3.4,7.1-10,13.2-17.8,13.8c-8.6,0.6-16.5-5.5-20.5-13.2c2.7-3.2,7.3-4.4,11.5-4.9
		c1.9-0.2,3.8-0.4,5.7-0.5c3.7-0.3,7.4-0.5,11.1,0.1s7.3,2.1,9.7,4.9"/>
	<g class="st19">
		<path class="st9" d="M734.9,280.3l39.3,1c-0.7,6.3-1.7,12.4-4.2,17.7c-3.2,6.7-8.9,11.4-14.6,11.8c-0.3,0-0.6,0-0.9,0
			c-6.9,0-12.8-5.7-15.6-11.3C735.9,293.9,735.2,287.5,734.9,280.3 M732.2,276.3c-0.8,0-1.4,0.7-1.4,1.5c0.3,8.3,0.8,16.4,4.5,23.7
			c3.7,7.4,11.1,13.5,19.2,13.5c0.4,0,0.8,0,1.2,0c7.9-0.6,14.5-6.9,17.9-14.1c3.2-6.7,4.1-14.3,4.8-21.7c0.1-0.9-0.6-1.7-1.5-1.7
			c0,0-0.1,0-0.1,0c0,0,0,0,0,0c0,0,0,0,0,0L732.2,276.3C732.2,276.3,732.2,276.3,732.2,276.3L732.2,276.3z"/>
	</g>
</g>
<circle class="st20" cx="663.7" cy="344.1" r="5"/>
<circle class="st20" cx="841.6" cy="340" r="5.5"/>
<g>
	<path class="st21" d="M992.7,209.4c-9.3,2.1-22,8.3-26.7,17.4c-2,3.9-3.4,8.1-5.6,11.8c-2.9,4.8-7.3,8.4-10.7,12.8
		c-3.5,4.4-6.2,10.2-4.9,15.7c1.2,4.9,5.5,8.4,10.1,9.3s9.4-0.6,13.6-3.1c7.1-4.2,12.7-11.2,16.6-18.9c3.9-7.7,6.3-16.3,8.3-24.8
		c0.6-2.7,1.2-5.5,0.9-8.3s-1.6-5.5-3.9-6.7"/>
	<path class="st1" d="M1028.5,174.2"/>
	<circle class="st22" cx="1054.2" cy="185.5" r="11.2"/>
	<path class="st23" d="M1134.6,161.9c-2.7-1.2-5.8-1.4-8.7-0.6"/>
	<path class="st23" d="M1001.1,166.9c0.8-0.8,2-1.6,2.9-2c1.4-0.7,3-1.2,4.5-1.3"/>
	<path class="st24" d="M1075.8,317.4h11.1v88.2c0,3.5-3,6.3-6.6,6.3h-4.5h-6.7c-2.6,0-4.8-2-4.8-4.6v0c0-2.5,2.1-4.6,4.8-4.6h3.8
		c1.6,0,2.8-1.2,2.8-2.7V317.4z"/>
	<path class="st24" d="M1042.5,317.4h11.1v88.2c0,3.5-3,6.3-6.6,6.3h-4.5h-6.7c-2.6,0-4.8-2-4.8-4.6v0c0-2.5,2.1-4.6,4.8-4.6h3.8
		c1.6,0,2.8-1.2,2.8-2.7V317.4z"/>
	<path class="st24" d="M1007.1,130.4c-2.1-11.4-3.4-22.7-3.5-28.7c-0.1-2.5-0.4-19.5,8.2-35.7c15.1-28.3,47.4-34.7,49.4-35.1
		c19.5-3.5,47.8-0.1,63.2,19.7c16.5,21.3,11,52,10.4,55.4c-0.4,2-2.4,12.9-5.1,26c-2.8,13.7-3.2,14.9-3.3,18
		c-0.4,13.3,6.1,22.9,11.2,31.6c0,0,8.2,14.1,20.3,46.6c2.2,5.9,17.3,48.7-2.9,85.2c-20.8,37.5-65.9,44.9-79.8,47.1
		c-15.2,2.5-51.4,8.3-82.5-15.1c-3.9-2.9-34-26.3-34.9-61.2c-0.7-27.6,16.9-53.4,22.6-61.6c4.5-6.5,11-14.8,18-29.1
		c1.8-3.8,5-10.2,7.5-18.8c1.2-4.2,1.9-7.5,2.1-8.4c2.2-11.2,1.8-19.6,1.7-21.3C1009,139.4,1008.2,136.5,1007.1,130.4z"/>
	<path class="st25" d="M1048.5,50.9c-10.5,0.9-18.7,2.2-28.5,5c-1.7,0.5-3.1,1.5-4.1,3l-0.2,0.2l-2.5,4.1l-2,3.4
		c-0.3,0.5-0.6,1-0.8,1.5l-1.8,3.6c-0.2,0.3-0.3,0.7-0.5,1.1l-1.4,3.5l-1.1,3.3c-0.4,1.1-0.6,2.2-0.7,3.3l-0.6,4.9
		c13.7-10.5,30.5-17.4,47.4-21"/>
	<path class="st25" d="M1082,46c11.1-2.6,22.1-3.8,33.5-4.1l1.7,1.1c2.1,1.4,4.1,3.1,5.7,5v0c2.1,2.4,3.9,5.1,5.3,8l1.5,3.2l2.1,4.7
		c-16.3-5.8-32.7-2.6-49.9-0.8"/>
	<path class="st26" d="M1020.5,230.9c-0.1,3.8,0.9,7.7,2.7,11.1c0.4,0.8,0.9,1.6,1.7,2.1c1.9,1.2,4.4-0.1,5.8-1.9
		c1.4-1.7,2.2-3.9,3.9-5.4c0.4-0.4,1-0.7,1.6-0.5c0.3,0.1,0.6,0.4,0.8,0.7c2.2,2.5,4.3,5,6.5,7.5c1,1.2,2.2,2.5,3.7,2.9
		c2.9,0.8,5.7-1.6,7.5-3.9c2.2-2.8,4.6-6.1,8.5-5.3c0.6,0.1,1.2,0.4,1.8,0.7c3.9,2.3,5.1,7,8.4,9.8c0.9,0.7,2,1.3,3.1,1.1
		c1-0.2,1.8-1.1,2.4-2c2.2-3.3,3.8-7.1,5.6-10.6c2.2-4.1,8.2-3.6,9.7,0.8l0.9,2.7c0.7,1.9,1.4,3.9,4,4.5c1.8,0.4,3.7-0.2,5.2-1.4
		c2.4-2.1,3.4-5.3,4.2-8.3"/>
	<path class="st26" d="M1020.5,258.7c-0.1,3.8,0.9,7.7,2.7,11.1c0.4,0.8,0.9,1.6,1.7,2.1c1.9,1.2,4.4-0.1,5.8-1.9
		c1.4-1.7,2.2-3.9,3.9-5.4c0.4-0.4,1-0.7,1.6-0.5c0.3,0.1,0.6,0.4,0.8,0.7c2.2,2.5,4.3,5,6.5,7.5c1,1.2,2.2,2.5,3.7,2.9
		c2.9,0.8,5.7-1.6,7.5-3.9c2.2-2.8,4.6-6.1,8.5-5.3c0.6,0.1,1.2,0.4,1.8,0.7c3.9,2.3,5.1,7,8.4,9.8c0.9,0.7,2,1.3,3.1,1.1
		c1-0.2,1.8-1.1,2.4-2c2.2-3.3,3.8-7.1,5.6-10.6c2.2-4.1,8.2-3.6,9.7,0.8l0.9,2.7c0.7,1.9,1.4,3.9,4,4.5c1.8,0.4,3.7-0.2,5.2-1.4
		c2.4-2.1,3.4-5.3,4.2-8.3"/>
	<path class="st26" d="M1020.5,287.7c-0.1,3.8,0.9,7.7,2.7,11.1c0.4,0.8,0.9,1.6,1.7,2.1c1.9,1.2,4.4-0.1,5.8-1.9
		c1.4-1.7,2.2-3.9,3.9-5.4c0.4-0.4,1-0.7,1.6-0.5c0.3,0.1,0.6,0.4,0.8,0.7c2.2,2.5,4.3,5,6.5,7.5c1,1.2,2.2,2.5,3.7,2.9
		c2.9,0.8,5.7-1.6,7.5-3.9c2.2-2.8,4.6-6.1,8.5-5.3c0.6,0.1,1.2,0.4,1.8,0.7c3.9,2.3,5.1,7,8.4,9.8c0.9,0.7,2,1.3,3.1,1.1
		c1-0.2,1.8-1.1,2.4-2c2.2-3.3,3.8-7.1,5.6-10.6c2.2-4.1,8.2-3.6,9.7,0.8l0.9,2.7c0.7,1.9,1.4,3.9,4,4.5c1.8,0.4,3.7-0.2,5.2-1.4
		c2.4-2.1,3.4-5.3,4.2-8.3"/>
	<circle class="st27" cx="1066.4" cy="54.1" r="19"/>
	<ellipse class="st25" cx="1066.7" cy="53.8" rx="10.5" ry="11.1"/>
	<path class="st28" d="M1026.1,92.3c4.4-5.6,11.9-8.7,19-7.9"/>
	<path class="st28" d="M1108.8,90.7c-4.4-5.6-11.9-8.7-19-7.9"/>
	<g>
		<path class="st9" d="M1069.9,153.2c-11.7,0-22.1-5.4-24.8-12.7c-0.2-0.5-0.1-1,0.2-1.5c0.3-0.5,0.9-0.8,1.4-0.8h46.3
			c0.6,0,1.1,0.3,1.4,0.8c0.3,0.4,0.4,1,0.2,1.5C1092,147.8,1081.6,153.2,1069.9,153.2z"/>
		<path class="st9" d="M1093.1,139.7c0.1,0,0.2,0.1,0.2,0.1c0,0.1,0,0.1,0,0.1c-2.5,6.8-12.3,11.7-23.4,11.7s-20.9-4.9-23.4-11.7
			c0,0,0-0.1,0-0.1c0-0.1,0.1-0.1,0.2-0.1H1093.1 M1093.1,136.7h-46.3c-2.2,0-3.8,2.2-3.1,4.3c2.9,7.9,13.5,13.7,26.2,13.7
			c12.7,0,23.3-5.8,26.2-13.7C1096.9,138.9,1095.3,136.7,1093.1,136.7L1093.1,136.7z"/>
	</g>
	<path class="st29" d="M1052.8,150.6c4.7,2.6,10.6,4.1,17.2,4.1c9.7,0,18.2-3.4,23-8.6c-0.9-1.7-2.6-2.8-4.5-3.5s-3.8-0.8-5.7-0.8
		c-4.5-0.2-9-0.2-13.4,0.9c-5.3,1.3-10.2,4.1-15,6.8"/>
	<g class="st11">
		<g>
			<path class="st9" d="M1093.1,139.7c0.2,0,0.2,0.1,0.2,0.2c-2.5,6.8-12.4,11.8-23.4,11.8c-11,0-20.9-5-23.4-11.8
				c0,0,0.1-0.2,0.3-0.2H1093.1 M1093.1,136.7h-46.3c-2.2,0-3.8,2.2-3.1,4.2c2.9,7.8,13.5,13.8,26.2,13.8c12.7,0,23.3-6,26.2-13.8
				C1096.9,138.8,1095.3,136.7,1093.1,136.7L1093.1,136.7z"/>
		</g>
	</g>
	<path class="st30" d="M1050.3,209.7c-9.5-0.4-23.3-2.3-38-9.4c-5.2-2.5-9.8-5.4-13.6-8.1c0.6-1.1,1-2.4,1.5-3.5
		c0.7-1.6,1.3-3.2,1.9-4.8c1.4-3.8,2.9-7.8,3.6-11.8c3.9,2.9,10.5,8.3,17.3,11.6c4.2,2.1,13,6.3,25,8.4c16.1,2.8,28.9,0,36.2-1.7
		c12.1-2.7,21.6-7.2,27.7-10.1c4.7-2.2,16.1-9.1,18.8-10.7c1.8,2.9,3.1,5.8,4.9,8.8c0.9,1.5,1.8,3,2.5,4.5c0.5,1,0.8,1.9,1.4,2.9
		c0.2,0.3,0.4,0.7,0.4,1.1c0,0.4-0.3,0.8-0.7,0.8"/>
	<path class="st31" d="M1139.3,187.9c-3.1,1.9-14.1,9.3-15.8,10.2c-7.3,3.8-18.2,9.3-32.3,10.3c-1.8,0.1-3.2,0.1-4.1,0.1
		c-4.6,0-9.1,1.4-13.7,2.1c-7.9,1.2-19.5-0.6-27.4-2c-0.5-0.3,2.9,0.7,3.2,0.3c0.3-0.4,0.8-0.6,1.3-0.8c3.6-1.4,7.2-2.8,10.9-4.2
		c7.2-2.8,14.5-5.6,21.9-7.7c5.7-1.6,11.5-2.9,17.3-4.1c3.7-0.8,7.4-1.6,11-2.3c9-1.9,18.2-3.8,27.3-3.1"/>
	<path class="st32" d="M1056.9,208.5l0.9,50.8l8.7,14.8c0.5,0.9,1.8,0.9,2.4,0l9.3-16.4l1-51.6"/>
	<path class="st33" d="M1078.2,191.6c2.7,5.2,5.3,10.6,8,15.9c0.5,1-0.1,2.3-1.2,2.3c-11,0.6-22,2.4-32.8,0.5
		c-1-0.2-1.6-1.4-1.1-2.3l7.5-15.6L1078.2,191.6z"/>
	<path class="st23" d="M1133.8,161.6c3.7,1.1,6.1,4.8,6.7,8.6s-0.1,7.6-0.8,11.4c-2.3,12.2-4.7,24.4-7,36.5
		c-1.5,8-3.5,15.5-5.3,23.5"/>
	<g>
		<circle class="st8" cx="1046.1" cy="106.5" r="9.8"/>
		<circle class="st9" cx="1046.1" cy="106.5" r="6"/>
		<circle class="st8" cx="1049.5" cy="103.1" r="2.6"/>
	</g>
	<g>
		<circle class="st8" cx="1093.7" cy="106.5" r="9.8"/>
		<circle class="st9" cx="1093.7" cy="106.5" r="6"/>
		<circle class="st8" cx="1097.1" cy="103.1" r="2.6"/>
	</g>
	<path class="st21" d="M1142.4,230.7c-3.1-4.5-4.3-10.5-2-15.5c2.3-4.9,8.6-8,13.6-5.7c4.2,1.9,6.2,6.6,7.6,10.9
		c6,18.6,7.2,38.5,5.5,58c-0.5,5.6-1.4,11.6-5.5,15.4c-1.6,1.5-3.6,2.6-5.7,3.3c-5,1.8-11.3,1.8-14.9-2.1c-3.7-4.1-3-10.7-0.6-15.6
		s6.2-9.3,8.2-14.5c4.6-11.9-1.3-25.1-7.1-36.5"/>
	<circle class="st34" cx="1063.7" cy="228.5" r="3.7"/>
	<circle class="st34" cx="1066.1" cy="240.7" r="2"/>
	<circle class="st34" cx="1068.1" cy="264.5" r="3.3"/>
	<circle class="st34" cx="1063.5" cy="253.3" r="4.1"/>
	<circle class="st34" cx="1074.4" cy="225" r="2"/>
	<path class="st34" d="M1078.5,248.4l-0.2,7.4c-0.9,0.1-2,0.3-2.6-0.4c-0.2-0.2-0.3-0.4-0.4-0.7c-0.4-0.8-0.6-1.6-0.5-2.5
		c0.1-1,0.5-1.9,1.2-2.6C1076.5,249,1077.5,248.5,1078.5,248.4"/>
	<circle class="st34" cx="1067.8" cy="216.6" r="3.2"/>
	<circle class="st34" cx="1074.7" cy="236.4" r="2.2"/>
	<path class="st35" d="M1097.9,277.2c0.1-1.1,0.4-2.7,0.8-4.7c1.4-7.3,2.7-14.3,7-20.6c2.3-3.4,4.9-7.3,9.8-9.3
		c6-2.4,12.6-1,16.7,1.5c8.4,5,12.3,17.9,8,31.1"/>
	<path class="st36" d="M1101.7,280c0.3,0.4,0.4,0.9,0.5,1.3c0.2,1.4-0.5,2.9-1.6,3.9c-1.3,1.2-3,1.4-4.7,1.3c-0.8,0-1.5-0.2-2.2-0.5
		c-0.6-0.3-1.2-0.7-1.7-1.2c-0.9-0.8-1.6-1.6-1.8-2.8c-0.3-1.7,0.2-3.9,1.7-5"/>
	<path class="st37" d="M1100.9,274.9c1.2,0.7,2.2,2.7,1.6,4c-0.5,1.1-1.7,1.7-2.8,1.9c-1.2,0.2-2.3-0.1-3.5-0.4
		c-0.6-0.2-1.3-0.4-1.9-0.8c-0.5-0.3-1-0.7-1.4-1.1c-0.4-0.4-0.7-0.8-0.9-1.3c-0.4-1.2,0.3-2.4,1.4-3.1c1-0.6,2.3-0.8,3.5-0.9
		c0.3,0,0.7,0,1,0.1c0.6,0.2,1.2,0.5,1.7,0.8C1100.1,274.2,1100.6,274.5,1100.9,274.9"/>
	<g>
		<path class="st38" d="M1020.1,245.5c0.1,0.3,0.3,2.1,0.3,2.6c0.1,2.6-1.5,4.9-3.3,6.6c-3.6,3.4-8.5,5.3-13.4,5.2
			c-1.5,0-3.1-0.2-4.4-1c-1.4-0.8-2.5-2.2-2.7-3.9c-0.3-2,0.1-4.1,1.2-5.8c0.4-0.6,0.8-1.1,1.2-1.6c0.4-0.5,1.6-2,2.3-2.1
			c0.4,0.3-0.2,1.7-0.3,2.1c-0.1,0.5-0.3,0.9-0.5,1.3c-0.5,0.9-1,1.8-1.2,2.7c-0.2,1-0.2,2,0.3,2.9c1.3,2.4,3.7,2.2,6.1,2
			c2.7-0.2,4.8-1.2,7.3-2.3c0.5-0.2,1-0.6,1.4-1c0.7-0.5,1.5-0.9,1.9-1.7c1.1-1.9,2.3-3.8,3.6-5.6"/>
		<path class="st39" d="M1009.9,241.1c0.7-0.4,2.6-1.2,4.4-0.9c2.8,0.4,6.3,2.9,5.6,6.2c-0.2,0.9-0.6,1.7-1,2.4
			c-3,4.9-8.8,8.4-14.6,8.2c-1.8-0.1-4.3-0.3-5.1-2.4c-0.2-0.5-0.2-1.1-0.2-1.7c0-2.3,0.4-4.7,1.6-6.7"/>
		<path class="st40" d="M996.2,240.6c0.2-0.5,0.5-0.9,0.6-1c1.9-2.4,3-3.8,5.2-4.9c1.4-0.7,2.7-1.4,4.5-1.1c1.7,0.3,3.9,1.5,4.1,3.3
			c0.2,1.7-1.4,3-3.2,4.4c-1.1,0.9-4.4,3.5-8.4,3c-0.8-0.1-2.2-0.3-2.8-1.3C995.6,242.1,996.1,240.8,996.2,240.6z"/>
		<path class="st37" d="M1003.7,251.8c0.1,0.5,0.6,0.9,1.1,1.1s1.1,0,1.6-0.1c1.4-0.3,2.8-0.8,4.1-1.5c1-0.5,1.9-1.2,2.3-2.2
			c0.3-0.8,0.2-1.6,0-2.4s-0.6-1.5-1-2.2c-0.9-1.6-1.8-3.2-2.7-4.7c-1.2,1.2-2.6,2.4-4.1,3.2c-1.5,0.9-3.3,1.4-5,1.5
			c0.8,2.8,2.2,5.4,4,7.6"/>
	</g>
	<path class="st23" d="M1002.9,238.1c-4-15.3-6.8-30.9-8.2-46.7c-0.4-4.6-0.7-9.3,0.2-13.9s3.3-9,7.2-11.5"/>
	<g>
		<path class="st36" d="M1138.8,270.9c-0.8,0-1.4,0.6-1.9,1.3c-0.2,0.3-0.4,0.5-0.6,0.7c-0.2,0.1-0.4,0.2-0.6,0.3
			c-1.3,0.5-2.6,1.3-3.1,2.7c-0.5,1.2-0.7,2.8-0.1,4c0.3,0.7,0.9,1.2,1.6,1.7c0.9,0.7,1.8,1.3,2.8,1.6c0.9,0.2,1.8,0.2,2.6,0
			c2.5-0.5,5.1-2.6,4.5-5.4c0-0.2-0.1-0.3-0.1-0.5c0-0.2,0.1-0.5,0.2-0.7c0.2-0.6,0.2-1.2,0-1.8s-0.4-1.2-0.7-1.7"/>
		<path class="st41" d="M1137.1,276.5c-0.6-0.1-1.4,0-1.7,0.6c-0.4,0.9,0.5,2.5,1.9,3c1.1,0.4,2.5,0,2.7-0.7
			C1140.2,278.3,1138.6,276.7,1137.1,276.5z"/>
	</g>
</g>
<path class="st42" d="M533,242.8c6.3,3.6,10.1,10.5,12.5,17.4c6.1,17.5,5.5,36.5,4.8,55"/>
<path class="st43" d="M444.4,322.7h-9.2v76.6c0,3,2.4,5.5,5.5,5.5h3.7h5.5c2.2,0,4-1.8,4-4l0,0c0-2.2-1.8-4-4-4h-3.2
	c-1.3,0-2.4-1.1-2.4-2.4V322.7z"/>
<path class="st43" d="M486.5,394.4v-71.7h-9.2v76.6c0,3,2.4,5.5,5.5,5.5h9.1c2.2,0,4-1.8,4-4l0,0c0-2.2-1.8-4-4-4h-3
	C487.5,396.8,486.5,395.7,486.5,394.4z"/>
<path class="st8" d="M460.9,103.3c-0.4-1.2-3.7-6.1-4.8-6.9c-2-1.3-4.4-1.9-6.7-2.3c-2.1-0.4-4.4-0.6-6.1,0.6
	c-0.9,0.6-1.5,1.5-1.9,2.5c-1.3,2.7-1.6,6-0.8,8.9c0.8,2.9,2.7,5.5,5.3,7.2"/>
<path class="st44" d="M478.1,97.8c-0.4-1.2-3.7-8-4.8-8.7c-2-1.3-4.4-1.9-6.7-2.3c-2.1-0.4-4.4-0.6-6.1,0.6
	c-0.9,0.6-1.5,1.5-1.9,2.5c-1.3,2.7-1.6,6-0.8,8.9s2.7,5.5,5.3,7.2"/>
<path class="st44" d="M444.2,109.1c-2-2.9-5.3-4.9-8.8-5.4c-2-0.3-4.3,0-5.5,1.6c-0.5,0.7-0.8,1.6-1,2.4c-0.9,4.3,0.3,9,3.1,12.3"/>
<path class="st8" d="M431.7,116.1c-0.4-1.2-1.4-2.2-2.5-2.9c-2-1.3-4.4-1.9-6.7-2.3c-2.1-0.4-4.4-0.6-6.1,0.6
	c-0.9,0.6-1.5,1.5-1.9,2.5c-1.3,2.7-1.6,6-0.8,8.9c0.8,2.9,2.7,5.5,5.3,7.2"/>
<path class="st44" d="M417.5,131.6c-2.1-2.8-6.1-3.1-9.6-3.2c-1.5,0-3.1-0.1-4.3,0.7c-1.9,1.1-2.5,3.5-2.8,5.6
	c-0.2,1.6-0.4,3.3-0.1,5c0.7,3.9,3.8,6.9,6.9,9.3"/>
<path class="st8" d="M408.6,159c0-0.9-0.9-1.5-1.8-1.8c-1.4-0.6-2.9-1-4.4-1.4c-1.4-0.3-2.9-0.5-4.4-0.3c-2.6,0.4-4.9,2.1-6.4,4.3
	c-2.3,3.4-2.9,7.9-1.4,11.8c1.5,3.9,4.9,6.9,8.9,7.9"/>
<path class="st44" d="M400,181.9c-3.2-1.4-6.5-2.8-10-2.6c-4.2,0.3-8.1,3.1-9.7,7c-0.6,1.5-0.9,3.1-1,4.7c-0.3,2.5-0.3,5.2,0.9,7.4
	c1.2,2.4,3.5,4,6,4.9s5.1,1.2,7.8,1.5"/>
<path class="st8" d="M399,206.3c-2.7-0.9-5.6-1.6-8.5-1.5c-2.9,0.1-5.8,1.3-7.6,3.5c-1.9,2.4-2.3,5.6-2.7,8.6
	c-0.2,1.9-0.4,3.9,0.1,5.8c0.8,3.1,3.5,5.5,6.5,6.7c3,1.2,6.2,1.6,9.4,1.9"/>
<path class="st44" d="M397.9,233.2c-2.8-0.2-5.6-0.2-8.5-0.3c-1.6,0-3.3,0-4.7,0.7c-2.8,1.4-3.8,4.8-4.2,7.9
	c-0.5,4.2-0.3,8.8,2.3,12.1c1.7,2.2,4.4,3.6,7.1,4.3s5.5,0.9,8.4,1"/>
<path class="st8" d="M399.4,260.9c-3-0.2-6-0.3-8.9-0.5c-0.8,0-1.5-0.1-2.2,0.2c-0.6,0.2-1.1,0.6-1.6,1.1
	c-4.1,3.9-5.8,10.1-4.3,15.6c0.8,2.9,2.6,5.7,5.2,7.3c2.6,1.6,5.8,1.8,8.9,2c2.2,0.1,4.4,0.3,6.6,0.4"/>
<path class="st44" d="M401.5,261.9c-1.3,0.8-2.6,1.5-3.9,2.3c-1.6,0.9-3.3,1.9-4.3,3.4c-0.6,0.9-0.9,2-1.1,3.1
	c-0.8,4.1,0.1,8.5,2.2,12.1c0.9,1.6,2.1,3,3.6,4c3.1,1.9,7,1.5,10.6,1.1"/>
<path class="st45" d="M403.2,155.7c8-15.3,23.7-45.6,58.9-58.5c7.3-2.7,37.2-12.5,69.8,2.1c38.2,17.1,50.3,53.8,51,59.2
	c10.8,80.9-51.6,115.4-58.8,127.7c-7.4,12.8-7.9,28.7-15.6,41.1c-6.4,10.4-23.4,23.6-26.2,24.1c-4.6,0.8-29.7,6.6-46.5-3.1
	c-11.8-6.8-11.7-12.7-20.2-39.2C405.6,278,374.2,211.6,403.2,155.7z"/>
<path class="st8" d="M418.6,170.1c4.7-8.9,9.5-18,15.9-24.3c8.3-8,18.5-10.7,28.4-12.6c14.9-2.9,29.8-4.5,44.8-4.8
	c11.2-0.3,22.5,0.2,33.4,4.1c7.4,2.7,14.8,7.2,19.8,15.5c3.5,5.8,5.6,13.2,6.7,20.7c2.5,17.6-1.3,38.1-12,47.6
	c-3,2.7-6.3,4.4-9.7,5.9c-19.1,8.6-39.3,11.3-59.2,10.7c-16.8-0.5-33.8-3.5-49.6-11.5c-5.4-2.8-10.9-6.2-14.9-12.1
	c-7.2-10.5-8.4-28.2-2.7-40.5"/>
<path class="st8" d="M475.6,88.7c-4.1,4.4-2.8,11.7,2.6,14.2c1,0.4,2.1,0.8,3.4,1c7.8,1.3,11.2-1.3,12.7-4.3c1.4-2.9,1-6.4-0.9-9
	l-0.3-0.4c-1.1-1.6-2.7-2.7-4.5-3.2l-4-1.1c-3-0.9-6.2,0-8.4,2.3L475.6,88.7z"/>
<path class="st46" d="M488,329.3"/>
<path class="st47" d="M434.6,241.8c-1,5.6,0.1,11.5,3.1,16.3"/>
<path class="st47" d="M453.2,254.6c-0.8,5.9-0.4,12,1.2,17.7"/>
<path class="st47" d="M444.7,277.3c-1,6.8,2.2,13.4,5.4,19.4"/>
<path class="st47" d="M467.7,277c0.2,6,0.3,12,0.5,17.9"/>
<path class="st47" d="M489.7,255.2c1,4.3,1.5,8.7,1.7,13c0,0.2,0,0.5-0.2,0.6c-0.2,0.1-0.5-0.3-0.2-0.3"/>
<path class="st47" d="M483.5,295.6c1-4.8,1.5-9.7,1.7-14.6"/>
<path class="st47" d="M502.8,293.4c0.2-1.1,0.9-2,1.5-3c2-3.4,2.3-7.4,2.5-11.3"/>
<path class="st47" d="M509.3,268c4-3.7,6.8-8.7,7.7-14.1"/>
<path class="st47" d="M446.1,128c-1.8-3.8-2.5-8.1-2-12.3"/>
<path class="st47" d="M467.1,123.5c-1.4-3.9-1.9-8.2-1.5-12.3"/>
<path class="st47" d="M491.8,121.6c-0.5-4.8-0.3-9.7,0.6-14.4"/>
<path class="st47" d="M513.3,120.6c-0.6-3.8-0.3-7.7,0.7-11.5"/>
<path class="st47" d="M531.9,122.1c-0.6-3.2,0.1-6.7,1.9-9.4"/>
<path class="st47" d="M440,155c3.9-4.9,10.3-7.5,16.5-6.9"/>
<path class="st47" d="M530.5,150c2.9-0.7,5.8-0.8,8.7-0.2c2.2,0.4,4.4,1.1,6,2.7"/>
<path class="st47" d="M471.1,258.9c-1-4.8-1.5-9.7-1.7-14.6"/>
<g>
	<path class="st9" d="M496.1,219c-13,0-24.6-5.9-27.6-14.1c-0.2-0.6,0-1.1,0.2-1.4c0.3-0.5,0.8-0.7,1.4-0.7h52c0.5,0,1,0.3,1.4,0.7
		c0.2,0.2,0.4,0.8,0.2,1.4C520.7,213.1,509.1,219,496.1,219z"/>
	<path class="st9" d="M521.6,204.8c-2.7,6.2-12.1,12.2-25.5,12.2c-13.4,0-22.8-6-25.5-12.2H521.6 M522.1,200.8h-52
		c-2.5,0-4.3,2.5-3.4,4.8c3.2,8.8,15.2,15.4,29.4,15.4s26.2-6.6,29.4-15.4C526.4,203.3,524.6,200.8,522.1,200.8L522.1,200.8z"/>
</g>
<path class="st48" d="M515.4,216.4c-5.2,2.9-12,4.6-19.3,4.6c-10.9,0-20.5-3.9-25.8-9.6c1-1.9,2.9-3.2,5-3.9
	c2.1-0.7,4.3-0.8,6.4-0.9c5-0.2,10.2-0.2,15.1,1c6,1.5,11.5,4.6,16.8,7.6"/>
<g class="st49">
	<path class="st9" d="M521.6,204.8c-2.7,6.2-12.1,12.2-25.5,12.2c-13.4,0-22.8-6-25.5-12.2H521.6 M522.1,200.8h-52
		c-2.5,0-4.3,2.5-3.4,4.8c3.2,8.8,15.2,15.4,29.4,15.4s26.2-6.6,29.4-15.4C526.4,203.3,524.6,200.8,522.1,200.8L522.1,200.8z"/>
</g>
<circle class="st50" cx="452.1" cy="176.1" r="12.6"/>
<circle class="st9" cx="452.1" cy="176.1" r="7.8"/>
<circle class="st8" cx="455.5" cy="171.8" r="3.4"/>
<circle class="st50" cx="537.7" cy="176.6" r="12.6"/>
<circle class="st9" cx="537.7" cy="176.6" r="7.8"/>
<circle class="st8" cx="541.1" cy="172.2" r="3.4"/>
<path class="st42" d="M409.8,243.7c-10.5,31.1-9.3,65.9,3.2,96.2"/>
<circle class="st51" cx="410.8" cy="340.4" r="6.6"/>
<circle class="st51" cx="550.8" cy="317.6" r="6.6"/>
<circle class="st51" cx="550.5" cy="315.6" r="4.2"/>
</svg>
