<?xml version="1.0" encoding="utf-8"?>
<!-- Generator: Adobe Illustrator 22.0.1, SVG Export Plug-In . SVG Version: 6.00 Build 0)  -->
<svg version="1.1" id="Layer_1" xmlns="http://www.w3.org/2000/svg" xmlns:xlink="http://www.w3.org/1999/xlink" x="0px" y="0px"
	 viewBox="0 0 592.5 664.3" style="enable-background:new 0 0 592.5 664.3;" xml:space="preserve">
<style type="text/css">
	.st0{fill:#3F8E66;}
	.st1{fill:#F2EADC;stroke:#686765;stroke-width:4;stroke-miterlimit:10;}
	.st2{fill:#A8C1BC;}
	.st3{fill:none;stroke:#E2C941;stroke-width:4;stroke-miterlimit:10;}
	.st4{fill:#469E74;}
	.st5{fill:#9DCED7;}
	.st6{opacity:0.66;fill:none;stroke:#3D7F59;stroke-width:4;stroke-linecap:round;stroke-miterlimit:10;enable-background:new    ;}
	.st7{fill:#74898C;}
	.st8{fill:none;stroke:#26593D;stroke-width:4;stroke-linecap:round;stroke-miterlimit:10;}
	.st9{fill:#0F142B;}
	.st10{fill:#EF8E73;}
	.st11{opacity:0.28;}
	.st12{fill:#F7F7F9;}
	.st13{fill:#F7F7F9;stroke:#F7F7F9;stroke-width:4;stroke-linecap:round;stroke-miterlimit:10;}
	.st14{fill:#FDE356;}
	.st15{fill:#DDDDDD;stroke:#DDDDDD;stroke-width:4;stroke-miterlimit:10;}
	.st16{fill:#F3EED0;}
	.st17{fill:#F2D455;}
	.st18{fill:none;stroke:#C0C6C7;stroke-width:4;stroke-miterlimit:10;}
	.st19{fill:#4485B2;}
	.st20{fill:#173644;stroke:#173644;stroke-width:4;stroke-miterlimit:10;}
	.st21{fill:#95979E;}
	.st22{fill:#B2B5C0;}
	.st23{fill:#95979E;stroke:#95979E;stroke-width:4;stroke-miterlimit:10;}
	.st24{fill:#173644;stroke:#4485B2;stroke-width:4;stroke-miterlimit:10;}
</style>
<path class="st0" d="M251.6,337.8c-10.1-1.6-18.4-8.7-26.3-15.2c-18.4-15-38.3-28.1-59.3-39c-4.1-2.1-9.1-4.2-13.1-2
	c-3.2,1.8-4.7,5.8-4.3,9.5c0.3,3.7,2.1,7,4,10.2c19.5,33.8,50.2,61,86.1,76.3"/>
<path class="st1" d="M293.1,299.5"/>
<circle class="st2" cx="324.8" cy="313.5" r="13.8"/>
<path class="st3" d="M423.9,284.4c-3.4-1.4-7.2-1.7-10.7-0.7"/>
<path class="st3" d="M259.2,290.5c1-1,2.4-1.9,3.6-2.5c1.8-0.8,3.6-1.5,5.6-1.6"/>
<path class="st4" d="M351.4,476.1H365v108.8c0,4.3-3.6,7.8-8.1,7.8h-5.5h-8.2c-3.3,0-5.9-2.5-5.9-5.6l0,0c0-3.1,2.6-5.6,5.9-5.6h4.7
	c1.9,0,3.5-1.5,3.5-3.3V476.1z"/>
<path class="st4" d="M310.4,476.1h13.7v108.8c0,4.3-3.6,7.8-8.1,7.8h-5.5h-8.2c-3.3,0-5.9-2.5-5.9-5.6l0,0c0-3.1,2.6-5.6,5.9-5.6
	h4.7c1.9,0,3.5-1.5,3.5-3.3V476.1H310.4z"/>
<path class="st4" d="M266.6,245.4c-2.7-14-4.1-28-4.4-35.4c-0.1-3.1-0.5-24.1,10.1-44.1c18.6-34.9,58.5-42.8,60.9-43.3
	c24.1-4.4,59-0.1,78,24.3c20.4,26.2,13.5,64.1,12.8,68.3c-0.4,2.4-3,15.9-6.3,32.1c-3.4,16.9-3.9,18.4-4.1,22.2
	c-0.5,16.4,7.5,28.2,13.8,39c0,0,10.1,17.3,25,57.5c2.7,7.2,21.4,60.1-3.5,105.1c-25.6,46.3-81.2,55.3-98.5,58.1
	c-18.8,3-63.4,10.3-101.8-18.6c-4.8-3.6-41.9-32.4-43.1-75.5c-0.9-34,20.9-65.9,27.8-76c5.5-8.1,13.6-18.2,22.2-35.8
	c2.2-4.6,6.1-12.6,9.2-23.2c1.5-5.2,2.3-9.2,2.6-10.3c2.8-13.8,2.3-24.2,2.1-26.3C269.1,256.5,268,253,266.6,245.4z"/>
<path class="st5" d="M317.7,147.4c-12.9,1.2-23,2.8-35.1,6.1c-2.1,0.6-3.8,1.9-5,3.7l-0.2,0.3l-3,5l-2.5,4.2c-0.4,0.6-0.7,1.2-1,1.8
	l-2.2,4.5c-0.2,0.4-0.4,0.9-0.6,1.3l-1.8,4.4l-1.4,4.1c-0.4,1.3-0.7,2.7-0.9,4l-0.8,6c16.8-13,37.6-21.4,58.4-25.9"/>
<path class="st5" d="M359,141.3c13.7-3.2,27.2-4.7,41.3-5l2.1,1.4c2.6,1.7,5,3.8,7.1,6.2l0,0c2.6,3,4.8,6.3,6.5,9.9l1.9,4l2.6,5.8
	c-20-7.1-40.3-3.2-61.5-1"/>
<path class="st6" d="M283.2,369.4c-0.1,4.7,1.1,9.5,3.4,13.7c0.5,1,1.2,2,2.1,2.5c2.3,1.4,5.4-0.2,7.1-2.3c1.7-2.1,2.8-4.8,4.8-6.6
	c0.5-0.5,1.3-0.9,2-0.7c0.4,0.1,0.7,0.5,1,0.8c2.7,3.1,5.4,6.1,8,9.2c1.3,1.5,2.7,3,4.6,3.6c3.6,1,7-1.9,9.3-4.9
	c2.7-3.4,5.7-7.5,10.5-6.5c0.8,0.2,1.5,0.4,2.2,0.8c4.9,2.8,6.2,8.7,10.4,12.1c1.1,0.9,2.5,1.6,3.9,1.3c1.3-0.3,2.2-1.4,2.9-2.5
	c2.7-4,4.6-8.8,7-13.1c2.7-5,10.1-4.4,11.9,1l1.1,3.3c0.8,2.4,1.7,4.8,4.9,5.5c2.3,0.4,4.6-0.3,6.4-1.8c3-2.6,4.2-6.5,5.2-10.3"/>
<path class="st6" d="M283.2,403.7c-0.1,4.7,1.1,9.5,3.4,13.7c0.5,1,1.2,2,2.1,2.5c2.3,1.4,5.4-0.2,7.1-2.3c1.7-2.1,2.8-4.8,4.8-6.6
	c0.5-0.5,1.3-0.9,2-0.7c0.4,0.1,0.7,0.5,1,0.8c2.7,3.1,5.4,6.1,8,9.2c1.3,1.5,2.7,3,4.6,3.6c3.6,1,7-1.9,9.3-4.9
	c2.7-3.4,5.7-7.5,10.5-6.5c0.8,0.2,1.5,0.4,2.2,0.8c4.9,2.8,6.2,8.7,10.4,12.1c1.1,0.9,2.5,1.6,3.9,1.3c1.3-0.3,2.2-1.4,2.9-2.5
	c2.7-4,4.6-8.8,7-13.1c2.7-5,10.1-4.4,11.9,1l1.1,3.3c0.8,2.4,1.7,4.8,4.9,5.5c2.3,0.4,4.6-0.3,6.4-1.8c3-2.6,4.2-6.5,5.2-10.3"/>
<path class="st6" d="M283.2,439.6c-0.1,4.7,1.1,9.5,3.4,13.7c0.5,1,1.2,2,2.1,2.5c2.3,1.4,5.4-0.2,7.1-2.3c1.7-2.1,2.8-4.8,4.8-6.6
	c0.5-0.5,1.3-0.9,2-0.7c0.4,0.1,0.7,0.5,1,0.8c2.7,3.1,5.4,6.1,8,9.2c1.3,1.5,2.7,3,4.6,3.6c3.6,1,7-1.9,9.3-4.9
	c2.7-3.4,5.7-7.5,10.5-6.5c0.8,0.2,1.5,0.4,2.2,0.8c4.9,2.8,6.2,8.7,10.4,12.1c1.1,0.9,2.5,1.6,3.9,1.3c1.3-0.3,2.2-1.4,2.9-2.5
	c2.7-4,4.6-8.8,7-13.1c2.7-5,10.1-4.4,11.9,1l1.1,3.3c0.8,2.4,1.7,4.8,4.9,5.5c2.3,0.4,4.6-0.3,6.4-1.8c3-2.6,4.2-6.5,5.2-10.3"/>
<circle class="st7" cx="339.7" cy="151.4" r="23.5"/>
<ellipse class="st5" cx="340.2" cy="150.9" rx="12.9" ry="13.6"/>
<path class="st8" d="M290.1,198.5c5.5-6.9,14.6-10.7,23.4-9.7"/>
<path class="st8" d="M392.1,196.5c-5.5-6.9-14.6-10.7-23.4-9.7"/>
<g>
	<path class="st9" d="M344.2,273.4c-14.3,0-27.1-6.6-30.4-15.6c-0.2-0.6-0.1-1.2,0.2-1.7c0.4-0.6,1-0.9,1.7-0.9h57.1
		c0.7,0,1.3,0.3,1.7,0.9c0.4,0.5,0.4,1.1,0.2,1.7C371.3,266.9,358.5,273.4,344.2,273.4z"/>
	<path class="st9" d="M372.7,257.2c-3.1,8.2-15.1,14.2-28.5,14.2c-13.5,0-25.4-6-28.5-14.2H372.7 M372.7,253.2h-57.1
		c-2.7,0-4.7,2.7-3.8,5.3c3.5,9.7,16.7,16.9,32.3,16.9c15.7,0,28.8-7.2,32.3-16.9C377.4,255.9,375.4,253.2,372.7,253.2L372.7,253.2z
		"/>
</g>
<path class="st10" d="M323,270.4c5.8,3.2,13.1,5.1,21.2,5.1c12,0,22.5-4.2,28.4-10.6c-1.1-2.1-3.2-3.5-5.5-4.3s-4.7-0.9-7.1-1
	c-5.5-0.2-11.2-0.2-16.5,1.1c-6.6,1.6-12.6,5-18.5,8.4"/>
<g class="st11">
	<g>
		<path class="st9" d="M372.7,256.9c-3.1,8.2-15.1,14.2-28.5,14.2c-13.5,0-25.4-6-28.5-14.2H372.7 M372.7,252.9h-57.1
			c-2.7,0-4.7,2.7-3.8,5.3c3.5,9.7,16.7,16.9,32.3,16.9c15.7,0,28.8-7.2,32.3-16.9C377.4,255.6,375.4,252.9,372.7,252.9L372.7,252.9
			z"/>
	</g>
</g>
<path class="st12" d="M319.9,343.3c-11.7-0.5-28.7-2.8-46.8-11.6c-6.5-3.1-12.1-6.6-16.8-10c0.7-1.4,1.3-2.9,1.9-4.3
	c0.8-2,1.6-4,2.4-6c1.8-4.7,3.6-9.6,4.5-14.5c4.8,3.6,13,10.3,21.3,14.4c5.2,2.6,16.1,7.8,30.8,10.3c19.8,3.4,35.6,0,44.7-2
	c15-3.4,26.7-8.9,34.1-12.4c5.9-2.8,19.8-11.3,23.2-13.2c2.2,3.6,3.9,7.2,6,10.8c1.1,1.8,2.2,3.7,3.1,5.6c0.6,1.2,1,2.4,1.7,3.5
	c0.2,0.4,0.5,0.9,0.5,1.4s-0.4,1-0.9,1"/>
<path class="st13" d="M429.7,316.3c-3.8,2.4-17.3,11.5-19.5,12.6c-9,4.7-22.5,11.5-39.8,12.7c-2.2,0.1-4,0.2-5,0.2
	c-5.7,0-11.3,1.7-16.9,2.6c-9.8,1.5-24-0.7-33.8-2.5c-0.6-0.3,3.6,0.9,4,0.4s1-0.8,1.6-1c4.5-1.7,8.9-3.4,13.4-5.2
	c8.9-3.4,17.9-6.9,27.1-9.5c7-2,14.2-3.5,21.4-5c4.5-1,9.1-1.9,13.6-2.9c11.1-2.4,22.4-4.7,33.7-3.8"/>
<path class="st14" d="M328.1,341.8l1.1,62.6l10.7,18.2c0.7,1.2,2.3,1.2,2.9,0l11.4-20.2l1.3-63.7"/>
<path class="st15" d="M354.4,321c3.4,6.4,6.6,13.1,9.8,19.6c0.6,1.3-0.2,2.8-1.5,2.9c-13.5,0.8-27.2,2.9-40.5,0.6
	c-1.3-0.2-2-1.7-1.4-2.9L330,322L354.4,321z"/>
<path class="st3" d="M422.9,284c4.5,1.4,7.5,6,8.3,10.6c0.8,4.7-0.1,9.4-1,14.1c-2.9,15-5.8,30-8.7,45.1c-1.9,9.9-4.4,19.1-6.6,29"
	/>
<circle class="st16" cx="314.7" cy="216" r="12.1"/>
<circle class="st9" cx="311.5" cy="216" r="7.4"/>
<circle class="st16" cx="315.8" cy="211.8" r="3.2"/>
<circle class="st16" cx="373.4" cy="216" r="12.1"/>
<circle class="st9" cx="370.2" cy="216" r="7.4"/>
<circle class="st16" cx="374.4" cy="211.8" r="3.2"/>
<path class="st0" d="M433.6,369.2c-3.8-5.5-5.4-13-2.5-19.1s10.6-9.9,16.7-7.1c5.1,2.4,7.7,8.1,9.4,13.5c7.4,22.9,8.8,47.5,6.8,71.5
	c-0.6,6.9-1.7,14.3-6.8,19.1c-2,1.9-4.5,3.2-7,4.1c-6.2,2.3-14,2.3-18.4-2.6c-4.6-5-3.7-13.1-0.7-19.3c3-6.2,7.6-11.5,10.1-17.8
	c5.6-14.7-1.6-31-8.7-45"/>
<circle class="st17" cx="336.4" cy="366.5" r="4.5"/>
<circle class="st17" cx="339.4" cy="381.5" r="2.5"/>
<circle class="st17" cx="341.9" cy="410.9" r="4"/>
<circle class="st17" cx="336.2" cy="397.1" r="5"/>
<circle class="st17" cx="349.7" cy="362.2" r="2.5"/>
<path class="st17" d="M354.7,391.1l-0.3,9.1c-1.1,0.1-2.5,0.4-3.3-0.4c-0.2-0.2-0.4-0.6-0.5-0.9c-0.4-1-0.7-2-0.7-3.1
	c0.1-1.2,0.6-2.4,1.4-3.2C352.3,391.7,353.5,391.2,354.7,391.1"/>
<circle class="st17" cx="341.6" cy="351.8" r="4"/>
<circle class="st17" cx="350" cy="376.2" r="2.7"/>
<path class="st18" d="M378.7,426.5c0.2-1.3,0.5-3.4,1-5.9c1.7-9,3.4-17.6,8.6-25.4c2.8-4.2,6-9,12.1-11.4c7.4-3,15.5-1.2,20.6,1.8
	c10.4,6.2,15.1,22,9.9,38.3"/>
<path class="st19" d="M383.3,430c0.3,0.5,0.5,1.1,0.6,1.6c0.2,1.8-0.6,3.6-1.9,4.8c-1.6,1.4-3.7,1.8-5.8,1.6
	c-0.9-0.1-1.9-0.2-2.8-0.6c-0.8-0.3-1.5-0.9-2.1-1.5c-1-1-2-2-2.2-3.4c-0.4-2.1,0.3-4.8,2.1-6.2"/>
<path class="st20" d="M382.4,423.8c1.5,0.9,2.7,3.3,2,4.9c-0.6,1.3-2,2.1-3.5,2.3c-1.4,0.2-2.9-0.1-4.3-0.5c-0.8-0.3-1.6-0.6-2.3-1
	c-0.6-0.4-1.2-0.9-1.7-1.4s-0.9-1-1.1-1.6c-0.5-1.4,0.4-3,1.7-3.8c1.3-0.8,2.8-1,4.3-1.1c0.4,0,0.8,0,1.2,0.1c0.7,0.3,1.5,0.6,2.1,1
	C381.4,422.9,382,423.2,382.4,423.8"/>
<g>
	<path class="st21" d="M282.7,387.5c0.1,0.4,0.3,2.5,0.4,3.2c0.1,3.2-1.9,6.1-4.1,8.2c-4.4,4.1-10.5,6.5-16.6,6.4
		c-1.9,0-3.8-0.3-5.4-1.2c-1.8-1-3.1-2.7-3.4-4.8c-0.3-2.5,0.2-5,1.5-7.1c0.5-0.7,1-1.4,1.5-2c0.5-0.7,2-2.5,2.8-2.6
		c0.4,0.4-0.2,2.1-0.3,2.6c-0.1,0.6-0.4,1.1-0.6,1.6c-0.6,1.1-1.2,2.2-1.5,3.4s-0.3,2.5,0.3,3.6c1.6,3,4.6,2.7,7.5,2.5
		c3.3-0.3,6-1.5,9-2.8c0.6-0.3,1.3-0.8,1.8-1.2c0.8-0.6,1.8-1.2,2.3-2.1c1.4-2.4,2.8-4.6,4.4-6.8"/>
	<path class="st22" d="M270.1,382c0.9-0.4,3.2-1.5,5.5-1.1c3.4,0.5,7.8,3.6,6.9,7.7c-0.2,1.1-0.7,2-1.3,3
		c-3.7,6.1-10.8,10.4-18.1,10.1c-2.3-0.1-5.3-0.3-6.3-3c-0.2-0.7-0.3-1.4-0.3-2.1c0-2.9,0.6-5.9,1.9-8.2"/>
	<path class="st23" d="M253.2,381.4c0.2-0.6,0.6-1.1,0.7-1.2c2.3-2.9,3.7-4.7,6.4-6c1.7-0.9,3.4-1.7,5.5-1.4c2.1,0.3,4.8,1.8,5.1,4
		c0.3,2-1.7,3.7-4,5.5c-1.4,1.1-5.4,4.3-10.3,3.8c-1-0.1-2.7-0.3-3.4-1.6C252.5,383.3,253.1,381.6,253.2,381.4z"/>
	<path class="st20" d="M262.4,395.2c0.1,0.7,0.7,1.1,1.3,1.3c0.6,0.2,1.3,0.1,2-0.1c1.7-0.4,3.4-1,5-1.9c1.2-0.7,2.3-1.5,2.8-2.8
		c0.4-0.9,0.3-2,0-3s-0.8-1.8-1.3-2.7c-1.1-1.9-2.2-3.9-3.3-5.8c-1.5,1.4-3.2,2.9-5,4c-1.9,1.1-4,1.8-6.2,1.9c1,3.4,2.7,6.6,4.9,9.4
		"/>
</g>
<path class="st3" d="M261.5,378.3c-5-18.9-8.3-38.1-10.1-57.5c-0.5-5.7-0.9-11.5,0.3-17.1s4.1-11.1,8.9-14.1"/>
<g>
	<path class="st19" d="M429,418.7c-1,0.1-1.8,0.8-2.4,1.5c-0.2,0.3-0.4,0.6-0.7,0.9c-0.2,0.1-0.4,0.2-0.7,0.3
		c-1.6,0.6-3.2,1.6-3.8,3.3c-0.6,1.5-0.8,3.4-0.1,4.9c0.4,0.9,1.2,1.5,1.9,2.1c1.1,0.8,2.2,1.6,3.5,1.9c1.1,0.3,2.2,0.2,3.2,0
		c3.1-0.6,6.3-3.1,5.5-6.6c0-0.2-0.1-0.4-0.1-0.6c0-0.3,0.2-0.6,0.3-0.8c0.3-0.7,0.2-1.5,0-2.3c-0.2-0.7-0.6-1.4-0.9-2.1"/>
	<path class="st24" d="M427,425.7c-0.7-0.1-1.8,0-2.1,0.8c-0.5,1.1,0.6,3,2.3,3.7c1.4,0.5,3,0.1,3.3-0.9
		C430.8,428,428.9,425.9,427,425.7z"/>
</g>
</svg>
