<?xml version="1.0" encoding="utf-8"?>
<!-- Generator: Adobe Illustrator 22.0.1, SVG Export Plug-In . SVG Version: 6.00 Build 0)  -->
<svg version="1.1" id="Layer_1" xmlns="http://www.w3.org/2000/svg" xmlns:xlink="http://www.w3.org/1999/xlink" x="0px" y="0px"
	 viewBox="0 0 320.2 532.4" style="enable-background:new 0 0 320.2 532.4;" xml:space="preserve">
<style type="text/css">
	.st0{fill:#EFF4F1;}
	.st1{fill:#3F8E66;}
	.st2{fill:#F2EADC;stroke:#686765;stroke-width:3;stroke-miterlimit:10;}
	.st3{fill:#A8C1BC;}
	.st4{fill:none;stroke:#E2C941;stroke-width:3;stroke-miterlimit:10;}
	.st5{fill:#469E74;}
	.st6{fill:#9DCED7;}
	.st7{opacity:0.66;fill:none;stroke:#3D7F59;stroke-width:3;stroke-linecap:round;stroke-miterlimit:10;}
	.st8{fill:#74898C;}
	.st9{fill:none;stroke:#26593D;stroke-width:3;stroke-linecap:round;stroke-miterlimit:10;}
	.st10{fill:#0F142B;}
	.st11{fill:#EF8E73;}
	.st12{opacity:0.11;}
	.st13{fill:#F7F7F9;}
	.st14{fill:#F7F7F9;stroke:#F7F7F9;stroke-width:3;stroke-linecap:round;stroke-miterlimit:10;}
	.st15{fill:#FDE356;}
	.st16{fill:#DDDDDD;stroke:#DDDDDD;stroke-width:3;stroke-miterlimit:10;}
	.st17{fill:#F3EED0;}
	.st18{fill:#F2D455;}
	.st19{fill:none;stroke:#C0C6C7;stroke-width:3;stroke-miterlimit:10;}
	.st20{fill:#4485B2;}
	.st21{fill:#173644;stroke:#173644;stroke-width:3;stroke-miterlimit:10;}
	.st22{fill:#95979E;}
	.st23{fill:#B2B5C0;}
	.st24{fill:#95979E;stroke:#95979E;stroke-width:3;stroke-miterlimit:10;}
	.st25{fill:#173644;stroke:#4485B2;stroke-width:3;stroke-miterlimit:10;}
</style>
<ellipse class="st0" cx="150.8" cy="438.9" rx="111.5" ry="22.7"/>
<g>
	<path class="st1" d="M82.1,245.7c-9.3,2.1-22,8.3-26.7,17.4c-2,3.9-3.4,8.1-5.6,11.8c-2.9,4.8-7.3,8.4-10.7,12.8
		s-6.2,10.2-4.9,15.7c1.2,4.9,5.5,8.4,10.1,9.3s9.4-0.6,13.6-3.1c7.1-4.2,12.7-11.2,16.6-18.9c3.9-7.7,6.3-16.3,8.3-24.8
		c0.6-2.7,1.2-5.5,0.9-8.3c-0.3-2.8-1.6-5.5-3.9-6.7"/>
	<path class="st2" d="M117.9,210.6"/>
	<circle class="st3" cx="143.6" cy="221.9" r="11.2"/>
	<path class="st4" d="M224,198.3c-2.7-1.2-5.8-1.4-8.7-0.6"/>
	<path class="st4" d="M90.5,203.3c0.8-0.8,2-1.6,2.9-2c1.4-0.7,3-1.2,4.5-1.3"/>
	<path class="st5" d="M165.2,353.7h11.1v88.2c0,3.5-3,6.3-6.6,6.3h-4.5h-6.7c-2.6,0-4.8-2-4.8-4.6l0,0c0-2.5,2.1-4.6,4.8-4.6h3.8
		c1.6,0,2.8-1.2,2.8-2.7V353.7z"/>
	<path class="st5" d="M132,353.7h11.1v88.2c0,3.5-3,6.3-6.6,6.3H132h-6.7c-2.6,0-4.8-2-4.8-4.6l0,0c0-2.5,2.1-4.6,4.8-4.6h3.8
		c1.6,0,2.8-1.2,2.8-2.7V353.7z"/>
	<path class="st5" d="M96.5,166.7c-2.1-11.4-3.4-22.7-3.5-28.7c-0.1-2.5-0.4-19.5,8.2-35.7c15.1-28.3,47.4-34.7,49.4-35.1
		c19.5-3.5,47.8-0.1,63.2,19.7c16.5,21.3,11,52,10.4,55.4c-0.4,2-2.4,12.9-5.1,26c-2.8,13.7-3.2,14.9-3.3,18
		c-0.4,13.3,6.1,22.9,11.2,31.6c0,0,8.2,14.1,20.3,46.6c2.2,5.9,17.3,48.7-2.9,85.2c-20.8,37.5-65.9,44.9-79.8,47.1
		c-15.2,2.5-51.4,8.3-82.5-15.1c-3.9-2.9-34-26.3-34.9-61.2c-0.7-27.6,16.9-53.4,22.6-61.6c4.5-6.5,11-14.8,18-29.1
		c1.8-3.8,5-10.2,7.5-18.8c1.2-4.2,1.9-7.5,2.1-8.4c2.2-11.2,1.8-19.6,1.7-21.3C98.5,175.7,97.6,172.8,96.5,166.7z"/>
	<path class="st6" d="M137.9,87.2c-10.5,0.9-18.7,2.2-28.5,5c-1.7,0.5-3.1,1.5-4.1,3l-0.2,0.2l-2.5,4.1l-2,3.4
		c-0.3,0.5-0.6,1-0.8,1.5l-1.8,3.6c-0.2,0.3-0.3,0.7-0.5,1.1l-1.4,3.5l-1.1,3.3c-0.4,1.1-0.6,2.2-0.7,3.3l-0.6,4.9
		c13.7-10.5,30.5-17.4,47.4-21"/>
	<path class="st6" d="M171.4,82.3c11.1-2.6,22.1-3.8,33.5-4.1l1.7,1.1c2.1,1.4,4.1,3.1,5.7,5v0c2.1,2.4,3.9,5.1,5.3,8l1.5,3.2
		l2.1,4.7c-16.3-5.8-32.7-2.6-49.9-0.8"/>
	<path class="st7" d="M109.9,267.2c-0.1,3.8,0.9,7.7,2.7,11.1c0.4,0.8,0.9,1.6,1.7,2.1c1.9,1.2,4.4-0.1,5.8-1.9
		c1.4-1.7,2.2-3.9,3.9-5.4c0.4-0.4,1-0.7,1.6-0.5c0.3,0.1,0.6,0.4,0.8,0.7c2.2,2.5,4.3,5,6.5,7.5c1,1.2,2.2,2.5,3.7,2.9
		c2.9,0.8,5.7-1.6,7.5-3.9c2.2-2.8,4.6-6.1,8.5-5.3c0.6,0.1,1.2,0.4,1.8,0.7c3.9,2.3,5.1,7,8.4,9.8c0.9,0.7,2,1.3,3.1,1.1
		c1-0.2,1.8-1.1,2.4-2c2.2-3.3,3.8-7.1,5.6-10.6c2.2-4.1,8.2-3.6,9.7,0.8l0.9,2.7c0.7,1.9,1.4,3.9,4,4.5c1.8,0.4,3.7-0.2,5.2-1.4
		c2.4-2.1,3.4-5.3,4.2-8.3"/>
	<path class="st7" d="M109.9,295c-0.1,3.8,0.9,7.7,2.7,11.1c0.4,0.8,0.9,1.6,1.7,2.1c1.9,1.2,4.4-0.1,5.8-1.9
		c1.4-1.7,2.2-3.9,3.9-5.4c0.4-0.4,1-0.7,1.6-0.5c0.3,0.1,0.6,0.4,0.8,0.7c2.2,2.5,4.3,5,6.5,7.5c1,1.2,2.2,2.5,3.7,2.9
		c2.9,0.8,5.7-1.6,7.5-3.9c2.2-2.8,4.6-6.1,8.5-5.3c0.6,0.1,1.2,0.4,1.8,0.7c3.9,2.3,5.1,7,8.4,9.8c0.9,0.7,2,1.3,3.1,1.1
		c1-0.2,1.8-1.1,2.4-2c2.2-3.3,3.8-7.1,5.6-10.6c2.2-4.1,8.2-3.6,9.7,0.8l0.9,2.7c0.7,1.9,1.4,3.9,4,4.5c1.8,0.4,3.7-0.2,5.2-1.4
		c2.4-2.1,3.4-5.3,4.2-8.3"/>
	<path class="st7" d="M109.9,324.1c-0.1,3.8,0.9,7.7,2.7,11.1c0.4,0.8,0.9,1.6,1.7,2.1c1.9,1.2,4.4-0.1,5.8-1.9
		c1.4-1.7,2.2-3.9,3.9-5.4c0.4-0.4,1-0.7,1.6-0.5c0.3,0.1,0.6,0.4,0.8,0.7c2.2,2.5,4.3,5,6.5,7.5c1,1.2,2.2,2.5,3.7,2.9
		c2.9,0.8,5.7-1.6,7.5-3.9c2.2-2.8,4.6-6.1,8.5-5.3c0.6,0.1,1.2,0.4,1.8,0.7c3.9,2.3,5.1,7,8.4,9.8c0.9,0.7,2,1.3,3.1,1.1
		c1-0.2,1.8-1.1,2.4-2c2.2-3.3,3.8-7.1,5.6-10.6c2.2-4.1,8.2-3.6,9.7,0.8l0.9,2.7c0.7,1.9,1.4,3.9,4,4.5c1.8,0.4,3.7-0.2,5.2-1.4
		c2.4-2.1,3.4-5.3,4.2-8.3"/>
	<circle class="st8" cx="155.8" cy="90.5" r="19"/>
	<ellipse class="st6" cx="156.1" cy="90.1" rx="10.5" ry="11.1"/>
	<path class="st9" d="M115.5,128.7c4.4-5.6,11.9-8.7,19-7.9"/>
	<path class="st9" d="M198.3,127.1c-4.4-5.6-11.9-8.7-19-7.9"/>
	<g>
		<path class="st10" d="M159.3,189.5c-11.7,0-22.1-5.4-24.8-12.7c-0.2-0.5-0.1-1,0.2-1.5c0.3-0.5,0.9-0.8,1.4-0.8h46.3
			c0.6,0,1.1,0.3,1.4,0.8c0.3,0.4,0.4,1,0.2,1.5C181.5,184.2,171,189.5,159.3,189.5z"/>
		<path class="st10" d="M182.5,176c0.1,0,0.2,0.1,0.2,0.1c0,0.1,0,0.1,0,0.1c-2.5,6.8-12.3,11.7-23.4,11.7
			c-11.1,0-20.9-4.9-23.4-11.7c0,0,0-0.1,0-0.1c0-0.1,0.1-0.1,0.2-0.1H182.5 M182.5,173h-46.3c-2.2,0-3.8,2.2-3.1,4.3
			c2.9,7.9,13.5,13.7,26.2,13.7c12.7,0,23.3-5.8,26.2-13.7C186.3,175.2,184.7,173,182.5,173L182.5,173z"/>
	</g>
	<path class="st11" d="M142.2,186.9c4.7,2.6,10.6,4.1,17.2,4.1c9.7,0,18.2-3.4,23-8.6c-0.9-1.7-2.6-2.8-4.5-3.5s-3.8-0.8-5.7-0.8
		c-4.5-0.2-9-0.2-13.4,0.9c-5.3,1.3-10.2,4.1-15,6.8"/>
	<g class="st12">
		<g>
			<path class="st10" d="M182.5,176c0.2,0,0.2,0.1,0.2,0.2c-2.5,6.8-12.4,11.8-23.4,11.8c-11,0-20.9-5-23.4-11.8
				c0,0,0.1-0.2,0.3-0.2H182.5 M182.5,173h-46.3c-2.2,0-3.8,2.2-3.1,4.2c2.9,7.8,13.5,13.8,26.2,13.8c12.7,0,23.3-6,26.2-13.8
				C186.3,175.2,184.7,173,182.5,173L182.5,173z"/>
		</g>
	</g>
	<path class="st13" d="M139.7,246.1c-9.5-0.4-23.3-2.3-38-9.4c-5.2-2.5-9.8-5.4-13.6-8.1c0.6-1.1,1-2.4,1.5-3.5
		c0.7-1.6,1.3-3.2,1.9-4.8c1.4-3.8,2.9-7.8,3.6-11.8c3.9,2.9,10.5,8.3,17.3,11.6c4.2,2.1,13,6.3,25,8.4c16.1,2.8,28.9,0,36.2-1.7
		c12.1-2.7,21.6-7.2,27.7-10.1c4.7-2.2,16.1-9.1,18.8-10.7c1.8,2.9,3.1,5.8,4.9,8.8c0.9,1.5,1.8,3,2.5,4.5c0.5,1,0.8,1.9,1.4,2.9
		c0.2,0.3,0.4,0.7,0.4,1.1c0,0.4-0.3,0.8-0.7,0.8"/>
	<path class="st14" d="M228.7,224.2c-3.1,1.9-14.1,9.3-15.8,10.2c-7.3,3.8-18.2,9.3-32.3,10.3c-1.8,0.1-3.2,0.1-4.1,0.1
		c-4.6,0-9.1,1.4-13.7,2.1c-7.9,1.2-19.5-0.6-27.4-2c-0.5-0.3,2.9,0.7,3.2,0.3c0.3-0.4,0.8-0.6,1.3-0.8c3.6-1.4,7.2-2.8,10.9-4.2
		c7.2-2.8,14.5-5.6,21.9-7.7c5.7-1.6,11.5-2.9,17.3-4.1c3.7-0.8,7.4-1.6,11-2.3c9-1.9,18.2-3.8,27.3-3.1"/>
	<path class="st15" d="M146.3,244.8l0.9,50.8l8.7,14.8c0.5,0.9,1.8,0.9,2.4,0l9.3-16.4l1-51.6"/>
	<path class="st16" d="M167.6,228c2.7,5.2,5.3,10.6,8,15.9c0.5,1-0.1,2.3-1.2,2.3c-11,0.6-22,2.4-32.8,0.5c-1-0.2-1.6-1.4-1.1-2.3
		l7.5-15.6L167.6,228z"/>
	<path class="st4" d="M223.2,198c3.7,1.1,6.1,4.8,6.7,8.6c0.7,3.8-0.1,7.6-0.8,11.4c-2.3,12.2-4.7,24.4-7,36.5
		c-1.5,8-3.5,15.5-5.3,23.5"/>
	<g>
		<circle class="st17" cx="135.5" cy="142.8" r="9.8"/>
		<circle class="st10" cx="135.5" cy="142.8" r="6"/>
		<circle class="st17" cx="138.9" cy="139.4" r="2.6"/>
	</g>
	<g>
		<circle class="st17" cx="183.1" cy="142.8" r="9.8"/>
		<circle class="st10" cx="183.1" cy="142.8" r="6"/>
		<circle class="st17" cx="186.5" cy="139.4" r="2.6"/>
	</g>
	<path class="st1" d="M231.9,267c-3.1-4.5-4.3-10.5-2-15.5c2.3-4.9,8.6-8,13.6-5.7c4.2,1.9,6.2,6.6,7.6,10.9c6,18.6,7.2,38.5,5.5,58
		c-0.5,5.6-1.4,11.6-5.5,15.4c-1.6,1.5-3.6,2.6-5.7,3.3c-5,1.8-11.3,1.8-14.9-2.1c-3.7-4.1-3-10.7-0.6-15.6c2.4-5,6.2-9.3,8.2-14.5
		c4.6-11.9-1.3-25.1-7.1-36.5"/>
	<circle class="st18" cx="153.1" cy="264.8" r="3.7"/>
	<circle class="st18" cx="155.5" cy="277" r="2"/>
	<circle class="st18" cx="157.5" cy="300.9" r="3.3"/>
	<circle class="st18" cx="152.9" cy="289.7" r="4.1"/>
	<circle class="st18" cx="163.8" cy="261.4" r="2"/>
	<path class="st18" d="M167.9,284.8l-0.2,7.4c-0.9,0.1-2,0.3-2.6-0.4c-0.2-0.2-0.3-0.4-0.4-0.7c-0.4-0.8-0.6-1.6-0.5-2.5
		c0.1-1,0.5-1.9,1.2-2.6C166,285.3,166.9,284.9,167.9,284.8"/>
	<circle class="st18" cx="157.3" cy="252.9" r="3.2"/>
	<circle class="st18" cx="164.1" cy="272.8" r="2.2"/>
	<path class="st19" d="M187.4,313.5c0.1-1.1,0.4-2.7,0.8-4.7c1.4-7.3,2.7-14.3,7-20.6c2.3-3.4,4.9-7.3,9.8-9.3
		c6-2.4,12.6-1,16.7,1.5c8.4,5,12.3,17.9,8,31.1"/>
	<path class="st20" d="M191.1,316.3c0.3,0.4,0.4,0.9,0.5,1.3c0.2,1.4-0.5,2.9-1.6,3.9c-1.3,1.2-3,1.4-4.7,1.3
		c-0.8,0-1.5-0.2-2.2-0.5c-0.6-0.3-1.2-0.7-1.7-1.2c-0.9-0.8-1.6-1.6-1.8-2.8c-0.3-1.7,0.2-3.9,1.7-5"/>
	<path class="st21" d="M190.3,311.3c1.2,0.7,2.2,2.7,1.6,4c-0.5,1.1-1.7,1.7-2.8,1.9c-1.2,0.2-2.3-0.1-3.5-0.4
		c-0.6-0.2-1.3-0.4-1.9-0.8c-0.5-0.3-1-0.7-1.4-1.1c-0.4-0.4-0.7-0.8-0.9-1.3c-0.4-1.2,0.3-2.4,1.4-3.1c1-0.6,2.3-0.8,3.5-0.9
		c0.3,0,0.7,0,1,0.1c0.6,0.2,1.2,0.5,1.7,0.8C189.5,310.6,190,310.9,190.3,311.3"/>
	<g>
		<path class="st22" d="M109.5,281.9c0.1,0.3,0.3,2.1,0.3,2.6c0.1,2.6-1.5,4.9-3.3,6.6c-3.6,3.4-8.5,5.3-13.4,5.2
			c-1.5,0-3.1-0.2-4.4-1c-1.4-0.8-2.5-2.2-2.7-3.9c-0.3-2,0.1-4.1,1.2-5.8c0.4-0.6,0.8-1.1,1.2-1.6c0.4-0.5,1.6-2,2.3-2.1
			c0.4,0.3-0.2,1.7-0.3,2.1c-0.1,0.5-0.3,0.9-0.5,1.3c-0.5,0.9-1,1.8-1.2,2.7c-0.2,1-0.2,2,0.3,2.9c1.3,2.4,3.7,2.2,6.1,2
			c2.7-0.2,4.8-1.2,7.3-2.3c0.5-0.2,1-0.6,1.4-1c0.7-0.5,1.5-0.9,1.9-1.7c1.1-1.9,2.3-3.8,3.6-5.6"/>
		<path class="st23" d="M99.3,277.4c0.7-0.4,2.6-1.2,4.4-0.9c2.8,0.4,6.3,2.9,5.6,6.2c-0.2,0.9-0.6,1.7-1,2.4
			c-3,4.9-8.8,8.4-14.6,8.2c-1.8-0.1-4.3-0.3-5.1-2.4c-0.2-0.5-0.2-1.1-0.2-1.7c0-2.3,0.4-4.7,1.6-6.7"/>
		<path class="st24" d="M85.6,277c0.2-0.5,0.5-0.9,0.6-1c1.9-2.4,3-3.8,5.2-4.9c1.4-0.7,2.7-1.4,4.5-1.1c1.7,0.3,3.9,1.5,4.1,3.3
			c0.2,1.7-1.4,3-3.2,4.4c-1.1,0.9-4.4,3.5-8.4,3c-0.8-0.1-2.2-0.3-2.8-1.3C85.1,278.5,85.6,277.1,85.6,277z"/>
		<path class="st21" d="M93.1,288.2c0.1,0.5,0.6,0.9,1.1,1.1c0.5,0.1,1.1,0,1.6-0.1c1.4-0.3,2.8-0.8,4.1-1.5c1-0.5,1.9-1.2,2.3-2.2
			c0.3-0.8,0.2-1.6,0-2.4c-0.2-0.8-0.6-1.5-1-2.2c-0.9-1.6-1.8-3.2-2.7-4.7c-1.2,1.2-2.6,2.4-4.1,3.2c-1.5,0.9-3.3,1.4-5,1.5
			c0.8,2.8,2.2,5.4,4,7.6"/>
	</g>
	<path class="st4" d="M92.3,274.5c-4-15.3-6.8-30.9-8.2-46.7c-0.4-4.6-0.7-9.3,0.2-13.9c1-4.5,3.3-9,7.2-11.5"/>
	<g>
		<path class="st20" d="M228.2,307.2c-0.8,0-1.4,0.6-1.9,1.3c-0.2,0.3-0.4,0.5-0.6,0.7c-0.2,0.1-0.4,0.2-0.6,0.3
			c-1.3,0.5-2.6,1.3-3.1,2.7c-0.5,1.2-0.7,2.8-0.1,4c0.3,0.7,0.9,1.2,1.6,1.7c0.9,0.7,1.8,1.3,2.8,1.6c0.9,0.2,1.8,0.2,2.6,0
			c2.5-0.5,5.1-2.6,4.5-5.4c0-0.2-0.1-0.3-0.1-0.5c0-0.2,0.1-0.5,0.2-0.7c0.2-0.6,0.2-1.2,0-1.8c-0.2-0.6-0.4-1.2-0.7-1.7"/>
		<path class="st25" d="M226.5,312.9c-0.6-0.1-1.4,0-1.7,0.6c-0.4,0.9,0.5,2.5,1.9,3c1.1,0.4,2.5,0,2.7-0.7
			C229.6,314.7,228,313,226.5,312.9z"/>
	</g>
</g>
</svg>
