<?xml version="1.0" encoding="utf-8"?>
<!-- Generator: Adobe Illustrator 22.0.1, SVG Export Plug-In . SVG Version: 6.00 Build 0)  -->
<svg version="1.1" id="Layer_1" xmlns="http://www.w3.org/2000/svg" xmlns:xlink="http://www.w3.org/1999/xlink" x="0px" y="0px"
	 viewBox="0 0 364.1 160.4" style="enable-background:new 0 0 364.1 160.4;" xml:space="preserve">
<style type="text/css">
	.st0{fill:#FBC746;}
	.st1{enable-background:new    ;}
	.st2{fill:#FBC746;stroke:#FBC746;stroke-width:3;stroke-miterlimit:10;}
	.st3{fill:#FFFFFF;}
</style>
<g>
	<g id="Button_2_">
		<path class="st0" d="M353,141.4c0,5.1-4.1,9.2-9.2,9.2h-323c-5.1,0-9.2-4.1-9.2-9.2V22.3c0-5.1,4.1-9.2,9.2-9.2h323
			c5.1,0,9.2,4.1,9.2,9.2V141.4z"/>
		<path class="st0" d="M343.8,152h-323c-5.9,0-10.7-4.8-10.7-10.7v-119c0-5.9,4.8-10.7,10.7-10.7h323c5.9,0,10.7,4.8,10.7,10.7
			v119.1C354.5,147.3,349.7,152,343.8,152z M20.8,14.6c-4.2,0-7.7,3.4-7.7,7.7v119.1c0,4.2,3.4,7.7,7.7,7.7h323
			c4.2,0,7.7-3.4,7.7-7.7V22.3c0-4.2-3.4-7.7-7.7-7.7C343.8,14.6,20.8,14.6,20.8,14.6z"/>
	</g>
	<g class="st1">
		<path class="st2" d="M99.6,80.2v10.7h-3.5V65.6h6.6c6.3,0,9.6,2.4,9.6,7.1c0,3.6-1.8,5.7-5.5,6.8l6.8,11.3h-4l-6-10.7L99.6,80.2
			L99.6,80.2z M108.7,72.8c0-3.2-1.8-4.4-5.9-4.4h-3.2v9.2h3.5C106.7,77.5,108.7,76.2,108.7,72.8z"/>
		<path class="st2" d="M131.7,82.4h-12.3c0.3,4.5,2.4,6.2,5.2,6.2c1.9,0,3.3-0.5,5-1.7l1.5,2c-1.9,1.5-4.1,2.4-6.7,2.4
			c-5.4,0-8.5-3.8-8.5-9.9c0-6,3-10.3,8-10.3c5.2,0,8,3.6,8,9.5C131.8,81.3,131.8,81.9,131.7,82.4z M128.5,79.7
			c0-3.8-1.5-5.9-4.5-5.9c-2.6,0-4.3,1.8-4.5,6.1h9.1v-0.2H128.5z"/>
		<path class="st2" d="M152,89l-0.8,2.3c-1.9-0.2-3.2-1-3.8-2.9c-1.4,2-3.4,2.9-5.8,2.9c-3.8,0-6.2-2.4-6.2-5.8
			c0-4.1,3.1-6.4,8.5-6.4h3v-1.4c0-2.8-1.4-3.8-4-3.8c-1.4,0-3.2,0.4-5.2,1l-0.8-2.5c2.4-0.9,4.5-1.3,6.7-1.3c4.7,0,6.8,2.4,6.8,6.4
			v8.8C150.4,88.1,151,88.6,152,89z M147,85.8v-4.4h-2.5c-3.6,0-5.4,1.3-5.4,4c0,2.3,1.1,3.5,3.3,3.5
			C144.4,88.8,145.9,87.8,147,85.8z"/>
		<path class="st2" d="M172.3,90.9h-3l-0.3-2.7c-1.2,1.9-3.2,3.1-5.6,3.1c-4.7,0-7.3-4-7.3-10c0-5.9,2.9-10.2,7.6-10.2
			c2.3,0,3.9,1,5.2,2.4V63.4l3.4,0.4L172.3,90.9L172.3,90.9z M168.9,85.8v-9.5c-1.2-1.5-2.6-2.5-4.5-2.5c-2.9,0-4.7,2.4-4.7,7.4
			c0,5.1,1.6,7.4,4.4,7.4C166.3,88.6,167.6,87.6,168.9,85.8z"/>
		<path class="st2" d="M213.6,77v13.9h-3.4V77.5c0-2.9-1.2-3.7-2.7-3.7c-2.1,0-3.2,1.4-4.5,3.4v13.7h-3.4V77.5
			c0-2.9-1.2-3.7-2.7-3.7c-2.1,0-3.3,1.4-4.5,3.4v13.7H189V71.6h2.9l0.3,2.8c1.3-1.9,3-3.3,5.6-3.3c2.4,0,4.1,1.3,4.9,3.5
			c1.4-2.1,3.2-3.5,5.8-3.5C211.5,71.1,213.6,73.4,213.6,77z"/>
		<path class="st2" d="M236.2,81.2c0,6-3.2,10.1-8.6,10.1c-5.5,0-8.6-4-8.6-10.1c0-6,3.2-10.1,8.6-10.1
			C233.1,71.1,236.2,75.1,236.2,81.2z M222.6,81.2c0,5,1.8,7.4,5,7.4s5-2.3,5-7.4c0-5-1.8-7.4-4.9-7.4
			C224.4,73.8,222.6,76.2,222.6,81.2z"/>
		<path class="st2" d="M252.1,71.3l-0.6,3.3c-0.6-0.1-1-0.2-1.7-0.2c-2.4,0-3.8,1.7-4.6,5.4v11h-3.4V71.6h2.9l0.3,3.9
			c1-2.9,2.8-4.4,5.2-4.4C250.8,71.1,251.5,71.2,252.1,71.3z"/>
		<path class="st2" d="M270,82.4h-12.3c0.3,4.5,2.4,6.2,5.2,6.2c1.9,0,3.3-0.5,5-1.7l1.5,2c-1.9,1.5-4.1,2.4-6.7,2.4
			c-5.4,0-8.5-3.8-8.5-9.9c0-6,3-10.3,8-10.3c5.2,0,8,3.6,8,9.5C270.1,81.3,270.1,81.9,270,82.4z M266.8,79.7c0-3.8-1.5-5.9-4.5-5.9
			c-2.6,0-4.3,1.8-4.5,6.1h9.1v-0.2H266.8z"/>
	</g>
	<g class="st1">
		<path class="st3" d="M84.9,77.2c0,13-8.1,16.1-15,16.1h-7.6V61.4h6.6C77.1,61.4,84.9,64,84.9,77.2z M66.7,89.8h3.6
			c5,0,10-2.1,10-12.6C80.3,66.4,75.1,65,70,65h-3.2L66.7,89.8L66.7,89.8z"/>
		<path class="st3" d="M111.7,81c0,7.5-4,12.7-10.8,12.7c-6.9,0-10.8-5-10.8-12.7c0-7.5,4-12.7,10.9-12.7
			C107.9,68.4,111.7,73.3,111.7,81z M94.6,81.1c0,6.3,2.2,9.3,6.3,9.3s6.3-3,6.3-9.3s-2.2-9.3-6.2-9.3
			C96.9,71.8,94.6,74.7,94.6,81.1z"/>
		<path class="st3" d="M137.3,75.8v17.4h-4.2V76.4c0-3.6-1.5-4.7-3.8-4.7c-2.7,0-4.6,1.7-6.2,4.3v17.2h-4.2V68.9h3.6l0.4,3.6
			c1.7-2.5,4.2-4.2,7.4-4.2C134.7,68.4,137.3,71.2,137.3,75.8z"/>
		<path class="st3" d="M164.2,90.8l-1,3c-2.4-0.3-4-1.2-4.8-3.6c-1.7,2.5-4.3,3.6-7.2,3.6c-4.8,0-7.8-3-7.8-7.3c0-5.2,3.9-8,10.7-8
			h3.7v-1.8c0-3.5-1.7-4.8-5.1-4.8c-1.8,0-4.1,0.5-6.6,1.3l-1.1-3.1c3-1.1,5.7-1.7,8.4-1.7c5.9,0,8.5,3,8.5,8.1v11.1
			C162.2,89.7,163,90.4,164.2,90.8z M157.9,86.8v-5.6h-3.2c-4.5,0-6.7,1.7-6.7,5c0,2.9,1.4,4.4,4.2,4.4
			C154.7,90.6,156.6,89.4,157.9,86.8z"/>
		<path class="st3" d="M177.7,93.8c-4.1,0-6.6-2.4-6.6-6.9V72.2h-4.2v-3.3h4.2v-5.5l4.2-0.5v6h5.8l-0.5,3.3h-5.3v14.5
			c0,2.4,0.8,3.6,2.9,3.6c1.1,0,2-0.3,3.2-1.1l1.6,2.9C181.6,93.2,179.8,93.8,177.7,93.8z"/>
		<path class="st3" d="M205.4,82.5h-15.5c0.4,5.6,3,7.8,6.6,7.8c2.4,0,4.2-0.6,6.3-2.1l1.8,2.5c-2.4,1.9-5.1,3-8.5,3
			c-6.8,0-10.8-4.8-10.8-12.5c0-7.6,3.8-13,10.1-13c6.6,0,10,4.6,10,12C205.5,81.2,205.4,82,205.4,82.5z M201.3,79.1
			c0-4.8-1.9-7.4-5.7-7.4c-3.2,0-5.4,2.3-5.7,7.7h11.4V79.1z"/>
		<path class="st3" d="M243.2,75.8v17.4H239V76.4c0-3.6-1.5-4.7-3.8-4.7c-2.7,0-4.6,1.7-6.2,4.3v17.2h-4.2V68.9h3.6l0.4,3.6
			c1.7-2.5,4.2-4.2,7.4-4.2C240.7,68.4,243.2,71.2,243.2,75.8z"/>
		<path class="st3" d="M271.7,81c0,7.5-4,12.7-10.8,12.7c-6.9,0-10.8-5-10.8-12.7c0-7.5,4-12.7,10.9-12.7
			C267.8,68.4,271.7,73.3,271.7,81z M254.6,81.1c0,6.3,2.2,9.3,6.3,9.3s6.3-3,6.3-9.3s-2.2-9.3-6.2-9.3
			C256.9,71.8,254.6,74.7,254.6,81.1z"/>
		<path class="st3" d="M294.7,93.2l-4.2-20.5l-4.4,20.5h-5.6l-5.7-24.3h4.2l4.4,21.4l4.8-21.4h4.8l4.6,21.4l4.4-21.4h4.1l-5.5,24.3
			H294.7z"/>
	</g>
</g>
</svg>
