<?xml version="1.0" encoding="utf-8"?>
<!-- Generator: Adobe Illustrator 22.0.1, SVG Export Plug-In . SVG Version: 6.00 Build 0)  -->
<svg version="1.1" id="Layer_1" xmlns="http://www.w3.org/2000/svg" xmlns:xlink="http://www.w3.org/1999/xlink" x="0px" y="0px"
	 viewBox="0 0 414.6 152.9" style="enable-background:new 0 0 414.6 152.9;" xml:space="preserve">
<style type="text/css">
	.st0{fill:none;stroke:#469E74;stroke-width:3;stroke-miterlimit:10;}
	.st1{fill:#EC7068;}
	.st2{font-family:'FiraSans-Bold';}
	.st3{font-size:29.131px;}
	.st4{fill:#FFFFFF;}
	.st5{fill:none;stroke:#FBC746;stroke-width:7;stroke-linecap:round;stroke-miterlimit:10;}
</style>
<path id="Button_18_" class="st0" d="M401.2,123.9c0,4-3.3,7.3-7.3,7.3H20.7c-4,0-7.3-3.3-7.3-7.3V29.2c0-4,3.3-7.3,7.3-7.3h373.2
	c4,0,7.3,3.3,7.3,7.3V123.9z"/>
<text transform="matrix(1 0 0 1 131.7407 89.0764)" class="st1 st2 st3">Download now</text>
<path class="st4" d="M95.5,62.9"/>
<g>
	<path class="st1" d="M86.1,89.8h-3.2c-0.8,0-1.4-0.6-1.4-1.4v-16c0-0.8-0.6-1.4-1.4-1.4h-4.4h-4.4c-0.8,0-1.4,0.6-1.4,1.4v16
		c0,0.8-0.6,1.4-1.4,1.4h-3.2c-1.2,0-1.9,1.5-1,2.4l11.2,11.6c0.1,0.1,0.2,0.2,0.3,0.2c0.1-0.1,0.2-0.1,0.3-0.2l11.2-11.6
		C87.9,91.3,87.3,89.8,86.1,89.8z"/>
	<path class="st5" d="M56.4,88.3c-1.1,0.3-4.3,1-7.7-0.5c-0.8-0.3-5.7-2.3-6.7-7.3c-0.8-4,1.5-7.3,2.4-8.4c1.1-1.3,2.4-2.2,3.4-2.7
		c1.1-0.5,1.8-1.6,1.9-2.8c0-0.2,0-0.3,0.1-0.5c0.2-1.3,1-6.2,4.7-10.5c5.7-6.5,13.9-6.6,14.6-6.6c9,0,14.4,6.4,15.4,7.7
		c2,2.6,3.1,5.2,3.7,7.2c0.3,0.9,1.3,1.4,2.1,1l0,0c1.2-0.5,4.5-1.9,7.7-1.7c3.3,0.2,7,2,9.2,5.3c3,4.5,2.3,10.4-0.6,14.5
		c-3,4.2-8.3,6.4-13.6,5.4"/>
</g>
</svg>
