<?xml version="1.0" encoding="utf-8"?>
<!-- Generator: Adobe Illustrator 22.0.1, SVG Export Plug-In . SVG Version: 6.00 Build 0)  -->
<svg version="1.1" id="Layer_1" xmlns="http://www.w3.org/2000/svg" xmlns:xlink="http://www.w3.org/1999/xlink" x="0px" y="0px"
	 viewBox="0 0 519.3 372" style="enable-background:new 0 0 519.3 372;" xml:space="preserve">
<style type="text/css">
	.st0{opacity:0.3;fill:#C8D6D6;}
	.st1{fill:none;stroke:#CE5F5F;stroke-width:5;stroke-linecap:round;stroke-miterlimit:10;}
	.st2{fill:none;stroke:#077C82;stroke-width:5;stroke-linecap:round;stroke-miterlimit:10;}
	.st3{fill:#0B8484;stroke:#058A91;stroke-miterlimit:10;}
	.st4{fill:#F3EED0;}
	.st5{fill:#EAE3BE;}
	.st6{fill:#048F9C;}
	.st7{fill:#DD6664;stroke:#DD6664;stroke-width:3;stroke-miterlimit:10;}
	.st8{fill:none;stroke:#000000;stroke-width:3;stroke-miterlimit:10;}
	.st9{fill:#EC7068;}
	.st10{fill:#FBC746;stroke:#FBC746;stroke-width:3;stroke-miterlimit:10;}
	.st11{fill:none;stroke:#077C82;stroke-width:4;stroke-linecap:round;stroke-miterlimit:10;}
	.st12{fill:#FBC746;}
	.st13{fill:#D86464;}
	.st14{fill:#151515;stroke:#151515;stroke-width:3;stroke-linecap:round;stroke-miterlimit:10;}
	.st15{fill:#0F142B;}
	.st16{fill:#E57E5E;}
	.st17{fill:#EA5932;}
	.st18{opacity:0.28;}
	.st19{opacity:0.73;fill:#048F9C;}
	.st20{fill:#077C82;stroke:#077C82;stroke-width:5;stroke-linecap:round;stroke-miterlimit:10;}
	.st21{fill:#CE5F5F;stroke:#CE5F5F;stroke-width:5;stroke-linecap:round;stroke-miterlimit:10;}
</style>
<ellipse class="st0" cx="133" cy="314.9" rx="64.5" ry="9.5"/>
<ellipse class="st0" cx="373" cy="314.9" rx="64.5" ry="9.5"/>
<path class="st1" d="M298.2,163c-4.5,5.5-7.1,12.4-8.9,19.2c-5.6,20.3-5.7,42.1-0.4,62.4"/>
<path class="st1" d="M459.9,166.9c8.2,9.7,12.5,22.3,13.5,35s-1.2,25.4-4.6,37.6"/>
<path class="st2" d="M189.4,164.7c5.9,3.4,9.4,9.8,11.7,16.2c5.7,16.3,5.1,33.9,4.5,51.2"/>
<path class="st3" d="M107,239.1h-8.5v71.2c0,2.8,2.3,5.1,5.1,5.1h3.5h5.1c2,0,3.7-1.7,3.7-3.7v0c0-2-1.7-3.7-3.7-3.7h-2.9
	c-1.2,0-2.2-1-2.2-2.2V239.1z"/>
<path class="st3" d="M146.1,305.8v-66.7h-8.5v71.2c0,2.8,2.3,5.1,5.1,5.1h8.5c2,0,3.7-1.7,3.7-3.7v0c0-2-1.7-3.7-3.7-3.7h-2.8
	C147.1,308,146.1,307.1,146.1,305.8z"/>
<path class="st4" d="M122.4,34.9c-0.4-1.1-3.5-5.7-4.5-6.4c-1.9-1.2-4.1-1.8-6.3-2.2c-1.9-0.3-4.1-0.6-5.7,0.6
	c-0.8,0.6-1.4,1.4-1.8,2.3c-1.2,2.5-1.5,5.5-0.7,8.3c0.8,2.7,2.5,5.1,4.9,6.7"/>
<path class="st5" d="M138.3,29.8c-0.4-1.1-3.5-7.4-4.5-8.1c-1.9-1.2-4.1-1.8-6.3-2.2c-1.9-0.3-4.1-0.6-5.7,0.6
	c-0.8,0.6-1.4,1.4-1.8,2.3c-1.2,2.5-1.5,5.5-0.7,8.3c0.8,2.7,2.5,5.1,4.9,6.7"/>
<path class="st5" d="M106.8,40.3c-1.9-2.7-4.9-4.6-8.2-5c-1.8-0.3-4,0-5.1,1.5c-0.5,0.6-0.7,1.4-0.9,2.2c-0.8,4,0.3,8.4,2.9,11.5"/>
<path class="st4" d="M95.1,46.8c-0.4-1.1-1.3-2-2.3-2.7c-1.9-1.2-4.1-1.8-6.3-2.2c-1.9-0.3-4.1-0.6-5.7,0.6
	c-0.8,0.6-1.4,1.4-1.8,2.3c-1.2,2.5-1.5,5.5-0.7,8.3c0.8,2.7,2.5,5.1,4.9,6.7"/>
<path class="st5" d="M82,61.3c-2-2.6-5.6-2.9-8.9-3c-1.4,0-2.8-0.1-4,0.6c-1.7,1-2.3,3.2-2.6,5.2c-0.2,1.5-0.4,3.1-0.1,4.6
	c0.7,3.6,3.6,6.4,6.5,8.7"/>
<path class="st4" d="M73.6,86.7c0-0.9-0.9-1.4-1.7-1.7c-1.3-0.5-2.7-1-4.1-1.3c-1.3-0.3-2.7-0.5-4.1-0.3c-2.4,0.4-4.6,2-6,4
	c-2.2,3.2-2.7,7.4-1.3,11c1.4,3.6,4.5,6.4,8.2,7.4"/>
<path class="st5" d="M65.6,108c-3-1.3-6.1-2.6-9.3-2.4c-3.9,0.2-7.6,2.9-9,6.5c-0.6,1.4-0.8,2.9-1,4.4c-0.2,2.3-0.2,4.8,0.8,6.9
	c1.1,2.2,3.3,3.7,5.6,4.6c2.3,0.9,4.8,1.1,7.2,1.4"/>
<path class="st4" d="M64.7,130.8c-2.5-0.9-5.2-1.5-7.9-1.4c-2.7,0.1-5.4,1.2-7.1,3.3c-1.8,2.2-2.2,5.2-2.5,8
	c-0.2,1.8-0.4,3.6,0.1,5.4c0.8,2.9,3.3,5.1,6,6.2s5.8,1.5,8.8,1.7"/>
<path class="st5" d="M63.7,155.8c-2.6-0.1-5.3-0.2-7.9-0.3c-1.5,0-3,0-4.4,0.7c-2.6,1.3-3.6,4.5-3.9,7.3c-0.5,3.9-0.3,8.2,2.1,11.3
	c1.6,2.1,4.1,3.3,6.6,4c2.5,0.7,5.2,0.8,7.8,1"/>
<path class="st4" d="M65.1,181.6c-2.8-0.2-5.5-0.3-8.3-0.5c-0.7,0-1.4-0.1-2.1,0.2c-0.6,0.2-1,0.6-1.5,1c-3.8,3.6-5.4,9.4-4,14.5
	c0.7,2.7,2.4,5.3,4.8,6.8c2.4,1.5,5.4,1.7,8.3,1.9c2,0.1,4.1,0.3,6.1,0.4"/>
<path class="st5" d="M67.1,182.5c-1.2,0.7-2.4,1.4-3.7,2.1c-1.5,0.9-3,1.8-4,3.2c-0.6,0.9-0.9,1.9-1.1,2.9
	c-0.7,3.8,0.1,7.9,2.1,11.2c0.9,1.5,1.9,2.8,3.4,3.7c2.9,1.8,6.5,1.4,9.8,1"/>
<path class="st6" d="M68.7,83.7c7.4-14.2,22.1-42.5,54.8-54.4c6.8-2.5,34.6-11.6,65,1.9c35.5,15.9,46.8,50,47.4,55.1
	c10.1,75.3-48,107.4-54.7,118.8c-6.9,11.9-7.4,26.7-14.5,38.3c-5.9,9.7-21.8,22-24.4,22.4c-4.2,0.7-27.7,6.2-43.3-2.8
	c-11-6.4-10.9-11.8-18.8-36.5C70.9,197.5,41.6,135.7,68.7,83.7z"/>
<path class="st4" d="M83,97.1c4.3-8.3,8.8-16.8,14.8-22.6c7.7-7.5,17.2-10,26.4-11.7c13.8-2.7,27.8-4.2,41.7-4.5
	c10.4-0.2,21,0.2,31.1,3.8c6.9,2.5,13.8,6.7,18.4,14.4c3.3,5.4,5.2,12.3,6.2,19.3c2.3,16.4-1.3,35.4-11.2,44.3
	c-2.8,2.5-5.9,4.1-9,5.5c-17.7,8-36.5,10.6-55.1,10c-15.7-0.5-31.4-3.2-46.2-10.7c-5.1-2.6-10.1-5.8-13.9-11.3
	c-6.7-9.8-7.8-26.3-2.5-37.7"/>
<path class="st4" d="M136,21.4c-3.8,4.1-2.6,10.9,2.4,13.2c0.9,0.4,1.9,0.7,3.1,0.9c7.3,1.2,10.4-1.2,11.8-4
	c1.3-2.7,0.9-5.9-0.9-8.3l-0.2-0.3c-1.1-1.4-2.5-2.5-4.2-3l-3.7-1.1c-2.8-0.8-5.8,0-7.8,2.2L136,21.4z"/>
<path class="st7" d="M392.7,238.1h8.5v71.2c0,2.8-2.3,5.1-5.1,5.1h-3.5h-5.1c-2,0-3.7-1.7-3.7-3.7l0,0c0-2,1.7-3.7,3.7-3.7h2.9
	c1.2,0,2.2-1,2.2-2.2V238.1z"/>
<path class="st7" d="M353.5,304.9v-66.7h8.5v71.2c0,2.8-2.3,5.1-5.1,5.1h-8.5c-2,0-3.7-1.7-3.7-3.7l0,0c0-2,1.7-3.7,3.7-3.7h2.8
	C352.6,307.1,353.5,306.1,353.5,304.9z"/>
<path class="st8" d="M147.5,247.1"/>
<path class="st9" d="M455.2,118.2c7.1-5.4,9.6-15.9,5.8-23.9c-0.7-1.4-1.5-2.7-2.6-3.8c-3.4-3.6-8.9-4.8-13.7-3.8
	c-4.9,1-9.1,4-12.4,7.7"/>
<path class="st9" d="M289.6,132.4c12.8-23.4,33.4-33.6,42.1-37.8c36-17.3,90.6-18.1,120.6,15.4c17.3,19.4,20.2,43.3,21.1,50.8
	c1.3,10.8,4,33.5-9.4,54.4c-10.5,16.3-25.5,23-37.5,28.4c-42,18.7-81.7,6.4-90.1,3.5c-15.7-5.3-32.3-10.8-44.5-27.2
	C272.8,194.2,275.8,157.5,289.6,132.4z"/>
<path class="st9" d="M303.1,115.2c-6-6.5-6.7-17.4-1.4-24.6c0.9-1.2,2-2.4,3.2-3.3c4-2.9,9.6-3.2,14.2-1.3c4.6,1.9,8.3,5.6,10.8,9.8
	"/>
<ellipse class="st10" cx="309.9" cy="198.3" rx="18.4" ry="20"/>
<circle class="st10" cx="298.5" cy="161.5" r="11.4"/>
<ellipse class="st10" cx="338.4" cy="227.5" rx="7.1" ry="7.4"/>
<ellipse class="st10" cx="452.3" cy="152.9" rx="10.4" ry="8.9"/>
<path class="st11" d="M97.9,163.8c-1,5.2,0.1,10.7,2.9,15.2"/>
<path class="st11" d="M115.2,175.7c-0.8,5.5-0.4,11.1,1.1,16.4"/>
<path class="st11" d="M107.2,196.9c-1,6.3,2.1,12.4,5,18.1"/>
<path class="st11" d="M128.7,196.6c0.1,5.6,0.3,11.1,0.4,16.7"/>
<path class="st11" d="M149.1,176.3c0.9,4,1.4,8.1,1.6,12.1c0,0.2,0,0.5-0.2,0.6c-0.2,0.1-0.4-0.2-0.2-0.3"/>
<path class="st11" d="M143.4,213.9c0.9-4.5,1.4-9,1.5-13.6"/>
<path class="st11" d="M161.3,211.8c0.2-1,0.8-1.9,1.4-2.8c1.8-3.1,2.1-6.9,2.4-10.6"/>
<path class="st11" d="M167.4,188.1c3.8-3.4,6.3-8.1,7.2-13.1"/>
<path class="st11" d="M108.6,57.9c-1.6-3.6-2.3-7.6-1.9-11.5"/>
<path class="st11" d="M128.1,53.7c-1.3-3.7-1.7-7.6-1.4-11.5"/>
<path class="st11" d="M151.1,51.9c-0.5-4.5-0.3-9,0.5-13.4"/>
<path class="st11" d="M171.1,51.1c-0.5-3.5-0.3-7.2,0.6-10.7"/>
<path class="st11" d="M188.4,52.4c-0.6-3,0.1-6.2,1.8-8.7"/>
<path class="st11" d="M102.9,83c3.6-4.5,9.6-7,15.3-6.4"/>
<path class="st11" d="M187.1,78.3c2.7-0.6,5.4-0.7,8.1-0.2c2,0.4,4.1,1.1,5.6,2.5"/>
<path class="st11" d="M131.8,179.7c-0.9-4.5-1.4-9-1.5-13.6"/>
<path class="st12" d="M463.6,215.6c-10.5,16-25.2,22.5-37.1,27.8c-7.1,3.2-13.7-13-14.4-17.1c-0.6-3.9-0.2-8,1.7-11.4
	c10-17.8,40.2-17.7,49.6,0"/>
<g>
	<path class="st13" d="M308.6,106.5l12.2-10.4c-1.6-3.2-5.5-5.3-9.1-5.5c-1.1-0.1-2.2,0-3.2,0.4c-3.2,1.1-5.1,5.1-3.9,8.3
		c0.9,2.6,3.4,4.6,3.6,7.3"/>
	<path class="st13" d="M452.5,109.4L440,98.6c1.6-3.4,5.6-5.5,9.3-5.7c1.1-0.1,2.2,0,3.3,0.4c3.3,1.2,5.2,5.2,4,8.6
		c-0.9,2.7-3.5,4.7-3.7,7.6"/>
</g>
<path class="st14" d="M426,132.4c2.1-1,4.2-2,6.3-3c0.6-0.3,1.2-0.6,1.9-0.9"/>
<path class="st14" d="M423.9,128.7c1.9-1.3,3.9-2.6,5.8-3.9c0.6-0.4,1.1-0.8,1.7-1.1"/>
<path class="st14" d="M421.9,125.1c1.7-1.6,3.4-3.2,5.1-4.8c0.5-0.5,1-0.9,1.5-1.4"/>
<circle class="st4" cx="412.6" cy="135.9" r="15.7"/>
<circle class="st15" cx="412.6" cy="135.9" r="9.6"/>
<circle class="st4" cx="418.1" cy="130.5" r="4.2"/>
<path class="st14" d="M330.5,131.8c-2.1-1-4.2-2-6.3-3c-0.6-0.3-1.2-0.6-1.9-0.9"/>
<path class="st14" d="M332.6,128.1c-1.9-1.3-3.9-2.6-5.8-3.9c-0.6-0.4-1.1-0.8-1.7-1.1"/>
<path class="st14" d="M334.6,124.5c-1.7-1.6-3.4-3.2-5.1-4.8c-0.5-0.5-1-0.9-1.5-1.4"/>
<circle class="st4" cx="343.9" cy="135.4" r="15.7"/>
<circle class="st15" cx="343.9" cy="135.4" r="9.6"/>
<circle class="st4" cx="348.1" cy="129.9" r="4.2"/>
<g>
	<path class="st15" d="M155.1,141c-11.3,0-21.4-5-24-11.8l48.1,0C176.4,136.1,166.4,141,155.1,141z"/>
	<path class="st15" d="M171.8,132.7c-3.7,2.7-9.5,4.8-16.7,4.8s-13-2.1-16.7-4.8H171.8 M179.3,125.7h-48.4c-2.3,0-4,2.3-3.2,4.5
		c3,8.2,14.1,14.3,27.4,14.3c13.3,0,24.4-6.1,27.4-14.3C183.3,128,181.6,125.7,179.3,125.7L179.3,125.7z"/>
</g>
<path class="st16" d="M173.1,140.2c-4.9,2.7-11.1,4.3-17.9,4.3c-10.2,0-19.1-3.6-24-9c0.9-1.8,2.7-3,4.7-3.6c1.9-0.7,4-0.8,6-0.9
	c4.7-0.2,9.5-0.2,14,0.9c5.6,1.4,10.7,4.2,15.7,7.1"/>
<g>
	<path class="st15" d="M398.6,183.5c0.9,0,1.6,0.7,1.5,1.6c-0.7,7.1-1.6,14.4-4.7,20.8c-3.3,7-9.8,13-17.5,13.5
		c-8.4,0.6-16.2-5.4-20.1-12.9c-3.6-7.1-4.1-14.9-4.4-22.8c0-0.8,0.6-1.4,1.4-1.4L398.6,183.5C398.6,183.5,398.6,183.5,398.6,183.5
		L398.6,183.5z"/>
	<path class="st17" d="M395.4,206.5c-3.3,7-9.8,13-17.5,13.5c-8.4,0.6-16.2-5.4-20.1-12.9c2.6-3.2,7.2-4.3,11.3-4.8
		c1.9-0.2,3.7-0.4,5.6-0.5c3.6-0.3,7.3-0.5,10.8,0.1c3.6,0.6,7.1,2.1,9.5,4.8"/>
	<g class="st18">
		<path class="st15" d="M358.6,187.5l36.1,0.9c-0.7,5.6-1.6,11.1-3.9,15.8c-2.9,6.3-8.2,10.6-13.4,11c-0.3,0-0.6,0-0.8,0
			c-4.5,0-10.7-3.2-14.3-10.4C359.7,199.6,359,193.8,358.6,187.5 M354.8,182.4c-0.8,0-1.4,0.6-1.4,1.4c0.3,8.1,0.7,16,4.4,23.2
			c3.7,7.3,10.9,13.2,18.8,13.2c0.4,0,0.8,0,1.2,0c7.7-0.6,14.2-6.7,17.5-13.8c3.1-6.6,4-14,4.7-21.2c0.1-0.9-0.6-1.6-1.4-1.6
			c0,0,0,0-0.1,0c0,0,0,0,0,0c0,0,0,0,0,0L354.8,182.4C354.9,182.4,354.9,182.4,354.8,182.4L354.8,182.4z"/>
	</g>
</g>
<g class="st18">
	<g>
		<path class="st15" d="M176.6,130.7c-3.2,4.7-10.9,8.8-21.5,8.8s-18.3-4.1-21.5-8.8H176.6 M179.3,125.7h-48.4c-2.3,0-4,2.3-3.2,4.5
			c3,8.2,14.1,14.3,27.4,14.3c13.3,0,24.4-6.1,27.4-14.3C183.3,128,181.6,125.7,179.3,125.7L179.3,125.7z"/>
	</g>
</g>
<circle class="st19" cx="114.2" cy="102.7" r="11.7"/>
<circle class="st15" cx="114.2" cy="102.7" r="7.2"/>
<circle class="st4" cx="117.3" cy="98.6" r="3.2"/>
<circle class="st19" cx="193.8" cy="103.1" r="11.7"/>
<circle class="st15" cx="193.8" cy="103.1" r="7.2"/>
<circle class="st4" cx="197" cy="99.1" r="3.2"/>
<path class="st2" d="M74.8,165.6c-9.8,28.9-8.7,61.4,3,89.6"/>
<circle class="st20" cx="78" cy="255.2" r="3.9"/>
<circle class="st20" cx="205.7" cy="232.5" r="3.9"/>
<circle class="st1" cx="288.8" cy="244.2" r="3.9"/>
<circle class="st21" cx="468.3" cy="239.8" r="3.9"/>
</svg>
