<?xml version="1.0" encoding="utf-8"?>
<!-- Generator: Adobe Illustrator 22.0.1, SVG Export Plug-In . SVG Version: 6.00 Build 0)  -->
<svg version="1.1" id="Layer_1" xmlns="http://www.w3.org/2000/svg" xmlns:xlink="http://www.w3.org/1999/xlink" x="0px" y="0px"
	 viewBox="0 0 1016.6 257.6" style="enable-background:new 0 0 1016.6 257.6;" xml:space="preserve">
<style type="text/css">
	.st0{fill:#F2EADC;stroke:#696866;stroke-width:8;stroke-miterlimit:10;}
	.st1{fill:#F3EED1;}
	.st2{fill:#EAE3BE;}
	.st3{fill:#0F909C;}
	.st4{fill:#0A7D83;}
	.st5{opacity:0.73;enable-background:new    ;}
	.st6{fill:#13162A;}
	.st7{fill:#EE7169;}
	.st8{fill:#FBC746;}
	.st9{fill:#D86565;}
	.st10{fill:#151515;}
</style>
<g>
	<path class="st0" d="M239.1,239.1"/>
</g>
<g>
	<path class="st1" d="M212.2,65.4c-1-2.7-8.4-13.7-10.7-15.3c-4.5-3-9.8-4.2-15-5.2c-4.6-0.9-9.8-1.3-13.6,1.4
		c-1.9,1.4-3.3,3.5-4.3,5.6c-2.9,6.1-3.5,13.3-1.7,19.8c1.9,6.5,6.1,12.3,11.7,16.1"/>
</g>
<g>
	<path class="st2" d="M250.5,53c-1-2.7-8.4-17.8-10.7-19.4c-4.5-3-9.8-4.2-15-5.2c-4.6-0.9-9.8-1.3-13.6,1.4
		c-1.9,1.4-3.3,3.5-4.3,5.6c-2.9,6.1-3.5,13.3-1.7,19.8c1.9,6.5,6.1,12.3,11.7,16.1"/>
</g>
<g>
	<path class="st2" d="M174.7,78.3c-4.5-6.5-11.9-11-19.7-12.1c-4.5-0.6-9.5,0-12.3,3.6c-1.2,1.6-1.7,3.5-2.2,5.4
		c-2,9.5,0.6,20.1,6.9,27.6"/>
</g>
<g>
	<path class="st1" d="M146.7,100.4c-1-2.7-3-4.9-5.5-6.5c-4.5-3-9.8-4.2-15-5.2c-4.6-0.9-9.8-1.3-13.6,1.4c-1.9,1.4-3.3,3.5-4.3,5.6
		c-2.9,6.1-3.5,13.3-1.7,19.8c1.9,6.5,6.1,12.3,11.7,16.1"/>
</g>
<g>
	<path class="st2" d="M115,135c-4.6-6.2-13.6-6.9-21.4-7.2c-3.3-0.1-6.8-0.1-9.7,1.6c-4.2,2.5-5.6,7.7-6.2,12.4
		c-0.6,3.6-0.9,7.5-0.3,11.1c1.6,8.7,8.5,15.3,15.5,20.8"/>
</g>
<g>
	<path class="st1" d="M90.4,176.5c0-1.7-1.9-2.9-3.5-3.6c-2.7-1.2-5.8-2-8.7-2.7c-2.9-0.6-5.8-1-8.7-0.6c-5.2,0.7-9.7,4.2-12.6,8.5
		c-4.6,6.7-5.6,15.6-2.7,23.3c2.9,7.5,9.5,13.6,17.5,15.6"/>
</g>
<g>
	<path class="st2" d="M38,258.6h25.7l9.7-37.2c-6.4-2.7-12.9-5.5-19.7-5.1c-8.2,0.4-16.1,6.1-19.1,13.7c-1.2,2.9-1.7,6.1-2,9.3
		c-0.6,4.9-0.4,10.1,1.7,14.6C35.4,255.7,36.6,257.3,38,258.6z"/>
</g>
<g>
	<path class="st3" d="M487.1,258.6c3.5-45.9-7.6-91.2-37.1-130.6C410,74.5,344.8,42.4,277.8,45.3C188.6,49.2,118.9,111,82.9,188.8
		c-10.2,22.3-17.7,45.9-22.2,69.9H487.1z"/>
</g>
<g>
	<path class="st1" d="M111.2,258.6h340.1c1.4-13.5,1.1-27.5-0.7-40.7c-2.3-16.9-7.1-33.4-14.9-46.4c-11.1-18.5-27.6-28.6-44.3-34.6
		c-24.3-8.7-49.6-9.7-74.6-9.1c-33.5,0.7-67,4.3-100.2,10.7c-22.3,4.3-45.1,10.3-63.6,28.2c-14.5,14-25.2,34.3-35.6,54.2l1.7-2.7
		C113.7,230.1,111.1,244.4,111.2,258.6z"/>
</g>
<g>
	<path class="st1" d="M245,32.7c-9.3,9.8-6.4,26.3,5.8,31.7c2.2,1,4.6,1.7,7.5,2.2c17.5,3,25-3,28.3-9.7c3.2-6.5,2.2-14.3-2-20.1
		l-0.6-0.7c-2.5-3.5-6.1-5.9-10.1-7.1l-9-2.6c-6.7-1.9-13.9,0.1-18.8,5.2L245,32.7z"/>
</g>
<g>
	<path class="st4" d="M179.1,126.1c-1.5,0-3-0.9-3.6-2.3c-4.2-9.2-5.9-19.7-4.8-29.7c0.2-2.2,2.2-3.8,4.4-3.5
		c2.2,0.2,3.8,2.2,3.5,4.4c-0.9,8.6,0.5,17.7,4.1,25.5c0.9,2,0,4.4-2,5.3C180.2,126,179.6,126.1,179.1,126.1z"/>
</g>
<g>
	<path class="st4" d="M225.9,116c-1.7,0-3.2-1-3.8-2.7c-3.3-9.5-4.4-19.3-3.5-29.3c0.2-2.2,2.2-3.8,4.4-3.6c2.2,0.2,3.8,2.2,3.6,4.4
		c-0.8,8.8,0.2,17.6,3.1,26c0.7,2.1-0.4,4.4-2.5,5.1C226.8,115.9,226.4,116,225.9,116z"/>
</g>
<g>
	<path class="st4" d="M281.2,111.8c-2,0-3.8-1.5-4-3.6c-1.2-11.2-0.8-22.4,1.4-33.4c0.4-2.2,2.5-3.6,4.7-3.2
		c2.2,0.4,3.6,2.5,3.2,4.7c-2,10.2-2.4,20.7-1.3,31.1c0.2,2.2-1.4,4.2-3.5,4.4C281.5,111.8,281.3,111.8,281.2,111.8z"/>
</g>
<g>
	<path class="st4" d="M329.3,109.6c-1.9,0-3.6-1.4-3.9-3.4c-1.4-8.9-0.8-18.3,1.5-27.2c0.6-2.1,2.7-3.4,4.9-2.9
		c2.1,0.6,3.4,2.8,2.9,4.9c-2.1,7.9-2.5,16.2-1.4,24c0.3,2.2-1.2,4.2-3.4,4.6C329.7,109.6,329.5,109.6,329.3,109.6z"/>
</g>
<g>
	<path class="st4" d="M371,112.9c-1.9,0-3.5-1.3-3.9-3.2c-1.7-8.3,0.2-17,5-24c1.3-1.8,3.7-2.3,5.6-1c1.8,1.3,2.3,3.7,1,5.6
		c-3.6,5.2-4.9,11.7-3.7,17.9c0.4,2.2-1,4.3-3.1,4.7C371.5,112.9,371.2,112.9,371,112.9z"/>
</g>
<g>
	<path class="st3" d="M165.3,191.2c-0.9,0-1.8-0.3-2.5-0.9c-1.7-1.4-2-3.9-0.6-5.6c9.5-11.9,25.4-18.5,40.5-16.8
		c2.2,0.3,3.8,2.2,3.5,4.4c-0.3,2.2-2.2,3.8-4.4,3.5c-12.4-1.4-25.4,4-33.3,13.9C167.7,190.6,166.5,191.2,165.3,191.2z"/>
</g>
<g>
	<path class="st3" d="M400.6,185.4c-1,0-1.9-0.3-2.7-1.1c-2.6-2.4-6.4-4.1-11.4-4.9c-5.8-1-11.8-0.8-17.9,0.5
		c-2.2,0.5-4.3-0.9-4.8-3c-0.5-2.2,0.9-4.3,3-4.8c7.2-1.6,14.3-1.8,21.1-0.6c6.5,1.1,11.7,3.5,15.5,6.9c1.6,1.5,1.7,4,0.2,5.7
		C402.8,184.9,401.7,185.4,400.6,185.4z"/>
</g>
<g class="st5">
	<path class="st3" d="M177.8,258.6h29.5c8.1-5,13.5-13.9,13.5-24c0-15.6-12.6-28.2-28.2-28.2c-15.6,0-28.2,12.6-28.2,28.2
		C164.3,244.8,169.7,253.7,177.8,258.6z"/>
</g>
<g>
	<circle class="st6" cx="192.5" cy="234.6" r="17.4"/>
</g>
<g>
	<circle class="st1" cx="200" cy="224.8" r="7.7"/>
</g>
<g class="st5">
	<path class="st3" d="M367.7,258.6h32.5c7.2-5.1,11.9-13.5,11.9-23c0-15.6-12.6-28.2-28.2-28.2s-28.2,12.6-28.2,28.2
		C355.8,245.1,360.5,253.5,367.7,258.6z"/>
</g>
<g>
	<circle class="st6" cx="384" cy="235.6" r="17.4"/>
</g>
<g>
	<circle class="st1" cx="391.5" cy="225.9" r="7.7"/>
</g>
<g>
	<path class="st7" d="M919.9,165.1c16.5-12.4,22.4-37,13.3-55.5c-1.6-3.2-3.5-6.2-5.9-8.8c-8-8.4-20.5-11.3-31.8-9
		c-11.3,2.3-21.1,9.4-28.8,17.9"/>
</g>
<g>
	<path class="st7" d="M961.3,258.6c-2.8-21.7-11.5-71.5-48.2-112.6c-69.6-77.8-196.5-75.9-280-35.7c-20.2,9.8-68,33.5-97.8,87.8
		c-9.9,18.1-17.4,38.8-21.7,60.5H961.3z"/>
</g>
<g>
	<path class="st7" d="M566.6,158.2c-14-15.2-15.5-40.3-3.3-57.1c2-2.9,4.5-5.5,7.4-7.7c9.3-6.8,22.3-7.4,32.8-3.2
		c10.6,4.2,19.2,12.9,25.2,22.7"/>
</g>
<g>
	<path class="st8" d="M581.4,259.2c-3.1-11.1-13.3-19.2-25.3-19.2s-22.2,8.1-25.3,19.2H581.4z"/>
</g>
<g>
	<path class="st8" d="M932.1,258.6c3.3-3.5,5.3-8,5.3-12.8c0-11.4-10.9-20.7-24.3-20.7s-24.3,9.3-24.3,20.7c0,4.8,2,9.3,5.3,12.8
		H932.1z"/>
</g>
<g>
	<g>
		<path class="st9" d="M579.5,138.1l28.3-24.1c-3.8-7.5-12.7-12.3-21-12.9c-2.5-0.1-5.1,0-7.4,0.9c-7.4,2.6-11.7,11.7-9.1,19.2
			c2.2,6.1,8,10.6,8.4,16.9"/>
	</g>
	<g>
		<path class="st9" d="M913.7,144.6l-29.1-24.9c3.8-7.8,13-12.7,21.5-13.3c2.6-0.1,5.2,0,7.7,0.9c7.5,2.7,12,12.1,9.4,20
			c-2.2,6.2-8.1,11-8.7,17.5"/>
	</g>
</g>
<g>
	<path class="st10" d="M852.1,198.1c4.9-2.3,9.7-4.6,14.6-7.1c1.4-0.7,2.9-1.4,4.3-2"/>
	<path class="st10" d="M852.1,202.1c-1.5,0-2.9-0.8-3.6-2.3c-0.9-2-0.1-4.4,1.9-5.3c5-2.3,9.7-4.6,14.5-7c1.5-0.7,3-1.5,4.6-2.2
		c2.1-0.8,4.4,0.2,5.2,2.2c0.8,2.1-0.2,4.4-2.2,5.2c-1.3,0.5-2.7,1.2-4,1.9c-4.9,2.4-9.7,4.8-14.7,7.1
		C853.2,202,852.7,202.1,852.1,202.1z"/>
</g>
<g>
	<path class="st10" d="M847.2,189.6c4.5-3,9-6.1,13.4-9c1.3-0.9,2.6-1.7,3.9-2.6"/>
	<path class="st10" d="M847.2,193.6c-1.3,0-2.5-0.6-3.3-1.8c-1.2-1.8-0.8-4.3,1.1-5.6c4.4-3,9-6.1,13.5-9l3.9-2.6
		c1.8-1.2,4.3-0.7,5.5,1.1c1.2,1.8,0.7,4.3-1.1,5.5l-3.9,2.6c-4.5,2.9-9,6-13.4,8.9C848.7,193.3,847.9,193.6,847.2,193.6z"/>
</g>
<g>
	<path class="st10" d="M842.7,181c3.9-3.6,8-7.4,11.9-11c1.2-1,2.3-2.2,3.5-3.2"/>
	<path class="st10" d="M842.7,185c-1.1,0-2.1-0.4-2.9-1.3c-1.5-1.6-1.4-4.2,0.2-5.7l11.9-11.1c0.5-0.5,1.1-1,1.6-1.5
		c0.6-0.6,1.2-1.1,1.8-1.7c1.7-1.5,4.2-1.3,5.6,0.4c1.5,1.7,1.3,4.2-0.4,5.6c-0.5,0.5-1.1,1-1.6,1.5c-0.6,0.6-1.2,1.1-1.8,1.6
		l-11.8,11C844.6,184.7,843.7,185,842.7,185z"/>
</g>
<g>
	<circle class="st1" cx="821" cy="206.3" r="36.3"/>
</g>
<g>
	<circle class="st6" cx="821" cy="206.3" r="22.4"/>
</g>
<g>
	<circle class="st1" cx="833.7" cy="193.7" r="9.8"/>
</g>
<g>
	<path class="st10" d="M630.4,196.8c-4.9-2.3-9.7-4.6-14.6-7.1c-1.4-0.7-2.9-1.4-4.3-2"/>
	<path class="st10" d="M630.4,200.8c-0.6,0-1.2-0.1-1.7-0.4c-5-2.3-9.8-4.7-14.7-7.1c-1.4-0.7-2.7-1.4-4-1.9c-2.1-0.8-3-3.1-2.2-5.2
		c0.8-2.1,3.1-3,5.2-2.2c1.6,0.6,3.1,1.4,4.6,2.2c4.8,2.4,9.6,4.7,14.5,7c2,0.9,2.9,3.3,1.9,5.3
		C633.3,199.9,631.9,200.8,630.4,200.8z"/>
</g>
<g>
	<path class="st10" d="M635.2,188.3c-4.5-3-9-6.1-13.4-9c-1.3-0.9-2.6-1.7-3.9-2.6"/>
	<path class="st10" d="M635.1,192.3c-0.8,0-1.5-0.2-2.2-0.7l0,0c-4.4-3-8.9-6-13.3-8.9l-4-2.6c-1.8-1.2-2.3-3.7-1.1-5.5
		c1.2-1.8,3.7-2.3,5.5-1.1l3.9,2.6c4.5,2.9,9,6,13.4,9c1.8,1.2,2.3,3.7,1.1,5.6C637.7,191.6,636.4,192.3,635.1,192.3z"/>
</g>
<g>
	<path class="st10" d="M639.8,179.7c-3.9-3.6-8-7.4-11.9-11c-1.2-1-2.3-2.2-3.5-3.2"/>
	<path class="st10" d="M639.8,183.7c-1,0-1.9-0.4-2.7-1.1l-11.8-11c-0.6-0.5-1.2-1.1-1.8-1.6c-0.5-0.5-1.1-1-1.6-1.5
		c-1.7-1.5-1.8-4-0.4-5.6c1.5-1.7,4-1.8,5.6-0.4c0.6,0.5,1.2,1.1,1.8,1.7c0.5,0.5,1.1,1,1.6,1.5l0.1,0.1l11.9,11
		c1.6,1.5,1.7,4,0.2,5.7C641.9,183.3,640.9,183.7,639.8,183.7z"/>
</g>
<g>
	
		<ellipse transform="matrix(0.1602 -0.9871 0.9871 0.1602 353.0233 824.9872)" class="st1" cx="661.3" cy="205" rx="36.3" ry="36.3"/>
</g>
<g>
	<circle class="st6" cx="661.3" cy="205" r="22.4"/>
</g>
<g>
	<circle class="st1" cx="671.2" cy="192.4" r="9.8"/>
</g>
</svg>
