<?xml version="1.0" encoding="utf-8"?>
<!-- Generator: Adobe Illustrator 22.0.1, SVG Export Plug-In . SVG Version: 6.00 Build 0)  -->
<svg version="1.1" id="Layer_1" xmlns="http://www.w3.org/2000/svg" xmlns:xlink="http://www.w3.org/1999/xlink" x="0px" y="0px"
	 viewBox="0 0 320.2 532.4" style="enable-background:new 0 0 320.2 532.4;" xml:space="preserve">
<style type="text/css">
	.st0{fill:#EFF4F1;}
	.st1{fill:none;stroke:#077C82;stroke-width:7;stroke-linecap:round;stroke-miterlimit:10;}
	.st2{fill:#0B8484;stroke:#0B8484;stroke-width:4;stroke-miterlimit:10;}
	.st3{fill:#F3EED0;}
	.st4{fill:#EAE3BE;}
	.st5{fill:#048F9C;}
	.st6{fill:none;stroke:#000000;stroke-width:4;stroke-miterlimit:10;}
	.st7{fill:none;stroke:#077C82;stroke-width:4;stroke-linecap:round;stroke-miterlimit:10;}
	.st8{fill:#0F142B;}
	.st9{fill:#E57E5E;}
	.st10{opacity:0.13;}
	.st11{opacity:0.73;fill:#048F9C;}
	.st12{fill:#077C82;stroke:#077C82;stroke-width:4;stroke-linecap:round;stroke-miterlimit:10;}
</style>
<ellipse class="st0" cx="141.7" cy="421.1" rx="111.5" ry="22.7"/>
<path class="st1" d="M210,261.1c6.3,3.6,10.1,10.5,12.5,17.4c6.1,17.5,5.5,36.5,4.8,55"/>
<path class="st2" d="M121.4,341h-9.2v76.6c0,3,2.4,5.5,5.5,5.5h3.7h5.5c2.2,0,4-1.8,4-4l0,0c0-2.2-1.8-4-4-4h-3.2
	c-1.3,0-2.4-1.1-2.4-2.4V341z"/>
<path class="st2" d="M163.5,412.7V341h-9.2v76.6c0,3,2.4,5.5,5.5,5.5h9.1c2.2,0,4-1.8,4-4l0,0c0-2.2-1.8-4-4-4h-3
	C164.5,415.1,163.5,414,163.5,412.7z"/>
<path class="st3" d="M137.9,121.6c-0.4-1.2-3.7-6.1-4.8-6.9c-2-1.3-4.4-1.9-6.7-2.3c-2.1-0.4-4.4-0.6-6.1,0.6
	c-0.9,0.6-1.5,1.5-1.9,2.5c-1.3,2.7-1.6,6-0.8,8.9c0.8,2.9,2.7,5.5,5.3,7.2"/>
<path class="st4" d="M155.1,116.1c-0.4-1.2-3.7-8-4.8-8.7c-2-1.3-4.4-1.9-6.7-2.3c-2.1-0.4-4.4-0.6-6.1,0.6
	c-0.9,0.6-1.5,1.5-1.9,2.5c-1.3,2.7-1.6,6-0.8,8.9c0.8,2.9,2.7,5.5,5.3,7.2"/>
<path class="st4" d="M121.2,127.3c-2-2.9-5.3-4.9-8.8-5.4c-2-0.3-4.3,0-5.5,1.6c-0.5,0.7-0.8,1.6-1,2.4c-0.9,4.3,0.3,9,3.1,12.3"/>
<path class="st3" d="M108.7,134.4c-0.4-1.2-1.4-2.2-2.5-2.9c-2-1.3-4.4-1.9-6.7-2.3c-2.1-0.4-4.4-0.6-6.1,0.6
	c-0.9,0.6-1.5,1.5-1.9,2.5c-1.3,2.7-1.6,6-0.8,8.9c0.8,2.9,2.7,5.5,5.3,7.2"/>
<path class="st4" d="M94.5,149.9c-2.1-2.8-6.1-3.1-9.6-3.2c-1.5,0-3.1-0.1-4.3,0.7c-1.9,1.1-2.5,3.5-2.8,5.6c-0.2,1.6-0.4,3.3-0.1,5
	c0.7,3.9,3.8,6.9,6.9,9.3"/>
<path class="st3" d="M85.6,177.3c0-0.9-0.9-1.5-1.8-1.8c-1.4-0.6-2.9-1-4.4-1.4c-1.4-0.3-2.9-0.5-4.4-0.3c-2.6,0.4-4.9,2.1-6.4,4.3
	c-2.3,3.4-2.9,7.9-1.4,11.8s4.9,6.9,8.9,7.9"/>
<path class="st4" d="M77,200.2c-3.2-1.4-6.5-2.8-10-2.6c-4.2,0.3-8.1,3.1-9.7,7c-0.6,1.5-0.9,3.1-1,4.7c-0.3,2.5-0.3,5.2,0.9,7.4
	c1.2,2.4,3.5,4,6,4.9s5.1,1.2,7.8,1.5"/>
<path class="st3" d="M76,224.6c-2.7-0.9-5.6-1.6-8.5-1.5s-5.8,1.3-7.6,3.5c-1.9,2.4-2.3,5.6-2.7,8.6c-0.2,1.9-0.4,3.9,0.1,5.8
	c0.8,3.1,3.5,5.5,6.5,6.7c3,1.2,6.2,1.6,9.4,1.9"/>
<path class="st4" d="M74.9,251.4c-2.8-0.2-5.6-0.2-8.5-0.3c-1.6,0-3.3,0-4.7,0.7c-2.8,1.4-3.8,4.8-4.2,7.9
	c-0.5,4.2-0.3,8.8,2.3,12.1c1.7,2.2,4.4,3.6,7.1,4.3c2.7,0.7,5.5,0.9,8.4,1"/>
<path class="st3" d="M76.4,279.2c-3-0.2-6-0.3-8.9-0.5c-0.8,0-1.5-0.1-2.2,0.2c-0.6,0.2-1.1,0.6-1.6,1.1c-4.1,3.9-5.8,10.1-4.3,15.6
	c0.8,2.9,2.6,5.7,5.2,7.3c2.6,1.6,5.8,1.8,8.9,2c2.2,0.1,4.4,0.3,6.6,0.4"/>
<path class="st4" d="M78.5,280.2c-1.3,0.8-2.6,1.5-3.9,2.3c-1.6,0.9-3.3,1.9-4.3,3.4c-0.6,0.9-0.9,2-1.1,3.1
	c-0.8,4.1,0.1,8.5,2.2,12.1c0.9,1.6,2.1,3,3.6,4c3.1,1.9,7,1.5,10.6,1.1"/>
<path class="st5" d="M80.2,174c8-15.3,23.7-45.6,58.9-58.5c7.3-2.7,37.2-12.5,69.8,2.1c38.2,17.1,50.3,53.8,51,59.2
	c10.8,80.9-51.6,115.4-58.8,127.7c-7.4,12.8-7.9,28.7-15.6,41.1c-6.4,10.4-23.4,23.6-26.2,24.1c-4.6,0.8-29.7,6.6-46.5-3.1
	c-11.8-6.8-11.7-12.7-20.2-39.2C82.6,296.3,51.2,229.9,80.2,174z"/>
<path class="st3" d="M95.6,188.4c4.7-8.9,9.5-18,15.9-24.3c8.3-8,18.5-10.7,28.4-12.6c14.9-2.9,29.8-4.5,44.8-4.8
	c11.2-0.3,22.5,0.2,33.4,4.1c7.4,2.7,14.8,7.2,19.8,15.5c3.5,5.8,5.6,13.2,6.7,20.7c2.5,17.6-1.3,38.1-12,47.6
	c-3,2.7-6.3,4.4-9.7,5.9c-19.1,8.6-39.3,11.3-59.2,10.7c-16.8-0.5-33.8-3.5-49.6-11.5c-5.4-2.8-10.9-6.2-14.9-12.1
	c-7.2-10.5-8.4-28.2-2.7-40.5"/>
<path class="st3" d="M152.6,107c-4.1,4.4-2.8,11.7,2.6,14.2c1,0.4,2.1,0.8,3.4,1c7.8,1.3,11.2-1.3,12.7-4.3c1.4-2.9,1-6.4-0.9-9
	l-0.3-0.4c-1.1-1.6-2.7-2.7-4.5-3.2l-4-1.1c-3-0.9-6.2,0-8.4,2.3L152.6,107z"/>
<path class="st6" d="M165,347.6"/>
<path class="st7" d="M111.6,260.1c-1,5.6,0.1,11.5,3.1,16.3"/>
<path class="st7" d="M130.3,272.8c-0.8,5.9-0.4,12,1.2,17.7"/>
<path class="st7" d="M121.7,295.6c-1,6.8,2.2,13.4,5.4,19.4"/>
<path class="st7" d="M144.7,295.3c0.2,6,0.3,12,0.5,17.9"/>
<path class="st7" d="M166.7,273.5c1,4.3,1.5,8.7,1.7,13c0,0.2,0,0.5-0.2,0.6c-0.2,0.1-0.5-0.3-0.2-0.3"/>
<path class="st7" d="M160.5,313.9c1-4.8,1.5-9.7,1.7-14.6"/>
<path class="st7" d="M179.8,311.7c0.2-1.1,0.9-2,1.5-3c2-3.4,2.3-7.4,2.5-11.3"/>
<path class="st7" d="M186.3,286.2c4-3.7,6.8-8.7,7.7-14.1"/>
<path class="st7" d="M123.1,146.3c-1.8-3.8-2.5-8.1-2-12.3"/>
<path class="st7" d="M144.1,141.8c-1.4-3.9-1.9-8.2-1.5-12.3"/>
<path class="st7" d="M168.8,139.9c-0.5-4.8-0.3-9.7,0.6-14.4"/>
<path class="st7" d="M190.3,138.9c-0.6-3.8-0.3-7.7,0.7-11.5"/>
<path class="st7" d="M208.9,140.4c-0.6-3.2,0.1-6.7,1.9-9.4"/>
<path class="st7" d="M117,173.2c3.9-4.9,10.3-7.5,16.5-6.9"/>
<path class="st7" d="M207.5,168.2c2.9-0.7,5.8-0.8,8.7-0.2c2.2,0.4,4.4,1.1,6,2.7"/>
<path class="st7" d="M148.1,277.1c-1-4.8-1.5-9.7-1.7-14.6"/>
<g>
	<path class="st8" d="M173.1,237.3c-13,0-24.6-5.9-27.6-14.1c-0.2-0.6,0-1.1,0.2-1.4c0.3-0.5,0.8-0.7,1.4-0.7h52
		c0.5,0,1,0.3,1.4,0.7c0.2,0.2,0.4,0.8,0.2,1.4C197.7,231.4,186.1,237.3,173.1,237.3z"/>
	<path class="st8" d="M198.6,223.1c-2.7,6.2-12.1,12.2-25.5,12.2c-13.4,0-22.8-6-25.5-12.2H198.6 M199.1,219.1h-52
		c-2.5,0-4.3,2.5-3.4,4.8c3.2,8.8,15.2,15.4,29.4,15.4s26.2-6.6,29.4-15.4C203.4,221.6,201.6,219.1,199.1,219.1L199.1,219.1z"/>
</g>
<path class="st9" d="M192.4,234.7c-5.2,2.9-12,4.6-19.3,4.6c-10.9,0-20.5-3.9-25.8-9.6c1-1.9,2.9-3.2,5-3.9c2.1-0.7,4.3-0.8,6.4-0.9
	c5-0.2,10.2-0.2,15.1,1c6,1.5,11.5,4.6,16.8,7.6"/>
<g class="st10">
	<path class="st8" d="M198.6,223.1c-2.7,6.2-12.1,12.2-25.5,12.2c-13.4,0-22.8-6-25.5-12.2H198.6 M199.1,219.1h-52
		c-2.5,0-4.3,2.5-3.4,4.8c3.2,8.8,15.2,15.4,29.4,15.4s26.2-6.6,29.4-15.4C203.4,221.6,201.6,219.1,199.1,219.1L199.1,219.1z"/>
</g>
<circle class="st11" cx="129.1" cy="194.4" r="12.6"/>
<circle class="st8" cx="129.1" cy="194.4" r="7.8"/>
<circle class="st3" cx="132.5" cy="190" r="3.4"/>
<circle class="st11" cx="214.7" cy="194.9" r="12.6"/>
<circle class="st8" cx="214.7" cy="194.9" r="7.8"/>
<circle class="st3" cx="218.1" cy="190.5" r="3.4"/>
<path class="st1" d="M86.8,262c-10.5,31.1-9.3,65.9,3.2,96.2"/>
<circle class="st12" cx="87.8" cy="358.7" r="6.6"/>
<circle class="st12" cx="227.8" cy="335.8" r="6.6"/>
<circle class="st12" cx="227.5" cy="333.9" r="4.2"/>
</svg>
