<?xml version="1.0" encoding="utf-8"?>
<!-- Generator: Adobe Illustrator 22.0.1, SVG Export Plug-In . SVG Version: 6.00 Build 0)  -->
<svg version="1.1" id="Layer_1" xmlns="http://www.w3.org/2000/svg" xmlns:xlink="http://www.w3.org/1999/xlink" x="0px" y="0px"
	 viewBox="0 0 174 152.9" style="enable-background:new 0 0 174 152.9;" xml:space="preserve">
<style type="text/css">
	.st0{fill:#FFFFFF;}
</style>
<path class="st0" d="M66.1,28.2C71.9,27.3,77,27.5,81,28c0.6,0.1,1,0.6,1,1.2v14.7c0,0.7-0.5,1.2-1.2,1.2h-7.4
	c-3.4,0-6.2,2.8-6.2,6.2v4.3c0,0.7,0.5,1.2,1.2,1.2h12.4c0.7,0,1.2,0.5,1.2,1.2v17.7c0,0.7-0.5,1.2-1.2,1.2H68.4
	c-0.7,0-1.2,0.5-1.2,1.2v46.2c0,0.7-0.5,1.2-1.2,1.2H48.4c-0.7,0-1.2-0.5-1.2-1.2V77.9c0-0.7-0.5-1.2-1.2-1.2h-8.2
	c-0.7,0-1.2-0.5-1.2-1.2V57.9c0-0.7,0.5-1.2,1.2-1.2h9.2c0.7,0,1.2-0.5,1.2-1.2V47c-0.1-2.3-0.1-9.8,5.3-14.6
	C56.8,29.5,60.5,29,66.1,28.2z"/>
</svg>
