<?xml version="1.0" encoding="utf-8"?>
<!-- Generator: Adobe Illustrator 22.0.1, SVG Export Plug-In . SVG Version: 6.00 Build 0)  -->
<svg version="1.1" id="Layer_1" xmlns="http://www.w3.org/2000/svg" xmlns:xlink="http://www.w3.org/1999/xlink" x="0px" y="0px"
	 viewBox="0 0 669.3 527.3" style="enable-background:new 0 0 669.3 527.3;" xml:space="preserve">
<style type="text/css">
	.st0{fill:none;stroke:#ED7068;stroke-width:8;stroke-linecap:round;stroke-miterlimit:10;}
	.st1{fill:none;stroke:#FAC645;stroke-width:8;stroke-linecap:round;stroke-miterlimit:10;}
	.st2{fill:none;stroke:#0A8E9B;stroke-width:8;stroke-linecap:round;stroke-miterlimit:10;}
	.st3{fill:none;stroke:#0A8E9B;stroke-width:8;stroke-miterlimit:10;}
	.st4{fill:#ED7068;stroke:#ED7068;stroke-miterlimit:10;}
	.st5{fill:#ED7068;}
</style>
<polyline class="st0" points="318.5,303.2 179.5,303.2 179.5,118.6 493.5,118.6 493.5,234.7 "/>
<path class="st0" d="M344.1,338.4H172c-14.2,0-25.8-11.5-25.8-25.8v-198c0-15.1,12.3-27.4,27.4-27.4h322.1
	c15.1,0,27.3,12.2,27.3,27.3v209.6"/>
<path class="st1" d="M377.4,217.6c-0.7-1-13-17.6-5.7-36.2c8.1-20.7,32.4-22.7,34.3-22.8c2.2-0.1,25.5-1.3,36.2,17.1
	c7.8,13.3,5.6,31.2-5.7,43.8"/>
<path class="st2" d="M415.8,440c0.6-18.5,0.9-38.2-9.2-53.7c-3-4.6-6.9-8.7-10.3-13.1c-9.5-12-15.7-26.4-26.1-37.7
	c-10.8-11.8-25.7-19.8-34.7-33.1c-2.2-3.2-4-6.8-4.3-10.7c-0.3-3.9,1.1-8,4.3-10.2c2.1-1.4,4.7-1.9,7.3-1.9c9-0.1,17.4,4.5,24.5,9.9
	c7.1,5.5,13.5,12,21.2,16.7c1.1,0.7,2.2,1.3,3.4,1.4c2.2,0.1,4.2-1.7,5-3.8s0.7-4.4,0.5-6.7c-1.8-29.3-3.6-58.7-5.4-88
	c-0.4-5.7-0.6-11.8,2.3-16.8c4.3-7.3,15.6-9.3,22-3.7c5.4,4.6,4.8,12.9,5.1,20c1.1,27.1,2.2,54.2,3.3,81.3"/>
<path class="st2" d="M425,240.3c5.1-3,11.6-3.8,17.2-2c5.7,1.8,10.5,6.1,13,11.5c2.3,5,2.5,10.7,2.6,16.2c0.1,7.8,0.1,15.6-0.2,23.4
	"/>
<path class="st2" d="M501.6,433.7c-1.6-11.6-3-23.2-4-34.8c-0.4-3.8-0.7-7.7,0-11.5c0.9-4.9,3.5-9.4,5.2-14.1
	c3.9-10.3,4-21.6,4-32.6c0.1-20.1,0.2-40.2-1.8-60.2c-0.8-7.7-3.2-17-10.6-19c-6.1-1.6-12.5,3.1-14.9,9c-2.4,5.8-1.9,12.4-1.4,18.7"
	/>
<path class="st3" d="M454.5,249c3.9-5.6,13.3-4.6,19.1-0.9c5.8,3.7,8.5,11.1,8.1,17.9"/>
<circle class="st4" cx="161.9" cy="215.2" r="2.4"/>
<circle class="st5" cx="507.8" cy="210.9" r="6.7"/>
</svg>
