<?xml version="1.0" encoding="utf-8"?>
<!-- Generator: Adobe Illustrator 22.0.1, SVG Export Plug-In . SVG Version: 6.00 Build 0)  -->
<svg version="1.1" id="Layer_1" xmlns="http://www.w3.org/2000/svg" xmlns:xlink="http://www.w3.org/1999/xlink" x="0px" y="0px"
	 viewBox="0 0 820.8 222" style="enable-background:new 0 0 820.8 222;" xml:space="preserve">
<style type="text/css">
	.st0{fill:#173644;stroke:#173644;stroke-width:3;stroke-miterlimit:10;}
	.st1{fill:#048F9C;}
	.st2{fill:#173644;}
	.st3{fill:#EC7068;}
</style>
<g>
	<g>
		<path class="st0" d="M276.3,159.3c-0.6,1.1-2.1,1.4-3.3,1.1c-0.2,0-0.3-0.1-0.4-0.2c-0.8-0.6-0.8-2.4-1-3.1l-1-4
			c-0.2-0.9-0.2-1.9-1.2-2.6c0.2-0.5,0.1-1-0.1-1.4c-1.3,0-2.6-0.1-3.4-0.1c-2.1,0-4.2,0-6.4,0c-4.9,0.1-9.8,0.2-14.7-0.3
			c0,0.4-0.2,0.8-0.3,1.3c-0.7,3.4-1,6.9-2.1,10.2c-0.3,0.6-1.9,0.9-2.8,0.4c-0.7-0.4-0.8-1.3-0.9-1.9c-0.1-1.4,0.3-2.8,0.4-4.1
			c0.2-1.2,0.4-2.2,0.6-3.4c0.2-1.1,0.7-2.1,0.6-3.1c-0.2-4.1,1.3-8,2-11.9c0.3-1.5,1.2-2.9,0.6-4.6c-0.2-0.4,0-0.8,0.3-1.1
			c1.2-1.1,1.2-2.4,1.5-3.7l3.3-12.7c0.5-2,1.1-4.5,1.6-6.7l1.7-7c0.4-1.4,0.8-2.9,1.2-4.2l0.3-1c0.3-0.4,0.4-0.8,0.7-1.2
			c0.5-0.6,1.3-1.3,2.2-1.3c1,0,1.8,0.1,2.7,0.7c1.7,1.3,3.2,4.2,3.7,5.4c0.7,1.6,1.2,3.1,1.6,4.7c0.4,1.5,0.6,3,1,4.6
			c0.3,1.4,0.7,2.8,1.1,4.3c0.3,1,0,2,0.6,2.8c0.5,0.9,0,2,0.2,2.9c0.2,0.8,0.8,1.5,1,2.3c0.1,0.7-0.4,1.6,0.5,2.1
			c0.4,1.6,1,3.2,0.8,5.1c-0.2,1.3,0.2,2.4,0.4,3.7c1.3,6.3,2.6,12.5,4,18.8c0.2,1,0.9,1.9,1.1,3c0.2,1,1,1.8,1.1,2.9
			C275.9,157.1,277.1,157.9,276.3,159.3z M268,144.4c-0.1-0.4-0.1-0.8-0.1-1.2c0-1-0.4-1.8-0.6-2.7c-0.5-2.1-1.3-4-0.9-6.2
			c0.2-1-0.5-1.9-0.9-3.1c0-0.4,0.1-1.3-0.1-2.1c-0.7-3.6-1.5-7.2-2.3-10.8c-0.7-3-1.5-5.8-2.2-9c-0.6-3-1.2-5.9-2.2-8.5
			c-0.2-0.4-0.4-1-0.6-1.4c-0.2-0.3-0.3-0.4-0.4-0.5c-0.3-0.3-0.4-0.7-0.9-0.7c-0.2,0.1-0.3,0.3-0.4,0.4c0,0.1-0.1,0.2-0.1,0.3
			l-0.2,0.8l-0.8,3.3c-0.2,0.9-0.6,1.7-0.8,2.6c-0.1,1.1-0.1,2.1-0.6,3.1c-0.2,0.3-0.4,0.5-0.4,0.9c-0.3,0.6-0.1,1.3-0.4,1.8
			c-0.1,0.1-0.2,0.2-0.2,0.4c0,0.1,0,0.2,0.1,0.3c0.1,0.4,0,0.8-0.1,1.3c-0.7,3.6-1.4,7.2-2.7,10.7c-0.8,2.1-1.4,4.1-2,6.3
			c-0.2,0.8-0.5,1.5-0.8,2.3c-0.3,0.8-0.5,1.6-0.7,2.4c-0.3,1.5,0,3.1-0.4,4.6c-0.6,1.8-0.9,3.7-1.3,5.5c0.4-0.1,0.6-0.1,0.9-0.2
			c2.3-0.4,4.7-0.1,7.1-0.2c2,0,3.9-0.1,5.9-0.1c1.9,0,3.8,0.1,5.7,0C265.8,144.4,266.9,144.5,268,144.4z"/>
		<path class="st0" d="M319.9,157.9c0,0.3,0,0.4,0,0.7c0,0.8-1.1,1.5-2,1.3c-0.2,0.1-0.4,0.1-0.6,0.1c-0.2,0-0.3-0.1-0.4-0.2
			c-1.3-0.6-2.5-3.2-3.1-4.1c-1.3-1.8-2.4-3.6-3.6-5.4c-0.8-1.3-1.3-2.8-2.8-3.6c-0.4-2.1-2.1-3.1-3-4.9c-0.8-1.7-2.1-3.4-2.7-5.3
			c-0.4-1.3-1.3-2.5-2-3.8c-0.9-1.7-1.9-3.4-2.7-5.2h0.1l-0.2-0.5c-1.4-2.7-2.7-5.4-4-8.1c-0.8-1.5-1.3-3-2.6-4.2
			c-0.5-0.6-0.9-1.5-1.3-2.3c-1.5-3-3-6-4.4-9l-0.4,4.7c-0.1,1.4-0.4,3-0.2,4.4c0.7,4.8,0.3,9.7,0.4,14.5c-0.1,0.8-0.1,1.7-0.1,2.5
			c0,5.5,0.4,11,0.9,16.5c0.1,1.4,0.7,2.9,0.8,4.3c0.1,1.4,0.8,2.8,0.8,4.2c0,1.6,1.2,3.1,0.3,4.7c-0.7,1.3-2.1,1.5-3.4,0.8
			c-0.2,0-0.3-0.2-0.4-0.3c-0.8-1-0.7-3.6-0.8-4.6l-0.7-5.7c-0.4-3-1.4-5.9-1.3-8.9c0-1.8-0.4-3.5-0.2-5.3c0.2-1.3,0-2.5-0.1-3.8
			c-0.2-4.6-0.2-9.1-0.2-13.8c0-1.4,0.2-3-0.3-4.4c-0.3-0.8-0.1-1.6-0.1-2.4c0.3-5,0.4-10.1,1.5-14.9c0.3-1.1,1.8-1.3,2.7-0.9
			c0.9,0.4,1.6,1.3,2.1,2.1c1.3,1.8,2.1,3.8,3,5.7l2.3,4.8c0.7,1.5,1.3,3.1,2.1,4.5c3.2,4.5,5.2,9.6,7.8,14.4
			c0.3,0.9,0.6,1.7,1.1,2.6c2.7,5.5,5.6,11,8.9,16.3c0.8,1.3,2.1,2.5,2.9,3.8c0.3,0.4,0.5,0.9,0.9,1.3l-0.4-3.5
			c-0.2-1.5,0-3-0.4-4.4c-1.3-4.8-1.3-9.8-1.6-14.7l0.1-2.5c0.2-5.6-0.2-11.3,0-16.9c0-1.4-0.4-3-0.2-4.4c0.2-1.4-0.3-3,0-4.4
			c0.4-1.7-0.4-3.5,0.9-4.9c1-1.1,2.4-0.8,3.5,0.2c0.1,0.1,0.2,0.2,0.3,0.4c0.4,1.2-0.3,3.6-0.4,4.6c-0.1,1.9-0.3,3.8-0.4,5.6
			c0,1.2-0.1,2.1,0.1,3.3c0.1,0.9-0.1,1.9,0,2.9c0,0.9,0.4,1.8,0.3,2.8c-0.1,1.7,0.1,3.5-0.2,5.2c-0.2,1.3,0,2.5,0.1,3.8
			c0.1,1.7,0.3,3.4,0.3,5.1h-0.1c0,0.2,0.1,0.4,0,0.5c0,2.7,0.4,5.3,0.6,8c0.1,1.4,0.1,3,0.8,4.3c0.3,0.7,0.3,1.6,0.4,2.4
			c0.4,4.5,1,9,0.9,13.6c0,0.1,0.1,0.2,0.1,0.3S319.9,157.9,319.9,157.9z"/>
		<path class="st0" d="M358,128.5c0,2.3-0.4,4.6-0.4,6.9c-0.1,0.6,0,1.2-0.3,1.8c-0.2,0.4-0.4,0.9-0.5,1.3c-0.6,4.6-1,8.9-3.8,12.5
			c-0.5,0.7-1,1.4-1.5,2.1c-0.9,1.3-2.1,2.1-3.2,3c-0.9,0.8-1.6,2.1-2.9,2.4c-1.5,0.5-2.9,1.1-4.3,1.4c-0.8,0.3-1.6,0.3-2.3,0.9
			c-0.4,0.4-0.9,0.4-1.3,0.4c-1.9,0.2-3.8,0.4-5.6,0.4c-1.3-0.1-3,0.3-4.1-0.6c-0.2-0.1-0.3-0.2-0.4-0.4c-0.6-1.1-0.2-3.7-0.2-4.7
			l-0.2-5.9c0-1.4,0.3-2.9-0.6-4.1c0.8-1.8-0.2-3.5-0.2-5.2c0.1-1.8-0.3-3.7,0-5.5c0.2-1.3,0-2.6-0.1-3.9c-0.1-1.8-0.3-3.6-0.3-5.4
			h0.1c0-0.1,0-0.3,0-0.4c0-2.8-0.3-5.5-0.4-8.3c-0.1-1.5-0.1-3-0.7-4.6c-0.3-0.7-0.3-1.6-0.3-2.4c-0.3-4.8-0.8-9.7-0.5-14.6
			c-0.1-0.6-0.1-1.3,0.1-2c0-0.2,0.1-0.3,0.2-0.4c0.5-0.6,2-0.3,2.6-0.3c1.1,0.1,2.1,0.1,3.2,0.2c0.7,0.1,1.3,0.1,2,0.1
			c0.6-0.1,1,0.3,1.6,0.3c0.5,0.1,1,0,1.5,0.2c1,0.4,2,0.6,2.7,1.2c0.6,0.5,1.3,0.7,2,1c1.5,0.7,3.1,1.3,3.9,3
			c0.4,0.6,1.3,0.7,2.1,1.3c0.2,0.3,0.4,0.9,1,1.3c2.1,2.1,3.9,4.2,5.5,6.6c1.3,2,2.4,4,3.3,6.3c0.9,2.3,1.4,4.6,1.8,6.9
			S358,126.2,358,128.5z M354,127c0-0.5-0.4-1-0.4-1.5c-0.4-4.5-1.3-8.5-3.4-12.5c-0.1-0.3-0.3-0.6-0.4-0.9
			c-0.2-0.2-0.4-0.4-0.5-0.6c-0.2-0.4-0.1-0.9-0.3-1.3c-0.4-0.5-1.2-0.7-1.4-1.3c-0.1-0.2-0.1-0.4-0.3-0.7c-0.2-0.4-1.2-0.8-1.5-1.3
			c-0.6-0.5-1.1-1.1-1.3-1.8c-0.4-0.9-1.1-1.4-1.7-2c-3.5-2.8-7.4-5-11.8-5.8c-0.7-0.1-1.4,0.2-2.1,0.1c-0.3,0-0.5,0-0.9,0.1
			c0.3,1.6,0.3,3.1,0.4,4.7l0.4,5c0.1,1.5-0.2,3,0.2,4.6c1.2,5,1.1,10.1,1.3,15.1c0,0.9-0.1,1.8-0.1,2.7l0.4,17.3
			c0,1.5,0.5,3,0.5,4.6c-0.1,1.5,0.5,3,0.4,4.5c0,0.5,0,1.2,0.1,1.7c0.5-0.1,1,0,1.5-0.1l2.4-0.2c0.7-0.1,1.5,0.1,2.1-0.3
			c1.7-1,3.6-1.3,5.3-2c1.1-0.4,2.1-0.8,3-1.6c0.6-0.6,1-1.5,1.7-2.1c1.2-1.1,2.1-2.1,2.7-3.7c0.7-1.5,1.3-3.1,1.7-4.7
			c0.9-3.2,1.3-6.7,1.6-10C353.7,130.8,354,129,354,127z"/>
	</g>
	<g>
		<path class="st1" d="M120.8,49.1c-3.4,31.1,4.9,62.3,5,93.6c0,14.2-1.6,28.7,2.8,42.2c0.3,0.8,0.6,1.6,1.1,2.2
			c0.7,0.8,1.8,1,2.9,1.2c4.4,0.6,8.7-0.9,12.9-2.4c11.2-4.2,22.8-9.4,29.6-19.2c2.5-3.5,4.2-7.5,5.7-11.5
			c2.7-6.9,4.7-14.1,5.6-21.5c1.2-11-0.4-22.2-2.7-33c-1.6-7.1-3.5-14.1-6.7-20.7c-9.4-19.2-29.4-31.8-50.4-35.7
			c-0.6-0.1-1.4-0.2-1.9,0.1c-0.4,0.2-0.7,0.7-1,1.1c-1.1,1.9-2.2,3.7-3.4,5.6"/>
		<path class="st1" d="M134.6,188.9c-0.7,0-1.4,0-2-0.1c-0.9-0.1-2.2-0.4-3.1-1.3c-0.6-0.6-1-1.5-1.2-2.4c-3.5-10.6-3.2-22.1-3-33.1
			c0.1-3,0.1-6.1,0.1-9.2c0-12.9-1.5-26-2.9-38.7c-1.9-17.3-3.9-35.1-2.3-52.7c-0.1-0.1-0.2-0.3-0.1-0.5l0.2-0.3
			c0.1-0.5,0.1-1.1,0.2-1.6c0-0.2,0.2-0.3,0.4-0.3c0.2,0,0.3,0.2,0.3,0.4c0,0,0,0.1,0,0.1l2.4-3.9c0.3-0.4,0.6-0.9,1.1-1.2
			c0.7-0.4,1.4-0.3,2.2-0.1c22.8,4.3,41.7,17.7,50.6,35.9c3.4,6.9,5.3,14.4,6.7,20.7c2,9.1,4.1,21,2.8,33.1
			c-0.7,6.7-2.6,13.7-5.6,21.5c-1.4,3.6-3.2,7.8-5.8,11.5c-6.9,9.8-18.4,15.1-29.8,19.3C142,187.6,138.3,188.9,134.6,188.9z
			 M121,50.9c-1.7,17.7,0.3,35.7,2.3,53.1c1.4,12.7,2.9,25.8,2.9,38.7c0,3.1-0.1,6.2-0.1,9.2c-0.2,11-0.5,22.4,2.9,32.9
			c0.3,0.8,0.5,1.5,1.1,2.1c0.6,0.6,1.4,0.9,2.7,1.1c4.2,0.6,8.4-0.8,12.7-2.4c11.3-4.2,22.7-9.4,29.5-19.1
			c2.6-3.7,4.3-7.8,5.7-11.4c3-7.8,4.8-14.8,5.5-21.4c1.3-12-0.8-23.9-2.7-32.9c-1.4-6.3-3.3-13.7-6.6-20.6
			c-8.8-18-27.6-31.3-50.1-35.6c-0.6-0.1-1.2-0.2-1.7,0.1c-0.4,0.2-0.6,0.6-0.8,1L121,50.9z"/>
	</g>
	<g>
		<path class="st2" d="M105.6,185.8c-0.2,0.4-0.6,0.6-0.8,0.8c-2.4,1.4-7.6,0.6-9.8,0.6l-10.9,0.4c-8.8,0.4-17.9,1-27.1-1.4
			c-1.8-0.4-2.6-2.8-2.2-4.6c-0.8-2.6-0.4-6.6-0.6-8.6l-0.8-11.7c-0.2-2.4-0.2-4.6-0.8-6.8c-0.6-2-0.2-3.4-0.4-5.4
			c-0.2-2.2-1.2-4.2-1.2-6.6c0-3.6-0.6-7.2,0-10.7c0.4-2.8-0.2-5.4-0.4-8c-0.2-3.6-0.4-7.2-0.4-10.7h0.2c0-0.4,0-0.8,0-1.2
			c0.2-5.6-0.4-11.1-0.6-16.7c0-3,0.2-6-1.2-9.2c-0.6-1.4-0.4-3.2-0.4-4.8c-0.2-10.3-0.8-20.9,1-31c0-0.4,0-0.8,0-1
			c0.8-2,3.2-3,4.8-3.6c4-1.4,8-1.6,12.3-2.2c3.8-0.4,7-0.2,10.7-0.2c3.4,0,6.8,0.4,10.1,0.4c2,0,4.2,0.4,6.4,0.4
			c2-0.2,4.2,0,5.8,1.4c2.4,2.2,2,5.4,0,7.8c-0.2,0.4-0.6,0.6-0.8,0.8c-2.4,1.2-7.6-0.2-9.7-0.4c-3.6-0.2-7.2-0.4-10.7-0.4
			c-4.4,0.2-8.6-0.2-12.5,0.2c-2.6,0.4-5.4,0.4-8,0.6c0.6,3.8,0.2,7.4,0.2,11.1v9.9c0,3-0.4,6.2,0.2,9.2c2.2,9.9,1.6,20.1,2,30.2
			c0,1.8-0.2,3.6-0.2,5.4c0.2,10.3,0.6,20.5,1.2,30.8c3-0.4,6-0.2,8.8-0.2l8.8-0.2c2.8,0,5.6,0,8.4-0.2c1.8-0.2,3.6,0,5.4-0.2
			c1.8-0.2,3.6-0.4,5,1c2.2,2,2.4,5.2,0.8,7.8c-0.2,0.2-0.4,0.4-0.6,0.6c-2,1.4-6.6,0.6-8.4,0.6l-9.4,0.4
			c-5.8,0.2-11.7,0.2-17.5-0.4c0.2,1.2,0.4,2.2,0.4,3.4c0,3,1.4,5.8,1.2,9c0,2,0.6,3.8,0.8,5.8c2.6,0,5.2,0,7.8,0l10.1-0.2
			c3.4,0,6.6-0.2,9.9-0.4c2.2-0.2,4.2,0,6.4-0.2c2-0.4,4-0.4,5.8,0.8C107.2,180.1,107.4,183.2,105.6,185.8z"/>
		<path class="st2" d="M190.9,119.4c0,5.2-1,10.1-1,15.3c-0.2,1.4,0,2.6-0.6,4c-0.4,1-1,2-1.2,3c-1.4,10.1-2.2,19.7-8.6,27.9
			c-1.2,1.6-2.2,3.2-3.4,4.8c-2,2.8-4.6,4.6-7.2,6.8c-2,1.8-3.6,4.6-6.4,5.4c-3.4,1.2-6.4,2.4-9.6,3.2c-1.8,0.6-3.6,0.6-5.2,2
			c-0.8,0.8-2,0.8-2.8,1c-4.2,0.4-8.4,1-12.5,0.8c-2.8-0.2-6.8,0.6-9.2-1.4c-0.4-0.2-0.6-0.4-0.8-0.8c-1.4-2.4-0.4-8.2-0.4-10.5
			l-0.4-13.1c0-3.2,0.6-6.4-1.4-9.2c1.8-4-0.4-7.8-0.4-11.5c0.2-4-0.6-8.2,0-12.1c0.4-3,0-5.8-0.2-8.8c-0.2-4-0.6-8-0.6-11.9h0.2
			c0-0.2,0-0.6,0-1c0-6.2-0.6-12.3-1-18.5c-0.2-3.4-0.2-6.8-1.6-10.1c-0.6-1.6-0.6-3.6-0.6-5.4c-0.6-10.7-1.8-21.5-1.2-32.4
			c-0.2-1.4-0.2-3,0.2-4.4c0-0.4,0.2-0.6,0.4-0.8c1.2-1.4,4.4-0.6,5.8-0.6c2.4,0.2,4.8,0.2,7.2,0.4c1.6,0.2,2.8,0.2,4.4,0.2
			c1.4-0.2,2.2,0.6,3.6,0.6c1.2,0.2,2.2,0,3.4,0.4c2.2,0.8,4.4,1.4,6,2.6c1.4,1.2,3,1.6,4.4,2.2c3.4,1.6,7,3,8.8,6.6
			c0.8,1.4,2.8,1.6,4.8,3c0.4,0.6,1,2,2.2,3c4.6,4.6,8.8,9.4,12.3,14.7c2.8,4.4,5.4,9,7.4,13.9c2,5.2,3.2,10.1,4,15.3
			S190.9,114.2,190.9,119.4z M182.2,116c0-1.2-0.8-2.2-0.8-3.4c-1-9.9-3-18.9-7.6-27.9c-0.2-0.6-0.6-1.4-1-2c-0.4-0.4-1-0.8-1.2-1.4
			c-0.4-1-0.2-2-0.6-3c-0.8-1.2-2.6-1.6-3.2-3c-0.2-0.4-0.2-1-0.6-1.6c-0.4-0.8-2.6-1.8-3.4-2.8c-1.4-1.2-2.4-2.4-3-4
			c-0.8-2-2.4-3.2-3.8-4.4c-7.8-6.2-16.5-11.1-26.3-12.9c-1.6-0.2-3.2,0.4-4.8,0.2c-0.6,0-1.2,0-2,0.2c0.6,3.6,0.6,7,0.8,10.5
			l0.8,11.1c0.2,3.4-0.4,6.8,0.4,10.1c2.6,11.1,2.4,22.5,3,33.6c0,2-0.2,4-0.2,6l1,38.4c0,3.4,1.2,6.8,1.2,10.1
			c-0.2,3.4,1.2,6.6,0.8,9.9c0,1.2,0,2.6,0.2,3.8c1.2-0.2,2.2,0,3.4-0.2l5.4-0.4c1.6-0.2,3.4,0.2,4.8-0.6c3.8-2.2,8-3,11.7-4.4
			c2.4-1,4.8-1.8,6.6-3.6c1.4-1.4,2.2-3.4,3.8-4.8c2.6-2.4,4.6-4.8,6-8.2c1.6-3.4,2.8-7,3.8-10.5c2-7.2,3-14.9,3.6-22.3
			C181.4,124.5,182.2,120.4,182.2,116z"/>
	</g>
	<g>
		<path class="st3" d="M541.4,50.9c-9.6,8.5-19.6,17.6-23,30c-1.1,3.9-1.4,7.9-1.7,11.9c-0.3,4.2-0.7,8.4-1,12.6
			c-1.2,13.9-2.3,28,0.7,41.7c3,13.6,10.7,26.9,23.2,33.1c6.7,3.3,14.2,4.4,21.7,4.8c3.8,0.2,7.6,0.1,11.3-1
			c4.8-1.5,8.9-4.9,12.7-8.1c8.9-7.5,18-15.2,23.3-25.6c3.8-7.5,5.5-15.9,6.9-24.2c2.6-14.8,4.8-30.4-0.4-44.6
			c-4.4-12.1-14.1-22-25.6-27.8c-11.5-5.8-24.7-7.8-37.6-7c-5.8,0.4-12.1,1.7-15.7,6.2"/>
	</g>
	<g>
		<path class="st2" d="M499.8,186.9c0,0.6,0,1,0,1.6c0,1.8-2.4,3.4-4.4,3c-0.4,0.2-0.8,0.2-1.4,0.2c-0.4,0-0.6-0.2-1-0.4
			c-2.8-1.4-5.6-7.2-7-9.2c-2.8-4-5.4-8-8-11.9c-1.8-2.8-3-6.2-6.2-8c-0.8-4.6-4.6-7-6.6-10.9c-1.8-3.8-4.6-7.6-6-11.7
			c-1-3-2.8-5.6-4.4-8.4c-2-3.8-4.2-7.6-6-11.5h0.2l-0.4-1.2c-3.2-6-6-11.9-9-17.9c-1.8-3.4-3-6.8-5.8-9.4c-1.2-1.4-2-3.4-2.8-5.2
			c-3.4-6.8-6.8-13.3-9.8-20.1l-0.8,10.5c-0.2,3.2-0.8,6.6-0.4,9.8c1.6,10.7,0.6,21.5,1,32.2c-0.2,1.8-0.2,3.8-0.2,5.6
			c0,12.3,0.8,24.5,2,36.6c0.2,3.2,1.6,6.4,1.8,9.6s1.8,6.2,1.8,9.4c0,3.6,2.6,7,0.6,10.5c-1.6,3-4.8,3.4-7.6,1.8
			c-0.4,0-0.6-0.4-0.8-0.6c-1.8-2.2-1.6-8-1.8-10.1l-1.6-12.7c-0.8-6.6-3.2-13.1-3-19.9c0-4-0.8-7.8-0.4-11.7c0.4-3,0-5.6-0.2-8.6
			c-0.4-10.1-0.4-20.3-0.4-30.6c0-3.2,0.4-6.6-0.6-9.8c-0.6-1.8-0.2-3.6-0.2-5.4c0.6-11.1,0.8-22.5,3.4-33.2c0.6-2.4,4-2.8,6-2
			c2,1,3.6,3,4.8,4.6c2.8,4,4.6,8.4,6.8,12.7l5.2,10.7c1.6,3.4,2.8,7,4.8,9.9c7.2,9.9,11.5,21.3,17.3,32c0.6,2,1.4,3.8,2.4,5.8
			c6,12.3,12.5,24.5,19.7,36.2c1.8,3,4.6,5.6,6.4,8.6c0.6,1,1.2,2,2,2.8l-0.8-7.8c-0.4-3.4,0-6.8-0.8-9.8c-3-10.7-3-21.7-3.6-32.6
			l0.2-5.6c0.4-12.5-0.4-25.1,0-37.6c0-3.2-0.8-6.6-0.4-9.7c0.4-3.2-0.6-6.6,0-9.7c0.8-3.8-0.8-7.8,2-10.9c2.2-2.4,5.4-1.8,7.8,0.4
			c0.2,0.2,0.4,0.4,0.6,0.8c1,2.6-0.6,8-0.8,10.1c-0.2,4.2-0.6,8.4-0.8,12.5c0,2.6-0.2,4.8,0.2,7.4c0.2,2-0.2,4.2,0,6.4
			c0,2,0.8,4,0.6,6.2c-0.2,3.8,0.2,7.8-0.4,11.5c-0.4,2.8,0,5.6,0.2,8.4c0.2,3.8,0.6,7.6,0.6,11.3h-0.2c0,0.4,0.2,0.8,0,1.2
			c0,6,0.8,11.7,1.4,17.7c0.2,3.2,0.2,6.6,1.8,9.6c0.6,1.6,0.6,3.6,0.8,5.4c0.8,9.9,2.2,20.1,2,30.2c0,0.2,0.2,0.4,0.2,0.6
			S499.8,186.9,499.8,186.9z"/>
		<path class="st2" d="M621.4,102.5c0.4,11.1-0.8,22.1-3.2,32.6c-1.8,8.6-4.8,17.3-9.7,25.5c-4.8,8.2-11.7,14.5-19.5,19.5
			c-12.5,8-28.7,12.1-44,7.6c-2.6-0.8-4.6-2.4-7-3.6c-2-1.2-4.4-1.8-6.2-3.4c-1.8-1.4-4-3-4.8-5.2c-1.2-3-5-4-5.2-7.6
			c-3.2-0.6-2.8-4-4.4-5.8c-1.8-2.2-2.8-5-3.8-7.8c-1-2.4-1.6-4.8-2.4-7.2c-0.6-2.8-1.2-5.6-1.8-8.4c-0.4-2.6-0.6-5-1-7.6
			c-0.6-2.4,1-4.8,0.4-7.6c-0.2-0.4-0.4-0.8-0.2-1.4c0-1,0.4-2,0.4-3.2s-0.6-2.6-0.6-3.8c0.2-2.6,0.6-5.4,1-8l1-7.4
			c0.6-4.4-0.2-9,1.4-13.3c1.8-5.2,3.4-10.7,6-15.9c1.4-2.8,3.2-5.4,3.8-8.8c0.4-1.6,1.8-3,3-4.4c3.4-4.4,7.4-8.4,12.5-11.5
			c5-3.2,18.1-7,27.9-4.6c1.6,0.4,3.2,0.8,4,0.8c4.2,0.6,8.2,1.6,12.1,3c6,2,12.9,3.6,17.9,8c3,2.6,6.4,5,8.4,8.4
			c1.6,2.6,3.6,4.6,5,7c3.6,5.4,7,11.3,6.8,18.1c0,2.6,1.6,5.4,2.4,9.4C621.6,97.5,621.2,99.9,621.4,102.5z M612.4,95.1
			c-1.4-8.6-4.2-16.9-9.2-23.9c-4.8-7-11.5-12.3-19.3-15.9c-2.6-1.2-5.6-1.2-8-2.2c-3.2-1-6.4-1.2-9.4-1.4c-3.2-0.2-6.2-1-9.4-1.2
			c-5-0.2-10.3,1-14.5,3.6c-2.6,1.6-4.8,3.6-7,5.6c-2,2-4.4,3.8-5.4,6.4c-4.2,9.8-9.4,19.3-10.7,30c-0.6,4-2.2,8-0.4,11.9
			c0.4,1,0.2,2.2-0.4,3c-2,3.4-1.4,7.2-1.4,10.7c0.4,11.5,2.4,23.3,7,33.6c4.6,10.3,12.1,19.3,22.1,22.9c6.2,2.2,13.3,2.8,20.5,1.6
			c1.8-0.2,3.6-1.6,5.4-2.2c7.4-2.4,14.3-7,20.1-12.3c5.8-5.4,9.9-11.9,12.7-19.7c0.8-2.2,2.4-4.4,2.4-7c-0.2-2.8,2-4.8,2.8-7.2
			c0.4-2.2,0-4.6,0.2-7c0.4-1.8,2.4-3.6,0.8-5.8c0.4-4.6,0-9.2,1.2-13.7C613.4,101.9,612.8,98.3,612.4,95.1z"/>
		<path class="st2" d="M711.3,109.3c0,9-2.4,19.5-7,27.5c-2.6,4.4-6.2,8-9,11.9c-1.6,2.2-4.2,4-6.8,5.4c-7.8,4.2-16.1,6.2-24.1,7
			c-3,0.4-6,0.4-9.2,0.4c2.2,2.2,4.4,4.2,6.8,5.8c3.4,2.4,7,4,10.7,5.4s7.6,2.6,11.7,3c2.6,0.4,5,1,7.8,0.8c2.4,0,5,0.2,7.2,1.6
			c3.2,2,3.2,5.4,0.6,7.8c-0.2,0.2-0.6,0.6-1,0.6c-3.2,1.4-10.1-0.2-13.1-0.6c-5-0.6-9.9-1.6-14.7-3.2c-6-1.8-11.7-4.8-16.7-8.8
			c-2.4-1.8-4.6-4-6.4-6.2c0,0.2,0,0.4,0,0.6c0,3.2,1.2,6.2,1.2,9.4c-0.2,3.8,2.2,7.2,0,10.7c-1.8,2.6-5,3-7.8,1.2
			c-0.2-0.2-0.6-0.4-0.8-0.8c-1.4-2.4-0.8-8-1-10.1l-0.8-12.5c-0.2-2.4,0.2-4.8-0.8-7c-0.4-0.6-0.6-1-0.8-1.6c0,0,0,0,0-0.2
			c0,0,0,0,0-0.2c0-0.6,0-1.2,0.4-1.8c0.4-3.2-1.2-6.2-1.2-9.2c0-3.8-0.6-7.8,0-11.5c0.4-2.8-0.2-5.6-0.2-8.4
			c-0.2-3.8-0.6-7.8-0.6-11.5h0.2c0-0.2,0-0.6,0-1c0.2-6-0.4-11.9-0.6-17.9c0-3.2,0.2-6.4-1.2-9.6c-0.6-1.6-0.4-3.6-0.4-5.4
			c0-11.9,0.2-23.9,1.2-35.8c0-0.6,0-1.4,0.4-1.8c2.2-2.8,8.8-2,11.7-1.8c4.8,0.2,9.6,0.8,14.1,1.8c4.6,1.2,9.2,2.8,13.5,5
			c8.4,4.2,17.5,9.7,23.1,17.7c3.2,4.6,6.6,9.6,8,15.1c1,4.2,2.4,7.8,3.4,11.7C710.5,98.1,711.3,103.7,711.3,109.3z M701.4,107.1
			c0.4-2.4,0.2-4.8-0.2-7.2c-1.2-8-3.2-15.9-7-22.5c-3.8-6.8-9.4-12.7-15.5-17.3c-3.4-2.4-7.4-3.6-10.9-5.4
			c-3.6-1.6-7.6-1.8-11.5-2.8c-2-0.6-4.4-0.6-6.6-0.4c-2.2,0-4.4-0.2-6.6-1.4c0,0,0,0-0.2-0.2c0.2,0.4,0.2,1,0.4,1.2
			c0.6,4.2,0.2,8.4,0.2,12.5l0.2,10.7c0,3.2-0.6,6.6,0,9.7c2.2,10.5,1.6,21.5,2.2,32c-0.2,2-0.4,3.8-0.4,5.8
			c0.2,9.9,0.6,20.1,1.2,30.2c5.4-0.6,10.7-0.4,15.9-1c4.8-0.4,9.6-1.2,13.9-2.6c4-1.2,8.2-2.6,10.9-5.4c4.8-5,8.6-10.3,10.9-16.5
			S701.6,113.8,701.4,107.1z"/>
		<path class="st2" d="M798.9,189.9c-1.4,2.4-4.6,3.2-7.4,2.4c-0.4,0-0.6-0.2-0.8-0.4c-1.8-1.4-1.8-5.4-2.2-7l-2.2-9
			c-0.4-2-0.4-4.2-2.6-5.8c0.4-1.2,0.2-2.2-0.2-3.2c-2.8,0-5.8-0.2-7.6-0.2c-4.6,0-9.4,0-14.1,0c-10.9,0.2-21.9,0.4-32.6-0.6
			c0,1-0.4,1.8-0.6,2.8c-1.6,7.6-2.2,15.3-4.6,22.7c-0.6,1.4-4.2,2-6.2,0.8c-1.6-1-1.8-3-2-4.2c-0.2-3.2,0.6-6.2,1-9.2
			c0.4-2.6,0.8-5,1.4-7.6c0.4-2.4,1.6-4.6,1.4-7c-0.4-9.2,3-17.7,4.4-26.5c0.6-3.4,2.6-6.4,1.4-10.1c-0.4-0.8,0-1.8,0.6-2.4
			c2.6-2.4,2.6-5.4,3.4-8.2l7.4-28.3c1.2-4.4,2.4-9.9,3.6-14.9l3.8-15.5c0.8-3.2,1.8-6.4,2.6-9.4l0.6-2.2c0.6-1,1-1.8,1.6-2.6
			c1.2-1.4,3-2.8,5-2.8c2.2,0,4,0.2,6,1.6c3.8,3,7.2,9.4,8.2,11.9c1.6,3.6,2.6,7,3.6,10.5c0.8,3.4,1.4,6.8,2.2,10.1
			c0.6,3.2,1.6,6.2,2.4,9.6c0.6,2.2,0,4.4,1.4,6.2c1.2,2,0,4.4,0.4,6.4c0.4,1.8,1.8,3.4,2.2,5.2c0.2,1.6-1,3.6,1.2,4.8
			c0.8,3.6,2.2,7.2,1.8,11.3c-0.4,2.8,0.4,5.4,1,8.2c2.8,13.9,5.8,27.9,9,41.8c0.4,2.2,2,4.2,2.4,6.6c0.4,2.2,2.2,4,2.4,6.4
			C798.1,184.9,800.7,186.9,798.9,189.9z M780.6,156.8c-0.2-0.8-0.2-1.8-0.2-2.6c0-2.2-1-4-1.4-6c-1.2-4.6-2.8-9-2-13.7
			c0.4-2.2-1.2-4.2-2-7c0-1,0.2-2.8-0.2-4.8c-1.6-8-3.4-16.1-5.2-24.1c-1.6-6.8-3.4-12.9-5-20.1c-1.4-6.8-2.6-13.1-5-18.9
			c-0.4-1-1-2.2-1.4-3.2c-0.4-0.6-0.6-1-0.8-1.2c-0.6-0.6-1-1.6-2-1.6c-0.4,0.2-0.6,0.6-0.8,1c0,0.2-0.2,0.4-0.2,0.6l-0.4,1.8
			l-1.8,7.4c-0.4,2-1.4,3.8-1.8,5.8c-0.2,2.4-0.2,4.8-1.4,7c-0.4,0.6-0.8,1.2-1,2c-0.6,1.4-0.2,2.8-0.8,4c-0.2,0.2-0.4,0.4-0.4,0.8
			c0,0.2,0,0.4,0.2,0.6c0.2,1,0,1.8-0.2,2.8c-1.6,8-3.2,16.1-6,23.9c-1.8,4.8-3.2,9.2-4.4,13.9c-0.4,1.8-1.2,3.4-1.8,5.2
			c-0.6,1.8-1.2,3.6-1.6,5.4c-0.6,3.4,0,7-1,10.1c-1.4,4-2,8.2-2.8,12.1c0.8-0.2,1.4-0.2,2-0.4c5.2-0.8,10.3-0.2,15.7-0.4
			c4.4,0,8.8-0.2,13.1-0.2c4.2,0,8.4,0.2,12.7,0C775.6,156.8,778,157,780.6,156.8z"/>
	</g>
</g>
</svg>
