<?xml version="1.0" encoding="utf-8"?>
<!-- Generator: Adobe Illustrator 22.0.1, SVG Export Plug-In . SVG Version: 6.00 Build 0)  -->
<svg version="1.1" id="Layer_1" xmlns="http://www.w3.org/2000/svg" xmlns:xlink="http://www.w3.org/1999/xlink" x="0px" y="0px"
	 viewBox="0 0 625.2 532.4" style="enable-background:new 0 0 625.2 532.4;" xml:space="preserve">
<style type="text/css">
	.st0{fill:none;stroke:#686765;stroke-width:4;stroke-miterlimit:10;}
	.st1{fill:none;stroke:#CE5F5F;stroke-width:6;stroke-linecap:round;stroke-miterlimit:10;}
	.st2{fill:none;stroke:#077C82;stroke-width:6;stroke-linecap:round;stroke-miterlimit:10;}
	.st3{fill:#0B8484;stroke:#0B8484;stroke-width:4;stroke-miterlimit:10;}
	.st4{fill:#F3EED0;}
	.st5{fill:#EAE3BE;}
	.st6{fill:#048F9C;}
	.st7{fill:#DD6664;stroke:#DD6664;stroke-width:4;stroke-miterlimit:10;}
	.st8{fill:none;stroke:#000000;stroke-width:4;stroke-miterlimit:10;}
	.st9{fill:#EC7068;}
	.st10{fill:#FBC746;stroke:#FBC746;stroke-width:4;stroke-miterlimit:10;}
	.st11{fill:none;stroke:#077C82;stroke-width:4;stroke-linecap:round;stroke-miterlimit:10;}
	.st12{fill:#FBC746;}
	.st13{fill:#D86464;}
	.st14{fill:#151515;stroke:#151515;stroke-width:4;stroke-linecap:round;stroke-miterlimit:10;}
	.st15{fill:#0F142B;}
	.st16{fill:#E57E5E;}
	.st17{fill:#EA5932;}
	.st18{opacity:0.11;}
	.st19{opacity:0.73;fill:#048F9C;}
	.st20{fill:#077C82;stroke:#077C82;stroke-width:4;stroke-linecap:round;stroke-miterlimit:10;}
	.st21{fill:#CE5F5F;stroke:#CE5F5F;stroke-width:4;stroke-linecap:round;stroke-miterlimit:10;}
</style>
<path class="st0" d="M-111,160.8"/>
<path class="st1" d="M371.6,305.9c-5,6.2-7.9,13.9-10,21.6c-6.2,22.8-6.4,47.2-0.4,70"/>
<path class="st1" d="M553,310.8c9.2,10.9,14,25,15.1,39.2c1.1,14.2-1.3,28.5-5.2,42.2"/>
<path class="st2" d="M246.8,298.6c7,4,11.1,11.6,13.8,19.2c6.7,19.2,6,40.1,5.3,60.4"/>
<path class="st3" d="M151.5,386.3h-10.1v84.1c0,3.3,2.7,6,6,6h4.1h6.1c2.4,0,4.4-2,4.4-4.4l0,0c0-2.4-2-4.4-4.4-4.4h-3.5
	c-1.4,0-2.6-1.2-2.6-2.6V386.3z"/>
<path class="st3" d="M197.7,465v-78.8h-10.1v84.1c0,3.3,2.7,6,6,6h10c2.4,0,4.4-2,4.4-4.4l0,0c0-2.4-2-4.4-4.4-4.4h-3.3
	C198.9,467.6,197.7,466.5,197.7,465z"/>
<path class="st4" d="M167.7,145.4c-0.5-1.3-4.1-6.7-5.3-7.5c-2.2-1.5-4.8-2.1-7.4-2.5c-2.3-0.4-4.8-0.6-6.7,0.7
	c-1,0.7-1.6,1.7-2.1,2.7c-1.4,3-1.7,6.5-0.8,9.7c0.9,3.2,3,6.1,5.8,7.9"/>
<path class="st5" d="M186.5,139.3c-0.5-1.3-4.1-8.8-5.3-9.5c-2.2-1.5-4.8-2.1-7.4-2.5c-2.3-0.4-4.8-0.6-6.7,0.7
	c-1,0.7-1.6,1.7-2.1,2.7c-1.4,3-1.7,6.5-0.8,9.7c0.9,3.2,3,6.1,5.8,7.9"/>
<path class="st5" d="M149.3,151.7c-2.2-3.2-5.8-5.4-9.6-5.9c-2.2-0.3-4.7,0-6,1.8c-0.6,0.8-0.9,1.7-1.1,2.6c-1,4.7,0.3,9.9,3.4,13.6
	"/>
<path class="st4" d="M135.5,159.4c-0.5-1.3-1.5-2.4-2.7-3.2c-2.2-1.5-4.8-2.1-7.4-2.5c-2.3-0.4-4.8-0.6-6.7,0.7
	c-1,0.7-1.6,1.7-2.1,2.7c-1.4,3-1.7,6.5-0.8,9.7c0.9,3.2,3,6.1,5.8,7.9"/>
<path class="st5" d="M120,176.4c-2.3-3.1-6.7-3.4-10.5-3.5c-1.6,0-3.4-0.1-4.8,0.8c-2,1.2-2.7,3.8-3.1,6.1c-0.3,1.8-0.4,3.7-0.1,5.5
	c0.8,4.3,4.2,7.5,7.6,10.3"/>
<path class="st4" d="M110.1,206.5c0-1-1-1.6-2-2c-1.6-0.6-3.2-1.1-4.8-1.5c-1.6-0.4-3.2-0.6-4.9-0.4c-2.9,0.4-5.4,2.3-7,4.7
	c-2.6,3.7-3.1,8.7-1.5,13s5.3,7.6,9.7,8.7"/>
<path class="st5" d="M100.7,231.6c-3.5-1.5-7.2-3.1-11-2.8c-4.6,0.3-8.9,3.4-10.6,7.7c-0.7,1.6-1,3.4-1.1,5.1
	c-0.3,2.8-0.3,5.7,1,8.1c1.3,2.6,3.9,4.4,6.6,5.4s5.7,1.3,8.5,1.7"/>
<path class="st4" d="M99.6,258.5c-3-1-6.1-1.8-9.3-1.6c-3.2,0.2-6.4,1.4-8.4,3.9c-2.1,2.6-2.6,6.1-2.9,9.4c-0.2,2.1-0.4,4.3,0.1,6.3
	c0.9,3.4,3.9,6,7.1,7.4c3.3,1.4,6.9,1.7,10.4,2.1"/>
<path class="st5" d="M98.4,288c-3.1-0.2-6.2-0.3-9.3-0.3c-1.8,0-3.6,0-5.2,0.8c-3.1,1.5-4.2,5.3-4.6,8.7c-0.6,4.6-0.3,9.7,2.5,13.3
	c1.9,2.4,4.8,3.9,7.8,4.8c3,0.8,6.1,1,9.2,1.1"/>
<path class="st4" d="M100.1,318.4c-3.3-0.2-6.5-0.4-9.8-0.6c-0.8,0-1.7-0.1-2.5,0.2c-0.7,0.2-1.2,0.7-1.7,1.2
	c-4.5,4.3-6.4,11.1-4.8,17.1c0.9,3.2,2.8,6.3,5.7,8c2.9,1.7,6.4,2,9.8,2.2c2.4,0.2,4.8,0.3,7.2,0.5"/>
<path class="st5" d="M102.5,319.6c-1.4,0.8-2.9,1.7-4.3,2.5c-1.8,1-3.6,2.1-4.7,3.8c-0.7,1-1,2.2-1.3,3.4c-0.9,4.5,0.1,9.3,2.4,13.3
	c1,1.7,2.3,3.3,4,4.4c3.4,2.1,7.7,1.7,11.6,1.2"/>
<path class="st6" d="M104.3,202.9c8.7-16.8,26-50.1,64.6-64.2c8-2.9,40.8-13.7,76.7,2.3c41.9,18.8,55.2,59,56,65
	c11.9,88.8-56.7,126.7-64.6,140.2c-8.2,14-8.7,31.5-17.1,45.2c-7,11.4-25.7,26-28.8,26.5c-5,0.9-32.6,7.3-51.1-3.4
	c-13-7.5-12.8-14-22.2-43C106.9,337.2,72.4,264.3,104.3,202.9z"/>
<path class="st4" d="M121.2,218.7c5.1-9.8,10.4-19.8,17.5-26.6c9.1-8.8,20.3-11.7,31.2-13.8c16.3-3.1,32.7-4.9,49.2-5.3
	c12.3-0.3,24.7,0.2,36.6,4.5c8.1,2.9,16.3,7.9,21.7,17c3.9,6.4,6.1,14.5,7.3,22.8c2.7,19.3-1.5,41.8-13.2,52.3
	c-3.3,2.9-6.9,4.8-10.6,6.5c-20.9,9.4-43.1,12.5-65,11.8c-18.5-0.6-37.1-3.8-54.5-12.6c-6-3-11.9-6.8-16.3-13.3
	c-7.9-11.5-9.2-31-3-44.4"/>
<path class="st4" d="M183.8,129.4c-4.5,4.8-3.1,12.9,2.9,15.5c1.1,0.5,2.3,0.8,3.7,1.1c8.6,1.5,12.3-1.5,13.9-4.8
	c1.5-3.2,1.1-7-1-9.8l-0.3-0.4c-1.2-1.7-3-2.9-5-3.5l-4.4-1.3c-3.3-0.9-6.8,0-9.2,2.6L183.8,129.4z"/>
<path class="st7" d="M477.6,388.6h9.6v79.9c0,3.2-2.6,5.7-5.7,5.7h-3.9h-5.8c-2.3,0-4.1-1.9-4.1-4.1v0c0-2.3,1.9-4.1,4.1-4.1h3.3
	c1.4,0,2.5-1.1,2.5-2.5V388.6z"/>
<path class="st7" d="M433.6,463.4v-74.9h9.6v79.9c0,3.2-2.6,5.7-5.7,5.7H428c-2.3,0-4.1-1.9-4.1-4.1v0c0-2.3,1.9-4.1,4.1-4.1h3.1
	C432.5,465.9,433.6,464.8,433.6,463.4z"/>
<path class="st8" d="M197.3,393.6"/>
<path class="st9" d="M547.7,256.1c7.9-6,10.8-17.9,6.5-26.8c-0.7-1.5-1.7-3-2.9-4.3c-3.8-4-9.9-5.4-15.4-4.3
	c-5.4,1.1-10.2,4.5-13.9,8.7"/>
<path class="st9" d="M361.9,272.1c14.4-26.2,37.4-37.7,47.3-42.4c40.3-19.4,101.7-20.3,135.2,17.2c19.4,21.7,22.6,48.5,23.6,57
	c1.5,12.1,4.5,37.6-10.5,61c-11.8,18.3-28.6,25.8-42,31.8c-47.1,21-91.7,7.1-101.1,4c-17.6-5.9-36.2-12.1-49.9-30.5
	C343.1,341.4,346.5,300.2,361.9,272.1z"/>
<path class="st9" d="M377.1,252.8c-6.8-7.3-7.5-19.5-1.6-27.6c1-1.4,2.2-2.7,3.6-3.7c4.5-3.3,10.7-3.6,15.9-1.5
	c5.2,2.1,9.3,6.3,12.1,11"/>
<ellipse class="st10" cx="384.7" cy="346.1" rx="20.7" ry="22.4"/>
<circle class="st10" cx="371.9" cy="304.7" r="12.7"/>
<ellipse class="st10" cx="416.7" cy="378.8" rx="7.9" ry="8.3"/>
<ellipse class="st10" cx="544.4" cy="295.1" rx="11.7" ry="10"/>
<path class="st11" d="M138.8,297.4c-1.2,6.1,0.1,12.6,3.4,17.9"/>
<path class="st11" d="M159.2,311.4c-0.9,6.5-0.5,13.1,1.3,19.4"/>
<path class="st11" d="M149.8,336.4c-1.1,7.4,2.5,14.7,6,21.3"/>
<path class="st11" d="M175.1,336.1c0.2,6.6,0.3,13.1,0.5,19.7"/>
<path class="st11" d="M199.3,312.2c1.1,4.7,1.7,9.5,1.8,14.3c0,0.2,0,0.5-0.2,0.7c-0.2,0.1-0.5-0.3-0.3-0.4"/>
<path class="st11" d="M192.5,356.5c1.1-5.3,1.7-10.7,1.8-16.1"/>
<path class="st11" d="M213.7,354.1c0.2-1.2,1-2.2,1.6-3.3c2.2-3.7,2.5-8.2,2.8-12.4"/>
<path class="st11" d="M220.7,326.2c4.4-4,7.5-9.6,8.5-15.5"/>
<path class="st11" d="M151.4,172.5c-1.9-4.2-2.7-8.9-2.2-13.5"/>
<path class="st11" d="M174.4,167.5c-1.5-4.3-2.1-9-1.7-13.5"/>
<path class="st11" d="M201.5,165.5c-0.6-5.3-0.4-10.6,0.6-15.8"/>
<path class="st11" d="M225.2,164.4c-0.6-4.2-0.4-8.5,0.7-12.6"/>
<path class="st11" d="M245.6,166c-0.7-3.5,0.1-7.3,2.1-10.3"/>
<path class="st11" d="M144.7,202.1c4.2-5.3,11.3-8.3,18.1-7.5"/>
<path class="st11" d="M244,196.6c3.1-0.7,6.4-0.8,9.6-0.3c2.4,0.4,4.8,1.3,6.6,2.9"/>
<path class="st11" d="M178.8,316.2c-1.1-5.3-1.7-10.7-1.8-16.1"/>
<path class="st12" d="M557.2,365.5c-11.8,17.9-28.3,25.3-41.6,31.2c-8,3.5-15.4-14.6-16.2-19.2c-0.7-4.3-0.2-8.9,1.9-12.8
	c11.2-20,45.1-19.8,55.6,0"/>
<g>
	<path class="st13" d="M383.2,243.1l13.7-11.6c-1.8-3.6-6.1-5.9-10.2-6.2c-1.2-0.1-2.4,0-3.6,0.4c-3.6,1.3-5.7,5.7-4.4,9.3
		c1,2.9,3.8,5.1,4.1,8.2"/>
	<path class="st13" d="M544.7,246.3l-14-12c1.9-3.8,6.3-6.1,10.4-6.4c1.2-0.1,2.5,0,3.7,0.4c3.7,1.3,5.8,5.9,4.5,9.6
		c-1,3-3.9,5.3-4.2,8.5"/>
</g>
<path class="st14" d="M514.9,272.1c2.4-1.1,4.7-2.3,7.1-3.4c0.7-0.3,1.4-0.7,2.1-1"/>
<path class="st14" d="M512.6,268c2.2-1.5,4.3-2.9,6.5-4.4c0.6-0.4,1.3-0.9,1.9-1.3"/>
<path class="st14" d="M510.4,263.9c1.9-1.8,3.8-3.6,5.7-5.3c0.6-0.5,1.1-1,1.7-1.6"/>
<circle class="st4" cx="499.9" cy="276.1" r="17.6"/>
<circle class="st15" cx="499.9" cy="271.1" r="10.8"/>
<circle class="st4" cx="506.1" cy="265" r="4.7"/>
<path class="st14" d="M407.8,271.4c-2.4-1.1-4.7-2.3-7.1-3.4c-0.7-0.3-1.4-0.7-2.1-1"/>
<path class="st14" d="M410.2,267.3c-2.2-1.5-4.3-2.9-6.5-4.4c-0.6-0.4-1.3-0.9-1.9-1.3"/>
<path class="st14" d="M412.4,263.2c-1.9-1.8-3.8-3.6-5.7-5.3c-0.6-0.5-1.1-1-1.7-1.6"/>
<circle class="st4" cx="422.8" cy="275.4" r="17.6"/>
<circle class="st15" cx="422.8" cy="270.4" r="10.8"/>
<circle class="st4" cx="427.5" cy="264.3" r="4.7"/>
<g>
	<path class="st15" d="M206.3,272.7c-14.3,0-27.1-6.6-30.4-15.6c-0.2-0.6-0.1-1.2,0.2-1.7c0.4-0.6,1-0.9,1.7-0.9h57.1
		c0.7,0,1.3,0.3,1.7,0.9c0.4,0.5,0.4,1.1,0.2,1.7C233.5,266.1,220.7,272.7,206.3,272.7z"/>
	<path class="st15" d="M234.8,256.5c-3.1,8.2-15.1,14.2-28.5,14.2s-25.4-6-28.5-14.2H234.8 M234.9,252.5h-57.1
		c-2.7,0-4.7,2.7-3.8,5.3c3.5,9.7,16.7,16.9,32.3,16.9s28.8-7.2,32.3-16.9C239.6,255.2,237.6,252.5,234.9,252.5L234.9,252.5z"/>
</g>
<path class="st16" d="M227.5,269.6c-5.8,3.2-13.1,5.1-21.2,5.1c-12,0-22.5-4.2-28.4-10.6c1.1-2.1,3.2-3.5,5.5-4.3s4.7-0.9,7.1-1
	c5.5-0.2,11.2-0.2,16.5,1.1c6.6,1.6,12.6,5,18.5,8.4"/>
<g>
	<path class="st15" d="M484.2,329.4c1,0,1.8,0.8,1.7,1.8c-0.8,8-1.8,16.1-5.3,23.4c-3.7,7.8-11,14.5-19.6,15.2
		c-9.4,0.7-18.2-6.1-22.5-14.5c-4.1-7.9-4.6-16.7-4.9-25.6c0-0.9,0.7-1.6,1.6-1.6L484.2,329.4C484.1,329.4,484.2,329.4,484.2,329.4
		L484.2,329.4z"/>
	<path class="st17" d="M480.6,355.2c-3.7,7.8-11,14.5-19.6,15.2c-9.4,0.7-18.2-6.1-22.5-14.5c3-3.6,8-4.9,12.6-5.4
		c2.1-0.2,4.2-0.4,6.2-0.6c4.1-0.3,8.2-0.6,12.2,0.1s8,2.4,10.7,5.4"/>
	<g class="st18">
		<path class="st15" d="M437.7,332.2l44,1.1c-0.8,7.1-1.8,13.9-4.7,20c-3.5,7.5-9.9,12.7-16.3,13.2c-0.4,0-0.7,0-1.1,0
			c-7.7,0-14.4-6.3-17.5-12.6C438.8,347.5,438,340.2,437.7,332.2 M435.1,328.1c-0.9,0-1.6,0.7-1.5,1.6c0.3,9.1,0.8,18,4.9,26.1
			c4.1,8.1,12.2,14.8,21.1,14.8c0.5,0,0.9,0,1.4-0.1c8.6-0.7,15.9-7.5,19.6-15.5c3.5-7.4,4.5-15.6,5.3-23.8c0.1-1-0.7-1.8-1.6-1.8
			c0,0-0.1,0-0.1,0c0,0,0,0,0,0c0,0,0,0,0,0L435.1,328.1C435.1,328.1,435.1,328.1,435.1,328.1L435.1,328.1z"/>
	</g>
</g>
<g class="st18">
	<g>
		<path class="st15" d="M234.8,256.5c-3.1,8.2-15.1,14.2-28.5,14.2s-25.4-6-28.5-14.2H234.8 M234.9,252.5h-57.1
			c-2.7,0-4.7,2.7-3.8,5.3c3.5,9.7,16.7,16.9,32.3,16.9s28.8-7.2,32.3-16.9C239.6,255.2,237.6,252.5,234.9,252.5L234.9,252.5z"/>
	</g>
</g>
<circle class="st19" cx="158" cy="225.3" r="13.8"/>
<circle class="st15" cx="158" cy="221.3" r="8.5"/>
<circle class="st4" cx="161.7" cy="216.5" r="3.7"/>
<circle class="st19" cx="252" cy="225.9" r="13.8"/>
<circle class="st15" cx="252" cy="221.9" r="8.5"/>
<circle class="st4" cx="255.7" cy="217.1" r="3.7"/>
<path class="st2" d="M111.5,299.5c-11.5,34.1-10.2,72.4,3.5,105.7"/>
<circle class="st20" cx="115.3" cy="403.1" r="4.6"/>
<circle class="st20" cx="266" cy="378.5" r="4.6"/>
<circle class="st21" cx="361" cy="394.9" r="4.4"/>
<circle class="st21" cx="562.3" cy="392" r="4.4"/>
</svg>
