<?xml version="1.0" encoding="utf-8"?>
<!-- Generator: Adobe Illustrator 22.0.1, SVG Export Plug-In . SVG Version: 6.00 Build 0)  -->
<svg version="1.1" id="Layer_1" xmlns="http://www.w3.org/2000/svg" xmlns:xlink="http://www.w3.org/1999/xlink" x="0px" y="0px"
	 viewBox="0 0 320.2 532.4" style="enable-background:new 0 0 320.2 532.4;" xml:space="preserve">
<style type="text/css">
	.st0{fill:#EFF4F1;}
	.st1{fill:none;stroke:#CE5F5F;stroke-width:7;stroke-linecap:round;stroke-miterlimit:10;}
	.st2{fill:#DD6664;stroke:#DD6664;stroke-width:4;stroke-miterlimit:10;}
	.st3{fill:#EC7068;}
	.st4{fill:#FBC746;stroke:#FBC746;stroke-width:4;stroke-miterlimit:10;}
	.st5{fill:#FBC746;}
	.st6{fill:#D86464;}
	.st7{fill:#151515;stroke:#151515;stroke-width:3;stroke-linecap:round;stroke-miterlimit:10;}
	.st8{fill:#F3EED0;}
	.st9{fill:#0F142B;}
	.st10{fill:#EA5932;}
	.st11{opacity:9.000000e-02;}
	.st12{fill:#CE5F5F;stroke:#CE5F5F;stroke-width:4;stroke-linecap:round;stroke-miterlimit:10;}
</style>
<ellipse class="st0" cx="149.4" cy="380.5" rx="111.5" ry="22.7"/>
<path class="st1" d="M75.2,240c-4.6,5.7-7.2,12.6-9.1,19.7c-5.7,20.7-5.8,43-0.4,63.8"/>
<path class="st1" d="M235.4,242.5c8.4,9.9,12.8,22.8,13.8,35.7c1,12.9-1.2,26-4.7,38.4"/>
<path class="st2" d="M171.7,309.3h8.7v72.8c0,2.9-2.3,5.2-5.2,5.2h-3.5h-5.2c-2.1,0-3.8-1.7-3.8-3.8v0c0-2.1,1.7-3.8,3.8-3.8h3
	c1.2,0,2.2-1,2.2-2.2V309.3z"/>
<path class="st2" d="M131.7,377.5v-68.2h8.7v72.8c0,2.9-2.3,5.2-5.2,5.2h-8.6c-2.1,0-3.8-1.7-3.8-3.8v0c0-2.1,1.7-3.8,3.8-3.8h2.9
	C130.7,379.7,131.7,378.7,131.7,377.5z"/>
<path class="st3" d="M235.6,188.7c7.2-5.5,9.8-16.3,5.9-24.5c-0.7-1.4-1.5-2.7-2.6-3.9c-3.5-3.7-9-4.9-14-3.9s-9.3,4.1-12.7,7.9"/>
<path class="st3" d="M66.4,203.2c13.1-23.9,34.1-34.3,43-38.6c36.7-17.7,92.6-18.5,123.2,15.7c17.7,19.8,20.6,44.2,21.5,51.9
	c1.3,11.1,4.1,34.3-9.6,55.5c-10.7,16.7-26,23.5-38.3,29c-42.9,19.1-83.5,6.5-92.1,3.6c-16-5.4-33-11.1-45.4-27.8
	C49.2,266.4,52.3,228.8,66.4,203.2z"/>
<path class="st3" d="M80.1,185.7c-6.2-6.7-6.8-17.8-1.5-25.1c0.9-1.3,2-2.4,3.3-3.4c4.1-3,9.8-3.3,14.5-1.4s8.4,5.7,11.1,10"/>
<ellipse class="st4" cx="87.1" cy="270.6" rx="18.8" ry="20.4"/>
<circle class="st4" cx="75.5" cy="233" r="11.6"/>
<ellipse class="st4" cx="116.2" cy="300.4" rx="7.2" ry="7.5"/>
<ellipse class="st4" cx="232.6" cy="224.2" rx="10.7" ry="9.1"/>
<path class="st5" d="M244.2,288.3c-10.7,16.3-25.8,23-37.9,28.4c-7.2,3.2-14-13.3-14.7-17.5c-0.7-3.9-0.2-8.1,1.7-11.6
	c10.2-18.2,41.1-18.1,50.7,0"/>
<g>
	<path class="st6" d="M85.8,176.8l12.5-10.6c-1.6-3.3-5.6-5.4-9.3-5.7c-1.1-0.1-2.2,0-3.3,0.4c-3.2,1.1-5.2,5.2-4,8.4
		c0.9,2.6,3.5,4.7,3.7,7.5"/>
	<path class="st6" d="M232.8,179.7l-12.8-11c1.7-3.4,5.7-5.6,9.5-5.9c1.1-0.1,2.3,0,3.4,0.4c3.3,1.2,5.3,5.4,4.1,8.8
		c-0.9,2.7-3.6,4.8-3.8,7.7"/>
</g>
<path class="st7" d="M205.7,203.2c2.1-1,4.3-2.1,6.4-3.1c0.6-0.3,1.3-0.6,1.9-0.9"/>
<path class="st7" d="M203.6,199.5c2-1.3,4-2.7,5.9-4c0.6-0.4,1.2-0.8,1.7-1.2"/>
<path class="st7" d="M201.6,195.7c1.7-1.6,3.5-3.2,5.2-4.9c0.5-0.5,1-1,1.5-1.4"/>
<circle class="st8" cx="192.1" cy="206.8" r="16"/>
<circle class="st9" cx="192.1" cy="206.8" r="9.8"/>
<circle class="st8" cx="197.6" cy="201.3" r="4.3"/>
<path class="st7" d="M108.2,202.6c-2.1-1-4.3-2.1-6.4-3.1c-0.6-0.3-1.3-0.6-1.9-0.9"/>
<path class="st7" d="M110.3,198.9c-2-1.3-4-2.7-5.9-4c-0.6-0.4-1.2-0.8-1.7-1.2"/>
<path class="st7" d="M112.3,195.2c-1.7-1.6-3.5-3.2-5.2-4.9c-0.5-0.5-1-1-1.5-1.4"/>
<circle class="st8" cx="121.8" cy="206.3" r="16"/>
<circle class="st9" cx="121.8" cy="206.3" r="9.8"/>
<circle class="st8" cx="126.1" cy="200.7" r="4.3"/>
<g>
	<path class="st9" d="M177.7,255.4c0.9,0,1.6,0.7,1.6,1.6c-0.7,7.3-1.6,14.7-4.8,21.3c-3.4,7.1-10,13.2-17.8,13.8
		c-8.6,0.6-16.5-5.5-20.5-13.2c-3.7-7.2-4.2-15.2-4.5-23.3c0-0.8,0.6-1.5,1.4-1.4L177.7,255.4C177.7,255.4,177.7,255.4,177.7,255.4
		L177.7,255.4z"/>
	<path class="st10" d="M174.5,278.9c-3.4,7.1-10,13.2-17.8,13.8c-8.6,0.6-16.5-5.5-20.5-13.2c2.7-3.2,7.3-4.4,11.5-4.9
		c1.9-0.2,3.8-0.4,5.7-0.5c3.7-0.3,7.4-0.5,11.1,0.1c3.7,0.6,7.3,2.1,9.7,4.9"/>
	<g class="st11">
		<path class="st9" d="M135.7,258.3l39.3,1c-0.7,6.3-1.7,12.4-4.2,17.7c-3.2,6.7-8.9,11.4-14.6,11.8c-0.3,0-0.6,0-0.9,0
			c-6.9,0-12.8-5.7-15.6-11.3C136.7,271.9,136,265.5,135.7,258.3 M133,254.3c-0.8,0-1.4,0.7-1.4,1.5c0.3,8.3,0.8,16.4,4.5,23.7
			c3.7,7.4,11.1,13.5,19.2,13.5c0.4,0,0.8,0,1.2,0c7.9-0.6,14.5-6.9,17.9-14.1c3.2-6.7,4.1-14.3,4.8-21.7c0.1-0.9-0.6-1.7-1.5-1.7
			c0,0-0.1,0-0.1,0c0,0,0,0,0,0c0,0,0,0,0,0L133,254.3C133,254.3,133,254.3,133,254.3L133,254.3z"/>
	</g>
</g>
<circle class="st12" cx="64.5" cy="322" r="5"/>
<circle class="st12" cx="242.4" cy="318" r="5.5"/>
</svg>
