<?xml version="1.0" encoding="utf-8"?>
<!-- Generator: Adobe Illustrator 22.0.1, SVG Export Plug-In . SVG Version: 6.00 Build 0)  -->
<svg version="1.1" id="Layer_1" xmlns="http://www.w3.org/2000/svg" xmlns:xlink="http://www.w3.org/1999/xlink" x="0px" y="0px"
	 viewBox="0 0 320.2 532.4" style="enable-background:new 0 0 320.2 532.4;" xml:space="preserve">
<style type="text/css">
	.st0{fill:#EFF4F1;}
	.st1{fill:#F2EADC;stroke:#686765;stroke-width:3;stroke-miterlimit:10;}
	.st2{fill:none;stroke:#686765;stroke-width:3;stroke-miterlimit:10;}
	.st3{fill:#6AA7BF;}
	.st4{fill:#78B6D3;}
	.st5{fill:#F6EB96;}
	.st6{fill:#151515;stroke:#151515;stroke-width:3;stroke-linecap:round;stroke-miterlimit:10;}
	.st7{fill:#ED4863;}
	.st8{fill:#F3EED0;}
	.st9{fill:#0F142B;}
	.st10{fill:#EA5932;}
	.st11{opacity:0.11;}
	.st12{fill:#73AFC6;}
</style>
<ellipse class="st0" cx="164" cy="402.8" rx="111.5" ry="22.7"/>
<g>
	<path class="st1" d="M103,396.8"/>
	<path class="st1" d="M102,392.1"/>
	<path class="st2" d="M194.9,33.9"/>
	<path class="st3" d="M82.6,263.1c3.3-6,4.8-14.2,2.6-21c-2.2-6.8-8.6-11.1-13.7-8.1c-4.3,2.5-6.6,8.8-8.2,14.7
		c-6.8,25.1-8.6,52.2-7.5,78.7c0.3,7.6,1.1,15.8,5.1,21.1c1.6,2.1,3.6,3.6,5.7,4.7c5.1,2.6,11.6,2.8,15.4-2.5
		c4-5.5,3.4-14.4,1.1-21.3c-2.3-6.8-6.1-12.8-7.9-19.9c-4.3-16.3,2.2-34.1,8.5-49.5"/>
	<path class="st3" d="M249.4,263.1c-3.3-6-4.8-14.2-2.6-21c2.2-6.8,8.6-11.1,13.7-8.1c4.3,2.5,6.6,8.8,8.2,14.7
		c6.8,25.1,8.6,52.2,7.5,78.7c-0.3,7.6-1.1,15.8-5.1,21.1c-1.6,2.1-3.6,3.6-5.7,4.7c-5.1,2.6-11.6,2.8-15.4-2.5
		c-4-5.5-3.4-14.4-1.1-21.3c2.3-6.8,6.1-12.8,7.9-19.9c4.3-16.3-2.2-34.1-8.5-49.5"/>
	<path class="st4" d="M177,365.1c3.5,0.8,6.7,2.7,8.9,5.7c8.5,11.2,0.6,31.5,11.9,39.6c5.7,4.1,13.9,2.4,19.3-2.2
		c5.4-4.5,8.6-11.2,11.6-17.7c5.3-11.9,10.2-23.9,14.6-36.2c11.7-32.4,20.3-66.5,19.5-101.1c-0.8-34.6-11.8-69.8-35-94.7
		c-15.3-16.4-36.7-29-59.3-30c-24.3-1.2-48,12.3-64.5,30c-23.2,24.9-34.2,60.1-35,94.7c-0.8,34.6,7.8,68.7,19.5,101.1
		c4.4,12.3,9.3,24.3,14.6,36.2c2.9,6.5,6.2,13.2,11.6,17.7c5.4,4.5,13.6,6.3,19.3,2.2c11.3-8.1,3.4-28.4,11.9-39.6
		c2.2-2.9,5.4-4.8,8.9-5.7"/>
	<path class="st5" d="M126.7,107.1l5.3,31h67.4l5.8-30.1c-0.4-0.5-1.1-1.2-1.9-1.9c-9.4-8.6-21.1-9.9-29.1-10.7
		c-6.2-0.6-20-1.9-35.4,4.9c-4.8,2.1-8.6,4.5-11.2,6.3L126.7,107.1z"/>
	<path class="st6" d="M210.2,201.2c2.6-1.3,5.3-2.5,7.9-3.8c0.8-0.4,1.6-0.7,2.3-1.1"/>
	<path class="st6" d="M207.5,196.6c2.4-1.6,4.9-3.3,7.3-4.9c0.7-0.5,1.4-1,2.2-1.4"/>
	<path class="st6" d="M205.1,191.9c2.2-2,4.3-4,6.5-6c0.6-0.6,1.3-1.2,1.9-1.8"/>
	<polygon class="st7" points="176.6,113.9 170.3,113.9 170.3,107.6 162.1,107.6 162.1,113.9 155.8,113.9 155.8,122.1 162.1,122.1 
		162.1,128.4 170.3,128.4 170.3,122.1 176.6,122.1 	"/>
	<g>
		<circle class="st8" cx="198" cy="201.3" r="13.7"/>
		<circle class="st9" cx="198" cy="201.3" r="8.5"/>
		<circle class="st8" cx="202.8" cy="196.5" r="3.7"/>
	</g>
	<path class="st6" d="M121.3,201.2c-2.6-1.3-5.3-2.5-7.9-3.8c-0.8-0.4-1.6-0.7-2.3-1.1"/>
	<path class="st6" d="M123.9,196.6c-2.4-1.6-4.9-3.3-7.3-4.9c-0.7-0.5-1.4-1-2.2-1.4"/>
	<path class="st6" d="M126.4,191.9c-2.2-2-4.3-4-6.5-6c-0.6-0.6-1.3-1.2-1.9-1.8"/>
	<g>
		<circle class="st8" cx="133.5" cy="201.3" r="13.7"/>
		<circle class="st9" cx="133.5" cy="201.3" r="8.5"/>
		<circle class="st8" cx="128.7" cy="196.5" r="3.7"/>
	</g>
	<path class="st9" d="M190.8,246c1,0,1.8,0.8,1.7,1.8c-0.8,8-1.8,16.2-5.3,23.4c-3.7,7.8-11,14.6-19.7,15.2
		c-9.5,0.7-18.2-6.1-22.6-14.5c-4.1-7.9-4.7-16.7-5-25.7c0-0.9,0.7-1.6,1.6-1.6L190.8,246C190.8,246,190.8,246,190.8,246L190.8,246z
		"/>
	<path class="st10" d="M187.2,271.9c-3.7,7.8-11,14.6-19.7,15.2c-9.5,0.7-18.2-6.1-22.6-14.5c3-3.6,8.1-4.9,12.7-5.4
		c2.1-0.2,4.2-0.4,6.3-0.6c4.1-0.3,8.2-0.6,12.2,0.1c4,0.7,8,2.4,10.7,5.4"/>
	<g class="st11">
		<path class="st9" d="M143.1,247.8l46.3,1.2c-0.8,7.6-1.8,14.9-4.9,21.5c-3.7,7.9-10.5,13.3-17.2,13.8c-0.4,0-0.8,0-1.1,0
			c-8.2,0-15.2-6.6-18.5-13.2C144.1,264.2,143.4,256.4,143.1,247.8 M141.6,244.8c-0.9,0-1.6,0.7-1.5,1.6c0.3,9.1,0.8,18.1,4.9,26.1
			c4.1,8.2,12.2,14.8,21.2,14.8c0.5,0,0.9,0,1.4-0.1c8.7-0.7,15.9-7.6,19.7-15.5c3.5-7.4,4.5-15.7,5.3-23.9c0.1-1-0.7-1.8-1.6-1.8
			c0,0-0.1,0-0.1,0c0,0,0,0,0,0c0,0,0,0,0,0L141.6,244.8C141.6,244.8,141.6,244.8,141.6,244.8L141.6,244.8z"/>
	</g>
	<circle class="st12" cx="107.2" cy="291.9" r="19.3"/>
	<circle class="st12" cx="124.4" cy="361.7" r="6.7"/>
	<circle class="st12" cx="215.1" cy="311.6" r="13"/>
	<circle class="st12" cx="231.9" cy="257.4" r="10.8"/>
	<circle class="st12" cx="195.1" cy="157.1" r="8.2"/>
	<circle class="st12" cx="157.7" cy="323.3" r="6.3"/>
	<circle class="st12" cx="214.1" cy="383.6" r="6.3"/>
	<path class="st12" d="M104.2,158.5c-5,5.4-9.5,11.3-13.4,17.6c0,1.9,1.4,3.7,3.1,4.6c1.7,0.9,3.7,1.2,5.6,1.4
		c3.6,0.4,7.3,0.6,10.7-0.8c1.2-0.5,2.3-1.2,3.3-1.9c1.7-1.2,3.2-2.6,4.3-4.3c1.1-1.7,1.7-3.8,1.5-5.8c-0.2-2.1-1.4-4.1-2.8-5.6
		c-3.2-3.3-7.5-5-12.1-5.1h-0.1"/>
	<circle class="st12" cx="112.9" cy="234.8" r="9.8"/>
	<path class="st12" d="M251.5,195.2c-0.4-1-0.7-1.3-1-2c-0.1-0.1-0.1-0.2-0.2-0.3c-0.1-0.1-0.2-0.2-0.2-0.4c-1.2-1-2.9-1.1-4.5-1.1
		c-2.9-0.1-5.9-0.1-8.6,1c-1.7,0.7-3.2,2-4.7,3.2c-1.9,1.6-3.9,3.2-4.8,5.5c-0.7,1.7-0.7,3.7-0.6,5.6c0.1,1.9,0.4,3.9,1.2,5.6
		c1,2.3,2.8,4.1,4.7,5.7c2.7,2.2,5.6,4.3,9,5.2c3.4,0.9,7.2,0.6,10-1.5c2-1.5,3.3-3.7,4.6-5.8c0.2-0.4,0.4-0.8,0.5-1.2
		c0.1-0.4,0.6-0.9,0.6-1.3C256.4,207.3,253.9,200.9,251.5,195.2z"/>
	<circle class="st12" cx="156.1" cy="171.4" r="3.5"/>
</g>
</svg>
