<?xml version="1.0" encoding="utf-8"?>
<!-- Generator: Adobe Illustrator 22.0.1, SVG Export Plug-In . SVG Version: 6.00 Build 0)  -->
<svg version="1.1" id="Layer_1" xmlns="http://www.w3.org/2000/svg" xmlns:xlink="http://www.w3.org/1999/xlink" x="0px" y="0px"
	 viewBox="0 0 592.5 664.3" style="enable-background:new 0 0 592.5 664.3;" xml:space="preserve">
<style type="text/css">
	.st0{fill:#6BA7BE;}
	.st1{fill:#F1E9DB;stroke:#686866;stroke-width:3;stroke-miterlimit:10;}
	.st2{fill:none;stroke:#686866;stroke-width:3;stroke-miterlimit:10;}
	.st3{fill:#78B5D2;}
	.st4{fill:#F5EB96;}
	.st5{fill:#151515;stroke:#151515;stroke-width:3;stroke-linecap:round;stroke-miterlimit:10;}
	.st6{fill:#E84763;}
	.st7{fill:#F2EDCF;}
	.st8{fill:#13162A;}
	.st9{fill:#EA5931;}
	.st10{opacity:0.28;}
	.st11{fill:#74AEC5;}
</style>
<g>
	<path class="st0" d="M271.3,305.3c-11.6-1.1-21-9.7-29.4-17.9c-14.4-13.9-28.8-27.9-43.2-41.8c-10.2-9.8-21.3-20.2-35.3-22.1
		c-7.1-1-15.2,0.8-19.3,6.7c-2.3,3.4-3,7.6-3.1,11.7c-0.2,14.9,7.7,29,18.2,39.6s23.6,18.2,36.5,25.6c19.8,11.5,40.5,23.2,63.3,25.2
		c3.9,0.3,8,0.3,11.4-1.6c4.4-2.6,6.4-8.1,6.2-13.3c-0.2-5.1-2.3-10-4.3-14.7"/>
	<path class="st1" d="M273.1,500.6"/>
	<path class="st1" d="M272,495.3"/>
	<path class="st2" d="M376.5,92.4"/>
	<path class="st0" d="M437.8,350.2c-3.8-6.7-5.4-16-2.9-23.6s9.6-12.5,15.4-9.1c4.9,2.8,7.4,9.9,9.2,16.5
		c7.6,28.3,9.7,58.7,8.5,88.5c-0.3,8.5-1.2,17.8-5.8,23.8c-1.8,2.4-4.1,4-6.5,5.2c-5.7,3-13,3.1-17.3-2.8
		c-4.5-6.2-3.8-16.2-1.2-23.9c2.6-7.7,6.8-14.4,8.9-22.3c4.8-18.4-2.4-38.3-9.5-55.6"/>
	<path class="st3" d="M356.4,464.9c3.9,0.9,7.5,3.1,10,6.4c9.5,12.6,0.6,35.4,13.4,44.6c6.4,4.6,15.7,2.7,21.8-2.4
		c6.1-5.1,9.7-12.6,13-20c6-13.4,11.5-26.9,16.5-40.7c13.2-36.4,22.9-74.8,22-113.7s-13.2-78.5-39.3-106.5
		C396.4,214,372.4,200,347,198.7c-27.3-1.3-54,13.9-72.5,33.8c-26.1,28-38.4,67.6-39.3,106.5c-0.9,38.9,8.8,77.3,22,113.7
		c5,13.8,10.5,27.4,16.5,40.7c3.3,7.3,6.9,14.9,13,20c6.1,5.1,15.3,7,21.8,2.4c12.7-9.1,3.8-31.9,13.4-44.6c2.5-3.3,6.1-5.4,10-6.4"
		/>
	<path class="st4" d="M299.7,174.7l6,34.9h75.8l6.5-33.8c-0.5-0.5-1.2-1.3-2.2-2.2c-10.5-9.7-23.7-11.1-32.7-12
		c-7-0.7-22.5-2.1-39.8,5.5c-5.4,2.4-9.7,5-12.6,7.1L299.7,174.7z"/>
	<path class="st5" d="M393.7,280.5c3-1.4,6-2.9,8.9-4.3c0.9-0.4,1.8-0.8,2.6-1.3"/>
	<path class="st5" d="M390.7,275.3c2.7-1.8,5.5-3.7,8.2-5.5c0.8-0.5,1.6-1.1,2.4-1.6"/>
	<path class="st5" d="M387.9,270.1c2.4-2.3,4.8-4.5,7.3-6.8c0.7-0.7,1.4-1.3,2.1-2"/>
	<polygon class="st6" points="355.9,182.3 348.8,182.3 348.8,175.2 339.6,175.2 339.6,182.3 332.5,182.3 332.5,191.6 339.6,191.6 
		339.6,198.7 348.8,198.7 348.8,191.6 355.9,191.6 	"/>
	<g>
		<circle class="st7" cx="379.9" cy="280.7" r="15.4"/>
		<circle class="st8" cx="379.9" cy="280.7" r="9.5"/>
		<circle class="st7" cx="385.3" cy="275.3" r="4.2"/>
	</g>
	<path class="st5" d="M293.6,280.5c-3-1.4-6-2.9-8.9-4.3c-0.9-0.4-1.8-0.8-2.6-1.3"/>
	<path class="st5" d="M296.6,275.3c-2.7-1.8-5.5-3.7-8.2-5.5c-0.8-0.5-1.6-1.1-2.4-1.6"/>
	<path class="st5" d="M299.4,270.1c-2.4-2.3-4.8-4.5-7.3-6.8c-0.7-0.7-1.4-1.3-2.1-2"/>
	<g>
		<circle class="st7" cx="307.4" cy="280.7" r="15.4"/>
		<circle class="st8" cx="307.4" cy="280.7" r="9.5"/>
		<circle class="st7" cx="302" cy="275.3" r="4.2"/>
	</g>
	<g>
		<path class="st8" d="M371.9,331c1.1-0.1,2,0.9,1.9,2c-0.9,9-2,18.2-5.9,26.4c-4.2,8.8-12.4,16.4-22.1,17.1
			c-10.6,0.8-20.5-6.9-25.4-16.3c-4.6-8.9-5.2-18.8-5.6-28.9c0-1,0.8-1.8,1.8-1.8L371.9,331C371.8,331,371.9,331,371.9,331
			L371.9,331z"/>
		<path class="st9" d="M367.9,360.1c-4.2,8.8-12.4,16.4-22.1,17.1c-10.6,0.8-20.5-6.9-25.4-16.3c3.3-4,9.1-5.5,14.3-6.1
			c2.3-0.3,4.7-0.5,7-0.6c4.6-0.3,9.2-0.6,13.7,0.1c4.5,0.8,9,2.7,12,6.1"/>
		<g class="st10">
			<path class="st8" d="M317.8,332.6l52.9,1.4c-0.9,8.7-2.1,17.2-5.6,24.7c-4.2,9-11.9,15.2-19.7,15.8c-0.4,0-0.9,0.1-1.3,0.1
				c-9.4,0-17.4-7.5-21.1-15C318.9,351.4,318.2,342.5,317.8,332.6 M316.5,329.6c-1,0-1.8,0.8-1.7,1.8c0.3,10.2,0.9,20.3,5.5,29.4
				c4.6,9.2,13.8,16.7,23.8,16.7c0.5,0,1,0,1.5-0.1c9.7-0.8,17.9-8.5,22.1-17.5c3.9-8.3,5.1-17.7,6-26.9c0.1-1.1-0.7-2.1-1.8-2.1
				h-0.1l0,0l0,0L316.5,329.6L316.5,329.6L316.5,329.6z"/>
		</g>
	</g>
	<circle class="st11" cx="277.9" cy="382.6" r="21.8"/>
	<circle class="st11" cx="297.1" cy="461.1" r="7.5"/>
	<circle class="st11" cx="399.2" cy="404.7" r="14.6"/>
	<circle class="st11" cx="418.1" cy="343.7" r="12.1"/>
	<circle class="st11" cx="376.7" cy="231" r="9.3"/>
	<circle class="st11" cx="334.6" cy="417.9" r="7.1"/>
	<circle class="st11" cx="398.1" cy="485.7" r="7.1"/>
	<path class="st11" d="M274.5,232.5c-5.7,6.1-10.7,12.7-15.1,19.7c0,2.2,1.6,4.1,3.5,5.2c1.9,1,4.1,1.3,6.3,1.6
		c4,0.4,8.3,0.7,12-0.9c1.3-0.6,2.6-1.3,3.8-2.2c1.9-1.3,3.6-2.9,4.8-4.9s2-4.3,1.7-6.6c-0.3-2.4-1.6-4.6-3.2-6.3
		c-3.5-3.8-8.5-5.6-13.6-5.8h-0.1"/>
	<circle class="st11" cx="284.3" cy="318.4" r="11.1"/>
	<path class="st11" d="M440.2,273.8c-0.5-1.1-0.7-1.4-1.1-2.2c-0.1-0.1-0.1-0.2-0.2-0.3c-0.1-0.1-0.2-0.3-0.3-0.4
		c-1.4-1.1-3.3-1.2-5-1.2c-3.3-0.1-6.7-0.1-9.7,1.2c-2,0.8-3.6,2.2-5.3,3.6c-2.2,1.8-4.4,3.6-5.4,6.2c-0.8,2-0.8,4.2-0.7,6.3
		c0.1,2.2,0.5,4.3,1.3,6.3c1.2,2.5,3.2,4.6,5.3,6.4c3,2.5,6.3,4.8,10.1,5.8c3.8,1,8.1,0.7,11.2-1.6c2.2-1.7,3.7-4.1,5.1-6.6
		c0.2-0.4,0.5-0.9,0.6-1.3c0.1-0.5,0.7-1,0.6-1.5C445.7,287.4,442.9,280.3,440.2,273.8z"/>
	<circle class="st11" cx="332.8" cy="247" r="3.9"/>
</g>
</svg>
