<?xml version="1.0" encoding="utf-8"?>
<!-- Generator: Adobe Illustrator 22.0.1, SVG Export Plug-In . SVG Version: 6.00 Build 0)  -->
<svg version="1.1" id="Layer_1" xmlns="http://www.w3.org/2000/svg" xmlns:xlink="http://www.w3.org/1999/xlink" x="0px" y="0px"
	 viewBox="0 0 1651.3 1391" style="enable-background:new 0 0 1651.3 1391;" xml:space="preserve">
<style type="text/css">
	.st0{fill:#EC7068;}
	.st1{fill:#FFFFFF;}
	.st2{font-family:'FiraSans-SemiBold';}
	.st3{font-size:298.7598px;}
	.st4{letter-spacing:-1;}
</style>
<path class="st0" d="M-8.3,1128.6c87.8-3.8,190.5-16.7,273.5-38.1c75.3-19.4,148-45.9,226.7-55.4c182.6-22,376.3,49.8,550.4,3.6
	c55.6-14.8,104.4-40.6,152-66.5c102.3-55.6,207.4-116.5,257-202.8c49.6-86.3,20.6-204.5-94.1-244.9
	c-49.8-17.5-107.5-18.1-159.7-31.5c-52.9-13.5-99.2-40.5-129.4-75.2c-30-34.5-45-76.7-85.2-104.9c-70.1-49.2-181.5-35.9-277.7-28.4
	c-243.9,19.1-495.7-22.8-705-117.2L-8.3,1128.6z"/>
<text transform="matrix(1 0 0 1 274.8255 765.8965)" class="st1 st2 st3 st4">Start</text>
</svg>
