<?xml version="1.0" encoding="utf-8"?>
<!-- Generator: Adobe Illustrator 22.0.1, SVG Export Plug-In . SVG Version: 6.00 Build 0)  -->
<svg version="1.1" id="Layer_1" xmlns="http://www.w3.org/2000/svg" xmlns:xlink="http://www.w3.org/1999/xlink" x="0px" y="0px"
	 viewBox="0 0 926.7 419.7" style="enable-background:new 0 0 926.7 419.7;" xml:space="preserve">
<style type="text/css">
	.st0{fill:#173644;stroke:#173644;stroke-width:1.5;stroke-miterlimit:10;}
	.st1{font-family:'ThriftshopSansLight';}
	.st2{font-size:89.4952px;}
	.st3{fill:#048F9C;stroke:#048F9C;stroke-width:0.7;stroke-linecap:round;stroke-miterlimit:10;}
	.st4{fill:#173644;}
	.st5{font-size:198.9782px;}
	.st6{font-size:125.6705px;}
	.st7{fill:#EC7068;}
</style>
<text transform="matrix(1 0 0 1 287.3612 253.9365)" class="st0 st1 st2">and</text>
<path class="st3" d="M165.8,150.1c-3.4,31.1,4.9,62.3,5,93.6c0,14.2-1.6,28.7,2.8,42.2c0.3,0.8,0.6,1.6,1.1,2.2
	c0.7,0.8,1.8,1,2.9,1.2c4.4,0.6,8.7-0.9,12.9-2.4c11.2-4.2,22.8-9.4,29.6-19.2c2.5-3.5,4.2-7.5,5.7-11.5c2.7-6.9,4.7-14.1,5.6-21.5
	c1.2-11-0.4-22.2-2.7-33c-1.6-7.1-3.5-14.1-6.7-20.7c-9.4-19.2-29.4-31.8-50.4-35.7c-0.6-0.1-1.4-0.2-1.9,0.1
	c-0.4,0.2-0.7,0.7-1,1.1c-1.1,1.9-2.2,3.7-3.4,5.6"/>
<text transform="matrix(1 0 0 1 97.161 274.6855)"><tspan x="0" y="0" class="st4 st1 st5">Ed</tspan><tspan x="135.1" y="0" class="st4 st1 st6"> </tspan></text>
<path class="st7" d="M586.4,151.9c-9.6,8.5-19.6,17.6-23,30c-1.1,3.9-1.4,7.9-1.7,11.9c-0.3,4.2-0.7,8.4-1,12.6
	c-1.2,13.9-2.3,28,0.7,41.7c3,13.6,10.7,26.9,23.2,33.1c6.7,3.3,14.2,4.4,21.7,4.8c3.8,0.2,7.6,0.1,11.3-1c4.8-1.5,8.9-4.9,12.7-8.1
	c8.9-7.5,18-15.2,23.3-25.6c3.8-7.5,5.5-15.9,6.9-24.2c2.6-14.8,4.8-30.4-0.4-44.6c-4.4-12.1-14.1-22-25.6-27.8
	c-11.5-5.8-24.7-7.8-37.6-7c-5.8,0.4-12.1,1.7-15.7,6.2"/>
<text transform="matrix(1 0 0 1 467.9168 276.7231)" class="st4 st1 st5">Nora</text>
</svg>
