<?xml version="1.0" encoding="utf-8"?>
<!-- Generator: Adobe Illustrator 22.0.1, SVG Export Plug-In . SVG Version: 6.00 Build 0)  -->
<svg version="1.1" id="Layer_1" xmlns="http://www.w3.org/2000/svg" xmlns:xlink="http://www.w3.org/1999/xlink" x="0px" y="0px"
	 viewBox="0 0 536 342.3" style="enable-background:new 0 0 536 342.3;" xml:space="preserve">
<style type="text/css">
	.st0{fill:none;stroke:#048F9C;stroke-miterlimit:10;}
	.st1{fill:#048F9C;}
	.st2{font-family:'FiraSans-Regular';}
	.st3{font-size:24.3088px;}
	.st4{fill:#EC7068;}
</style>
<g>
	<path id="Button_6_" class="st0" d="M470.5,241.9c0,3.4-2.7,6.1-6.1,6.1H153c-3.4,0-6.1-2.7-6.1-6.1v-79c0-3.4,2.7-6.1,6.1-6.1
		h311.5c3.4,0,6.1,2.7,6.1,6.1V241.9z"/>
	<text transform="matrix(1 0 0 1 245.6568 211.5462)" class="st1 st2 st3">Purchase now  &gt;</text>
	<path id="Icon_2_" class="st4" d="M208.6,188l2.9,9.3c0.1,0.4,0.5,0.7,1,0.7h9.4c1,0,1.4,1.4,0.6,2l-7.6,5.8
		c-0.4,0.3-0.5,0.8-0.4,1.2l2.9,9.3c0.3,1-0.8,1.8-1.6,1.2l-7.6-5.8c-0.4-0.3-0.8-0.3-1.2,0l-7.6,5.8c-0.8,0.6-1.9-0.2-1.6-1.2
		l2.9-9.3c0.1-0.4,0-0.9-0.4-1.2l-7.6-5.8c-0.8-0.6-0.4-2,0.6-2h9.4c0.4,0,0.8-0.2,1-0.7l2.9-9.3C207,186.9,208.3,187,208.6,188"/>
</g>
</svg>
