<?xml version="1.0" encoding="utf-8"?>
<!-- Generator: Adobe Illustrator 22.0.1, SVG Export Plug-In . SVG Version: 6.00 Build 0)  -->
<svg version="1.1" id="Layer_1" xmlns="http://www.w3.org/2000/svg" xmlns:xlink="http://www.w3.org/1999/xlink" x="0px" y="0px"
	 viewBox="0 0 669.3 527.3" style="enable-background:new 0 0 669.3 527.3;" xml:space="preserve">
<style type="text/css">
	.st0{fill:none;stroke:#ED7068;stroke-width:8;stroke-linecap:round;stroke-miterlimit:10;}
	.st1{fill:none;stroke:#0A8E9B;stroke-width:8;stroke-miterlimit:10;}
	.st2{fill:#FFFFFF;}
	.st3{fill:#ED7068;stroke:#ED7068;stroke-miterlimit:10;}
	.st4{fill:#ED7068;}
	.st5{fill:#FAC645;}
</style>
<polyline class="st0" points="310,327.3 167.6,327.3 167.6,138 489.5,138 489.5,249.2 "/>
<line class="st0" x1="519.8" y1="340.8" x2="519.8" y2="357.8"/>
<path class="st0" d="M328.5,363.4H159.9c-14.6,0-26.5-11.8-26.5-26.5V133.9c0-15.5,12.6-28.1,28.1-28.1h330.3c15.5,0,28,12.6,28,28
	v172.8"/>
<path class="st1" d="M409.8,402c-15.4-15.2-26.3-32.1-31.9-52.1c-6-21.4-3.7-42.1,4.9-62.3c6.2-14.6,15-27.5,26.6-38.3
	c4.5-4.1,9.6-7.5,14.6-11.1c1.6-1.1,3.5-1.7,5.3-2.5c5.8-2.3,10.9-0.9,15.4,3.2c4.4,4,7.4,9,10,14.4c6.1,12.8,9.4,26.4,11.5,40.3
	c4.3,28.1,4.3,56.2-1.3,84.1c-2,9.9-4.9,19.6-9.9,28.5c-2.1,3.6-4.5,7-7.9,9.6c-3.6,2.7-7.5,3.4-11.8,2.3
	c-6.7-1.8-12.4-5.4-17.8-9.6C414.5,406.1,411.8,403.7,409.8,402z M430.6,394.1c6.1,5.9,10.9,5.8,15.4,0.8c1.2-1.3,2.3-2.9,3.2-4.4
	c4.1-7.1,6.1-14.9,7.6-22.9c4.4-23.7,4.1-47.5,0.2-71.3c-1.6-10-4-19.8-8.4-29.1c-2-4.3-4.4-8.3-8.3-11.2c-3.5-2.5-7.4-2.4-10.6,0.4
	c-1.5,1.3-2.9,2.9-4,4.6c-3.8,5.7-5.8,12.1-7.3,18.7c-4.7,20.2-5.3,40.6-3.5,61.1c1.2,13.3,3.3,26.4,7.9,39
	C425.1,385.5,427.5,390.9,430.6,394.1z"/>
<path class="st1" d="M374.1,375.3c-0.4,0.7-1.6,3-2.8,2.8c-0.3-0.1-0.5-0.3-0.6-0.3c-12.1-7-22.8-15.6-30.9-27.1
	c-11.9-17-12.1-35.2-0.6-52.5c12.4-18.7,30.8-34.4,35-31.2c2.7,2.1-3.6,10-8.6,31.2c-4.6,19.2-6.9,29.1-3.9,41
	C365.2,352.8,376.4,371.1,374.1,375.3z"/>
<path class="st1" d="M494.6,329.4c-2.1-2.3-2.6-4.3-1.9-6.5c0.8-2.3,2.4-3.5,4.8-3.7c2.4-0.2,4.8-0.2,7.2-0.2
	c6.6-0.2,13.2-0.3,19.7-0.5c3.8-0.1,6.3,2,6.4,5.3c0.1,3.3-2.3,5.6-6,5.8c-8.7,0.3-17.3,0.6-26,0.7
	C497.3,330.3,495.6,329.6,494.6,329.4z"/>
<path class="st1" d="M497.8,370.2c3.2,3,6.5,6.1,9.7,9.2c2.5,2.4,2.8,5.7,0.7,8c-2.1,2.4-5.6,2.5-8.2,0.1
	c-6.5-6.1-13-12.2-19.5-18.4c-2.5-2.4-2.5-5.8-0.4-8.1c2.2-2.2,5.6-2.2,8,0.1C491.3,364.1,494.5,367.2,497.8,370.2z"/>
<path class="st1" d="M488,270.9c3.1-3.2,6.2-6.3,9.3-9.5c2.5-2.5,5.7-2.6,8-0.5c2.3,2.2,2.4,5.7-0.1,8.2
	c-6.2,6.4-12.5,12.8-18.8,19.1c-2.4,2.4-5.8,2.4-8.1,0.2c-2.2-2.2-2.1-5.6,0.3-8C481.8,277.2,484.9,274.1,488,270.9z"/>
<g>
	<g>
		<path class="st2" d="M410.5,260.3c-0.1,6.2,2.1,12.2-0.7,17.9c-2.3,4.6-4.3,10.9-4.5,16.1c-0.3,11.6,17.7,11.6,18,0
			c0.1-4.3,3.4-8.8,4.7-12.8c2.4-7.2,0.4-13.9,0.5-21.2C428.6,248.7,410.6,248.7,410.5,260.3L410.5,260.3z"/>
	</g>
</g>
<g>
	<g>
		<path class="st2" d="M422.6,277.7c0-3.8,0.1-6.5,2.6-9.6c1.4-1.7,3.9-5.9,6.3-6.3c-1.7-2.2-3.4-4.4-5.1-6.6
			c-1.5,2.4-3.9,4.3-5.8,6.5c-2.2,2.6-4.3,5.3-6,8.2c-3.2,5.3-5.9,11.2-7.5,17.1c-0.8,2.9,1.5,5.5,4.3,5.7c4.2,0.2,6.7-5,9.1-7.7
			c5.1-5.6,10.5-10.8,15-16.9c-2.7-1.2-5.5-2.3-8.2-3.5c-1.7,4.2-5.1,8.1-7.6,11.9c-2,3-4.1,6.8-6.7,9.3c2.4,0.3,4.7,0.6,7.1,0.9
			c0.4,0.9,0.6-1.3,0.8-1.9c0.5-1.7,1.1-3.5,1.8-5.2c0.7-1.9,1.6-3.7,2.6-5.5c0.3-0.6,2.5-4.4,1.7-4.1c-1.8-1-3.7-2.1-5.5-3.1
			c0.4,1.3-2.2,6.7-2.6,8c-1.2,3.8-2.8,7.5-4.1,11.2c2.9,0.8,5.8,1.6,8.7,2.4c0.2-1.3,0.6-2.4,1-3.6c1.7-5.2-5.4-7.2-8.2-3.5
			c-2.2,2.9-3.3,7.4-4.2,10.9c-1.4,5.6,7.2,8,8.7,2.4c0.7-2.8,1.5-6.4,3.3-8.8c-2.7-1.2-5.5-2.3-8.2-3.5c-0.4,1.2-0.7,2.4-1,3.6
			c-1,5.7,6.8,8,8.7,2.4c1.6-4.8,3.6-9.6,5.2-14.5c0.9-3,2.6-6.5,1.6-9.6c-0.7-2.1-3.1-4-5.5-3.1c-5.3,2-8,9.2-10,14.1
			c-1.9,4.8-4.7,10.6-2.3,15.7c1.3,2.7,5.1,2.7,7.1,0.9c3.3-3,5.7-7.5,8.2-11.2c3-4.5,6.5-9,8.5-14.1c2.1-5.1-5.5-7.2-8.2-3.5
			c-3.5,4.7-7.7,9-11.8,13.2c-1.5,1.6-3,3.2-4.3,4.9c-0.3,0.4-0.6,0.7-0.9,1.1c-1.1,1.8-2.2,0.7,0.6,0.9c1.4,1.9,2.9,3.8,4.3,5.7
			c1.6-5.8,4.3-11.5,7.6-16.5c3.1-4.8,7.9-8.3,10.8-13.1c2.2-3.6-1.4-7.3-5.1-6.6c-4.9,0.9-8.5,6.4-11.4,10.1
			c-3.5,4.6-4.1,8.9-4.1,14.5C413.6,283.5,422.6,283.5,422.6,277.7L422.6,277.7z"/>
	</g>
</g>
<g>
	<g>
		<path class="st2" d="M404.4,279.4c0,7.3-2.5,12.8-4.8,19.6c-2.7,7.7-2.5,17.6-1.4,25.6c1,7.6,1.1,15,1.1,22.6c0,3.7,0,7.4,0,11
			c0,2,0.1,4,0.5,6c0.1,0.4,1.1,5.1,1,3.2c8,0,16,0,24,0c-0.5-7.5-3.2-14.2-5.2-21.4c-1.8-6.5-2.6-13-2.8-19.7
			c-0.4-11.4,1.8-24.1,5.7-34.8c-1,1.8-2.1,3.5-3.1,5.3c0.3-0.3,0.5-0.5,0.8-0.8c-6.7-1.8-13.4-3.5-20.1-5.3c-0.3-2.1-0.2-3.2-1-0.5
			c-0.4,1.3-0.6,2.6-0.9,3.9c-0.5,3-0.7,6-1,9.1c-0.5,5.7-1.3,11.2-1.3,16.9c0,12.1-0.4,24,2.3,35.9c1.2,5.1,2.3,10.3,3.2,15.5
			c0.4,2.3,0.7,4.8,1.2,7.1c0.4,1.7,1.2,3.3,2,4.9c0.7,1.5-0.2-0.6,0.6,1.1c4.8,10.3,13.5,19.7,24.6,23.2c8,2.6,14.5-4.2,15.2-11.6
			c1-10.9-11.4-14.4-15.2-22.3c-2.2-4.4-3.3-10.5-4.1-15.3c-0.4-2.3-0.8-4.6-1-6.9c-0.1-1-0.1-2.1-0.1-3.1c0,0.1-0.1-3.8-0.3-2.7
			c-5.9,2.4-11.8,4.8-17.6,7.2c0.2,0.1,0.4,0.3,0.6,0.4c-1.8-2.4-3.7-4.8-5.5-7.2c-0.6-2.1-0.2-1.2,0,0.8c0.2,1.4,0.4,2.6,0.8,3.9
			c1,3,1.6,3.5,2,5.9c1,5.3,2.7,10.9,4.9,15.8c0.8,1.7,0.4,2.5,1,5.5c0.5,2.7-0.2-1.5,0.4,2.1c0.2,1.5,0.4,2.7,0.9,4.1
			c1.6,5.4,4.8,9.7,8.9,13.4c10.5,9.4,26.5,6.8,32.4-6.3c1.9-4.2,3.5-8.4,4.9-13.3c0.7-2.6,1.5-5,2-7.7c0.2-1,0.4-2.1,0.6-3.1
			c0,0.1,1.5-3.6,0.7-2c-7.3-3.1-14.6-6.2-21.9-9.2c-0.7,3.3-1.9,6.3-2.1,9.7c-0.3,3.5-0.4,6.5-1.8,9.9c-1.2,3-4.1,10.3-7.5,12.5
			c-5.4,3.6-7.7,10.6-4.3,16.4c3.1,5.4,11,7.9,16.4,4.3c8-5.3,12-13,16.2-21.3c2.1-4.2,3.5-8.8,4.3-13.4c0.4-2.3,0.2-4.7,0.5-6.9
			c0.3-1.7,1.1-3.2,1.4-4.8c1.2-5.8-1.2-11.8-6.9-14.2c-5.4-2.2-12.1-0.4-15,4.9c-3.7,6.8-4.6,16.2-6.8,22.5
			c-0.4,1.1-1.8,6.1-2.8,6.7c0.5-2.3,2.1-3.2,4.8-2.9c0.4,0.1,0.8,0.2,1.2,0.4c0.6,0.7,0.4,0.5-0.5-0.6c-0.6-0.7-1.2-1.3-1.9-1.9
			c0.9,1.6-0.1-2.1,0.1-0.5c0.4,3-0.9-5.7-0.6-3.5c-0.4-2.5-0.5-5-1.3-7.4c-1.3-4-2.7-7.3-3.8-11.6c-0.6-2.1-0.9-4.2-1.4-6.3
			c-0.5-1.4-1.1-2.8-1.7-4.2c-0.8-1.4-0.9-1.6-0.4-0.8c0.8,3.1-0.1-2.3-0.5-3.6c-1.1-3.5-3.2-5.6-6.1-7.6c-6-3.9-16.4-0.3-17.6,7.2
			c-1.9,12,0.9,25,4.1,36.6c1.7,6.2,4.6,12.4,9,17.2c1.6,1.7,3.4,3.2,5.1,4.7c0.6,0.6,1.3,1.1,1.9,1.7c3.3,3.1-0.7,1.3-0.2-3.5
			c5.1-3.9,10.1-7.7,15.2-11.6c0.6,0.2-2.3-1.8-3-2.3c-1.9-1.3-2.5-1.5-3.9-3.2c-1.6-2-2.9-5-3.7-7.6c-1.3-4.5-1.6-9.4-2.5-14
			c-1-4.7-2.5-9.4-3-14.2c-0.5-4.5-0.2-9.3-0.2-13.8c0-5.4-0.3-10.8,0.2-16.1c0.4-4.7,0.7-9.7,1.5-14.4c0.9-5.3,2.5-9.1,1.6-14.7
			c-1.5-9.1-14.3-11.3-20.1-5.3c-4.7,4.9-6.1,13-7.3,19.6c-1.4,7.5-3.1,15.4-3.2,23.1c-0.1,7.8,0.7,15.7,2,23.4
			c0.7,3.7,1.7,7.4,2.8,11c1.1,3.5,3,7.6,3.2,11.3c0.5,6.5,5.2,12,12,12c6.3,0,12.3-5.5,12-12c-0.2-3.4-1.4-7-1.5-9.2
			c0-3.4,0-6.8,0-10.2c0-8.7-0.5-17-1.3-25.7c-0.6-6.1-0.8-12.8,1.4-18.6c3.2-8.2,5.1-15.6,5.1-24.4
			C428.4,264,404.4,264,404.4,279.4L404.4,279.4z"/>
	</g>
</g>
<g>
	<g>
		<path class="st2" d="M428.8,252c-2.5-0.1-4.7-0.3-6.8,1c-4.2,2.5-1.5,10.1,3.5,8.2c2.4-0.9,4.9-4.2,7.8-3.6c2,0.4,6.4,4.6,6.2,6.9
			c1.9-1.4,3.8-2.9,5.7-4.3c-2-0.4-4.8-3.4-6.3-4.8c-2.1-1.8-4-3.4-7-3.3c-3.4,0.1-5.7,3.8-3.9,6.8c2.3,3.8,5.7,6,9.1,8.8
			c4.5,3.6,5.8,9.1,7,14.5c0.8,3.5,6.7,4.6,8.2,1.1c1.6-3.7,0.4-6.3-0.2-10.1c-0.6-4.1-0.4-7.3-2.5-11c-0.5,2.1-1.1,4.1-1.6,6.2
			c2.6-1.6,3.1-3.9,2.9-6.8c-0.4-5.7-9.3-5.8-9,0c0.3,5.2,2.2,10.1,3,15.2c0.7,5.2,1.6,10.3,1.4,15.7c-0.4,11.9,2.3,23.7,2.2,35.7
			c0,6.2,0.5,12.4,0.5,18.6c0,3.3,0.5,6.9-0.1,10.2c-0.5,2.8-1.4,5.6-1.8,8.5c-0.9,5.7-3,11-4.4,16.5c-1.3,5.1-3.9,11.2-3.6,16.5
			c0.2,3.5,3.6,5.4,6.8,3.9c2-1,2.5-2.4,3.1-4.4c0.8-2.6,2.2-4.4,3.7-6.8c2.4-4,5-9.3,5.9-13.9c2.3-12.4,2.3-25.1,2.3-37.6
			c0-5.8-8.8-5.8-9,0c-0.2,4.7-0.2,9.9,1.7,14.3c1.3,3,6.5,2.9,7.8,0c1.1-2.5,1-4.7,1-7.4c-0.1-3.7,0.4-7.4-0.2-11.1
			c-1.2-7.5-0.9-14.9-1.7-22.5c-0.8-7.1-2.7-14-3.4-21.1c-0.3-3.4-0.7-6.8-0.8-10.3c0-2.8-0.3-5.3-1.5-7.9c-2.2-4.8-9.3-1.3-8.2,3.5
			c1.1,5,3.6,9.8,4.2,14.9c0.6,5,0.9,10.2,1.2,15.2c0.3,5,0,10.2,0.7,15.2c0.6,4.4-0.2,9.4,0.9,13.7c1,3.9,6.2,4.3,8.2,1.1
			c2.5-4,1.5-9.2,1.5-13.7c0-5.4-0.3-10.1-1.1-15.3c-0.8-5-9-3.8-8.8,1.2c0.1,3.4,0.3,6.8,0.5,10.2c0.3,5.8,9.3,5.8,9,0
			c-0.2-3.4-0.4-6.7-0.5-10.2c-2.9,0.4-5.9,0.8-8.8,1.2c0.6,3.8,0.8,7.3,0.8,11.2c0,2.6,1.2,8.6-0.2,10.8c2.7,0.4,5.5,0.7,8.2,1.1
			c-0.4-1.7,0.2-3.8,0.1-5.5c-0.1-2.5-0.6-4.9-0.9-7.4c-0.6-5.3-0.1-10.8-0.6-16.2c-0.5-5-0.7-10-1.4-15c-0.8-5.1-3.1-10-4.3-15
			c-2.7,1.2-5.5,2.3-8.2,3.5c1,2.2,0.2,5.6,0.4,8c0.2,2.6,0.5,5.2,0.9,7.9c0.9,6.4,2.2,12.7,3.2,19.1c1,6.8,0,13.7,1.2,20.4
			c0.5,3.2,0.8,5.9,0.8,9.1c0,1.4,0,2.9,0,4.3c0,0.5-0.2,3.3,0.3,2.4c2.6,0,5.2,0,7.8,0c-1-2.2-0.6-7-0.5-9.7c-3,0-6,0-9,0
			c0,5.6,0.1,11.3,0,16.9c-0.1,5.5-1.5,10.8-2,16.3c-0.7,9-7.4,15.6-9.8,24c0.7-0.9,1.4-1.8,2.1-2.7c-0.2,0.1-0.5,0.2-0.7,0.3
			c2.3,1.3,4.5,2.6,6.8,3.9c-0.3-5.5,2.7-12.4,4.1-17.7c1.3-5.1,3-9.7,3.8-14.9c0.5-3.1,1.7-6.1,2-9.3c0.3-2.9-0.1-5.9-0.1-8.8
			c0-6.5-0.5-13-0.5-19.5c0.1-11.7-2.6-23.2-2.2-34.8c0.2-5.7-0.5-11-1.2-16.7c-0.6-5.1-2.9-9.9-3.1-15c-3,0-6,0-9,0
			c0,0.5,0.1,0.9,0.1,1.4c0.7-0.9,1.4-1.8,2.1-2.7c-0.2,0.1-0.4,0.2-0.6,0.4c-2.1,1.3-2.8,4-1.6,6.2c1.2,2.2,0.9,4.5,1.2,6.8
			c0.1,0.9,1.4,5.2,1.4,5.3c2.7,0.4,5.5,0.7,8.2,1.1c-1.2-5.4-2.8-11.6-6.5-15.9c-3.1-3.6-7.9-5.5-10.4-9.6
			c-1.3,2.3-2.6,4.5-3.9,6.8c-0.9,0,0.9,1.1,1.5,1.5c1,0.9,2.1,1.7,3.3,2.5c2,1.5,3.7,3.3,6.2,3.8c3,0.6,5.5-1.3,5.7-4.3
			c0.4-5.4-5.4-11.7-9.7-14.5c-2.4-1.6-5.3-1.6-8-1.1c-1.7,0.3-3.4,0.8-4.9,1.6c-0.8,0.4-2,1.8-2.7,2.1c1.2,2.7,2.3,5.5,3.5,8.2
			c0.2-0.1,2,0.2,2.3,0.2C434.6,261.3,434.5,252.3,428.8,252L428.8,252z"/>
	</g>
</g>
<circle class="st3" cx="149.5" cy="232.3" r="2.4"/>
<circle class="st4" cx="504.2" cy="227.9" r="6.8"/>
<path class="st5" d="M440.3,306.3c11.1,10.7,10.8,31.9-0.7,41.9c-3.7,3.2-8.1,4.7-13,4.1c-1.2-0.1-1.8-0.7-2-1.9
	c-2.7-15.6-3.2-31.2-1.3-47c0.2-1.5,0.8-2,2.2-2.2C431.3,300.5,436.2,302.3,440.3,306.3z"/>
<g>
	<g>
		<path class="st2" d="M440.6,252.2c1.4,1.3,2.6,2.7,3.8,4.2c1.1,1.4,2.2,2.5,2.6,4.3c0.4,1.9,3.3,1.1,2.9-0.8
			c-0.4-1.7-1.3-3.4-2.6-4.7c-1.6-1.7-2.9-3.5-4.6-5.1C441.3,248.7,439.1,250.9,440.6,252.2L440.6,252.2z"/>
	</g>
</g>
<g>
	<g>
		<path class="st2" d="M447.4,261.6c3.8,4.5,5.3,12.3,6.7,17.9c0.4,1.6,3,1.3,2.9-0.4c-0.2-3-1.4-5.7-1.6-8.6c-1,0.1-2,0.3-2.9,0.4
			c0.2,1.5,1,2.8,1.5,4.3c1,2.5,1.2,4.9,1.6,7.5c0.4,3.1,0.8,6.6,2.1,9.4c0.5,1.1,2.5,0.9,2.7-0.4c0.4-2.3,0-4.5-0.4-6.8
			c-0.3-1.5-2.5-1.3-2.9,0c-0.6,1.9,0,3.7,0.4,5.6c0.7,3.3,1.2,6.1,1.4,9.5c0.4,4.8,0.1,10.3,1.9,14.8c0.5,1.3,2.4,1.5,2.9,0
			c0.8-2.6-1.1-5-1.3-7.7c-0.2-1.9-3.2-1.9-3,0c0.2,2,2,5,1.4,6.9c1,0,1.9,0,2.9,0c-1.6-4.2-1.3-9.3-1.7-13.8
			c-0.2-2.1-0.1-4.2-0.6-6.3c-0.5-2.4-2.2-5.9-1.5-8.3c-1,0-1.9,0-2.9,0c0.3,1.5,0.7,3.7,0.4,5.2c0.9-0.1,1.8-0.2,2.7-0.4
			c-1.5-3.2-1.5-7.4-2-10.9c-0.5-3.4-2.3-6.3-2.9-9.6c-0.3-1.7-3.1-1.3-2.9,0.4c0.2,3,1.4,5.6,1.6,8.6c1-0.1,2-0.3,2.9-0.4
			c-1.6-6.4-3.2-14.1-7.4-19.3C448.2,258,446.1,260.1,447.4,261.6L447.4,261.6z"/>
	</g>
</g>
<g>
	<g>
		<path class="st2" d="M458.4,291c0.1,4.9,1.5,9.7,1.9,14.7c0.4,5.7,1.3,11.4,1.3,17.1c-0.1,6.6,0.1,13.1,0,19.7
			c-0.1,5.5-1.1,11.1-1.6,16.6c-0.2,1.9,2.8,1.9,3,0c0.5-5.5,1.5-11.1,1.6-16.6c0.1-6.6-0.1-13.1,0-19.7c0.1-5.4-0.5-10.7-1-16.1
			c-0.5-5.2-2-10.5-2.1-15.7C461.3,289.1,458.3,289.1,458.4,291L458.4,291z"/>
	</g>
</g>
<ellipse class="st1" cx="435.3" cy="329.3" rx="22.4" ry="73.2"/>
</svg>
