<?xml version="1.0" encoding="utf-8"?>
<!-- Generator: Adobe Illustrator 22.0.1, SVG Export Plug-In . SVG Version: 6.00 Build 0)  -->
<svg version="1.1" id="Layer_1" xmlns="http://www.w3.org/2000/svg" xmlns:xlink="http://www.w3.org/1999/xlink" x="0px" y="0px"
	 viewBox="0 0 174 152.9" style="enable-background:new 0 0 174 152.9;" xml:space="preserve">
<style type="text/css">
	.st0{fill:#FFFFFF;}
</style>
<path class="st0" d="M52.5,104.9c13.5-1.1,17.8-2.4,25-7.8c-7.4-1.8-13.3-4.9-15.9-12.6c2.1-0.2,3.9-0.4,6.8-0.6
	c-8.4-3.7-13.3-9-13.7-17.8c2.3,0.6,4.2,1.1,7.4,1.9c-6.8-7.4-9.6-14.8-4.8-24.2c10.2,11,22.4,17.7,37.6,18.7c0.1-1.4,0.2-2.7,0.2-4
	c0.3-13.2,13.1-21.9,25.4-17c9.2,3.6,9.2,3.6,18,1c-1.1,1.9-1.8,3.3-2.7,4.6c-1,1.3-2.1,2.5-3.9,4.4c3.1-0.7,5.4-1.3,7.7-1.8
	c0.1,0.5,0.2,1,0.1,1.1c-7.1,5-7.4,12.7-8.9,20.3c-6.7,33.9-44.7,51.8-75.4,35.7C54.8,106.4,54.1,105.9,52.5,104.9z"/>
</svg>
