<?xml version="1.0" encoding="utf-8"?>
<!-- Generator: Adobe Illustrator 22.0.1, SVG Export Plug-In . SVG Version: 6.00 Build 0)  -->
<svg version="1.1" id="Layer_1" xmlns="http://www.w3.org/2000/svg" xmlns:xlink="http://www.w3.org/1999/xlink" x="0px" y="0px"
	 viewBox="0 0 669.3 527.3" style="enable-background:new 0 0 669.3 527.3;" xml:space="preserve">
<style type="text/css">
	.st0{fill:none;stroke:#ED7068;stroke-width:8;stroke-linecap:round;stroke-miterlimit:10;}
	.st1{fill:#ED7068;stroke:#ED7068;stroke-miterlimit:10;}
	.st2{fill:#ED7068;}
	.st3{fill:none;stroke:#0A8E9B;stroke-width:8;stroke-linecap:round;stroke-miterlimit:10;}
	.st4{fill:#FAC645;}
</style>
<polyline class="st0" points="318.9,352.1 175.7,352.1 175.7,161.8 499.4,161.8 499.4,281.5 "/>
<line class="st0" x1="529.8" y1="379.9" x2="529.8" y2="390.6"/>
<path class="st0" d="M345.4,388.4H167.9c-14.7,0-26.6-11.9-26.6-26.6V157.7c0-15.6,12.6-28.2,28.2-28.2h332
	c15.6,0,28.2,12.6,28.2,28.2v149.6"/>
<circle class="st1" cx="155.6" cy="263.3" r="2.5"/>
<circle class="st2" cx="514.1" cy="258.9" r="6.9"/>
<path class="st3" d="M548.4,344.3c-7.5-8-19.5-19.1-36.3-29c-13.1-7.7-39-22.5-74.4-21.8c-23.9,0.5-41.5,7.9-52.6,12.7
	c-25.4,11-42.7,26.1-52.6,36.3c0.6,2.2,1.8,5.4,3.6,9.1c4.6,8.8,12.4,17.4,30.8,27.2c11,5.8,28.5,15.1,54.4,18.1
	c38.2,4.5,67.2-7.7,74.4-10.9c23.1-10.3,38.5-24.8,47.2-34.5L548.4,344.3z"/>
<path class="st3" d="M409.7,394.2c-15.5-9.3-27.2-30.1-27.2-49c0-18,11.2-37.7,25.4-47.2"/>
<path class="st3" d="M464.1,296.2c15.8,9.2,27.2,29.8,27.2,49c0,19.8-12.3,41.8-29,50.8"/>
<path class="st4" d="M441.4,338.8c0.5-1.5,2.3-6.2,7.3-9.1c1.5-0.9,6.2-3.6,10.9-1.8c5.7,2.2,7,9.3,7.3,10.9
	c1.3,7.3-2.7,13.1-3.6,14.5c-3.1,4.5-7.1,6.7-14.5,10.9c-3,1.7-5.5,2.9-7.3,3.6h-1.6c-1.7-0.8-4.3-2-7.3-3.6
	c-7.4-4.1-11.5-6.4-14.5-10.9c-1-1.4-4.9-7.2-3.6-14.5c0.3-1.5,1.5-8.7,7.3-10.9c4.7-1.8,9.4,0.9,10.9,1.8c4.9,2.9,6.8,7.6,7.3,9.1
	l0.7,0.9L441.4,338.8z"/>
<path class="st3" d="M339.4,323.4c-9.3-10.9-18.7-21.7-28.3-32.3"/>
<path class="st3" d="M353,314.6c-6.1-7.2-11.7-14.9-16.7-22.9"/>
<path class="st3" d="M327.5,332.5c-7.3-6-14.1-12.6-20.5-19.6"/>
</svg>
